<?xml version="1.0" encoding="UTF-8" standalone="no"?>
<!DOCTYPE svg PUBLIC "-//W3C//DTD SVG 1.1//EN"
 "http://www.w3.org/Graphics/SVG/1.1/DTD/svg11.dtd">
<!-- Generated by graphviz version 2.47.0 (20210316.0004)
 -->
<!-- Title: dbml Pages: 1 -->
<svg width="1512pt" height="970pt"
 viewBox="0.00 0.00 1511.95 970.35" xmlns="http://www.w3.org/2000/svg" xmlns:xlink="http://www.w3.org/1999/xlink">
<g id="graph0" class="graph" transform="scale(1 1) rotate(0) translate(4 966.35)">
<title>dbml</title>
<!-- preferences_table -->
<g id="preferences_table" class="node">
<title>preferences_table</title>
<ellipse fill="none" stroke="black" stroke-width="0" cx="391.74" cy="-141.96" rx="287.17" ry="130.22"/>
<polygon fill="#1d71b8" stroke="transparent" points="190.74,-171.96 190.74,-231.96 592.74,-231.96 592.74,-171.96 190.74,-171.96"/>
<polygon fill="none" stroke="#29235c" points="190.74,-171.96 190.74,-231.96 592.74,-231.96 592.74,-171.96 190.74,-171.96"/>
<text text-anchor="start" x="201.45" y="-193.16" font-family="Helvetica,sans-Serif" font-weight="bold" font-size="32.00" fill="#ffffff"> &#160;&#160;&#160;&#160;&#160;&#160;preferences_table &#160;&#160;&#160;&#160;&#160;&#160;</text>
<polygon fill="#e7e2dd" stroke="transparent" points="190.74,-111.96 190.74,-171.96 592.74,-171.96 592.74,-111.96 190.74,-111.96"/>
<polygon fill="none" stroke="#29235c" points="190.74,-111.96 190.74,-171.96 592.74,-171.96 592.74,-111.96 190.74,-111.96"/>
<text text-anchor="start" x="201.74" y="-133.16" font-family="Helvetica,sans-Serif" font-weight="bold" font-size="32.00" fill="#29235c">key</text>
<text text-anchor="start" x="251.53" y="-133.16" font-family="Helvetica,sans-Serif" font-size="32.00" fill="#29235c"> &#160;&#160;&#160;</text>
<text text-anchor="start" x="491.07" y="-133.16" font-family="Helvetica,sans-Serif" font-style="italic" font-size="32.00" fill="#29235c">text</text>
<text text-anchor="start" x="542.65" y="-133.16" font-family="Helvetica,sans-Serif" font-size="32.00" fill="#29235c"> </text>
<text text-anchor="start" x="551.54" y="-133.16" font-family="Helvetica,sans-Serif" font-weight="bold" font-size="32.00" fill="#29235c">(!)</text>
<polygon fill="#e7e2dd" stroke="transparent" points="190.74,-51.96 190.74,-111.96 592.74,-111.96 592.74,-51.96 190.74,-51.96"/>
<polygon fill="none" stroke="#29235c" points="190.74,-51.96 190.74,-111.96 592.74,-111.96 592.74,-51.96 190.74,-51.96"/>
<text text-anchor="start" x="201.74" y="-72.16" font-family="Helvetica,sans-Serif" font-size="32.00" fill="#29235c">value &#160;&#160;&#160;</text>
<text text-anchor="start" x="491.07" y="-73.16" font-family="Helvetica,sans-Serif" font-style="italic" font-size="32.00" fill="#29235c">text</text>
<text text-anchor="start" x="542.65" y="-73.16" font-family="Helvetica,sans-Serif" font-size="32.00" fill="#29235c"> </text>
<text text-anchor="start" x="551.54" y="-73.16" font-family="Helvetica,sans-Serif" font-weight="bold" font-size="32.00" fill="#29235c">(!)</text>
<polygon fill="none" stroke="#29235c" stroke-width="2" points="189.74,-50.96 189.74,-232.96 593.74,-232.96 593.74,-50.96 189.74,-50.96"/>
</g>
<!-- user_data_stores_table -->
<g id="user_data_stores_table" class="node">
<title>user_data_stores_table</title>
<ellipse fill="none" stroke="black" stroke-width="0" cx="1161.71" cy="-214.96" rx="342.48" ry="214.92"/>
<polygon fill="#1d71b8" stroke="transparent" points="921.71,-304.96 921.71,-364.96 1401.71,-364.96 1401.71,-304.96 921.71,-304.96"/>
<polygon fill="none" stroke="#29235c" points="921.71,-304.96 921.71,-364.96 1401.71,-364.96 1401.71,-304.96 921.71,-304.96"/>
<text text-anchor="start" x="932.29" y="-326.16" font-family="Helvetica,sans-Serif" font-weight="bold" font-size="32.00" fill="#ffffff"> &#160;&#160;&#160;&#160;&#160;&#160;user_data_stores_table &#160;&#160;&#160;&#160;&#160;&#160;</text>
<polygon fill="#e7e2dd" stroke="transparent" points="921.71,-244.96 921.71,-304.96 1401.71,-304.96 1401.71,-244.96 921.71,-244.96"/>
<polygon fill="none" stroke="#29235c" points="921.71,-244.96 921.71,-304.96 1401.71,-304.96 1401.71,-244.96 921.71,-244.96"/>
<text text-anchor="start" x="932.71" y="-266.16" font-family="Helvetica,sans-Serif" font-weight="bold" font-size="32.00" fill="#29235c">table_name</text>
<text text-anchor="start" x="1099.88" y="-266.16" font-family="Helvetica,sans-Serif" font-size="32.00" fill="#29235c"> &#160;&#160;&#160;</text>
<text text-anchor="start" x="1300.05" y="-266.16" font-family="Helvetica,sans-Serif" font-style="italic" font-size="32.00" fill="#29235c">text</text>
<text text-anchor="start" x="1351.62" y="-266.16" font-family="Helvetica,sans-Serif" font-size="32.00" fill="#29235c"> </text>
<text text-anchor="start" x="1360.52" y="-266.16" font-family="Helvetica,sans-Serif" font-weight="bold" font-size="32.00" fill="#29235c">(!)</text>
<polygon fill="#e7e2dd" stroke="transparent" points="921.71,-184.96 921.71,-244.96 1401.71,-244.96 1401.71,-184.96 921.71,-184.96"/>
<polygon fill="none" stroke="#29235c" points="921.71,-184.96 921.71,-244.96 1401.71,-244.96 1401.71,-184.96 921.71,-184.96"/>
<text text-anchor="start" x="932.71" y="-205.16" font-family="Helvetica,sans-Serif" font-size="32.00" fill="#29235c">name &#160;&#160;&#160;</text>
<text text-anchor="start" x="1300.05" y="-206.16" font-family="Helvetica,sans-Serif" font-style="italic" font-size="32.00" fill="#29235c">text</text>
<text text-anchor="start" x="1351.62" y="-206.16" font-family="Helvetica,sans-Serif" font-size="32.00" fill="#29235c"> </text>
<text text-anchor="start" x="1360.52" y="-206.16" font-family="Helvetica,sans-Serif" font-weight="bold" font-size="32.00" fill="#29235c">(!)</text>
<polygon fill="#e7e2dd" stroke="transparent" points="921.71,-124.96 921.71,-184.96 1401.71,-184.96 1401.71,-124.96 921.71,-124.96"/>
<polygon fill="none" stroke="#29235c" points="921.71,-124.96 921.71,-184.96 1401.71,-184.96 1401.71,-124.96 921.71,-124.96"/>
<text text-anchor="start" x="932.71" y="-145.16" font-family="Helvetica,sans-Serif" font-size="32.00" fill="#29235c">description &#160;&#160;&#160;</text>
<text text-anchor="start" x="1339.14" y="-146.16" font-family="Helvetica,sans-Serif" font-style="italic" font-size="32.00" fill="#29235c">text</text>
<polygon fill="#e7e2dd" stroke="transparent" points="921.71,-64.96 921.71,-124.96 1401.71,-124.96 1401.71,-64.96 921.71,-64.96"/>
<polygon fill="none" stroke="#29235c" points="921.71,-64.96 921.71,-124.96 1401.71,-124.96 1401.71,-64.96 921.71,-64.96"/>
<text text-anchor="start" x="932.71" y="-85.16" font-family="Helvetica,sans-Serif" font-size="32.00" fill="#29235c">column_definitions &#160;&#160;&#160;</text>
<text text-anchor="start" x="1300.05" y="-86.16" font-family="Helvetica,sans-Serif" font-style="italic" font-size="32.00" fill="#29235c">text</text>
<text text-anchor="start" x="1351.62" y="-86.16" font-family="Helvetica,sans-Serif" font-size="32.00" fill="#29235c"> </text>
<text text-anchor="start" x="1360.52" y="-86.16" font-family="Helvetica,sans-Serif" font-weight="bold" font-size="32.00" fill="#29235c">(!)</text>
<polygon fill="none" stroke="#29235c" stroke-width="2" points="920.71,-63.96 920.71,-365.96 1402.71,-365.96 1402.71,-63.96 920.71,-63.96"/>
</g>
<!-- scrapers_table -->
<g id="scrapers_table" class="node">
<title>scrapers_table</title>
<ellipse fill="none" stroke="black" stroke-width="0" cx="1161.71" cy="-704.96" rx="279.11" ry="257.27"/>
<polygon fill="#1d71b8" stroke="transparent" points="966.71,-824.96 966.71,-884.96 1357.71,-884.96 1357.71,-824.96 966.71,-824.96"/>
<polygon fill="none" stroke="#29235c" points="966.71,-824.96 966.71,-884.96 1357.71,-884.96 1357.71,-824.96 966.71,-824.96"/>
<text text-anchor="start" x="995.05" y="-846.16" font-family="Helvetica,sans-Serif" font-weight="bold" font-size="32.00" fill="#ffffff"> &#160;&#160;&#160;&#160;&#160;&#160;scrapers_table &#160;&#160;&#160;&#160;&#160;&#160;</text>
<polygon fill="#e7e2dd" stroke="transparent" points="966.71,-764.96 966.71,-824.96 1357.71,-824.96 1357.71,-764.96 966.71,-764.96"/>
<polygon fill="none" stroke="#29235c" points="966.71,-764.96 966.71,-824.96 1357.71,-824.96 1357.71,-764.96 966.71,-764.96"/>
<text text-anchor="start" x="977.71" y="-786.16" font-family="Helvetica,sans-Serif" font-weight="bold" font-size="32.00" fill="#29235c">id</text>
<text text-anchor="start" x="1002.6" y="-786.16" font-family="Helvetica,sans-Serif" font-size="32.00" fill="#29235c"> &#160;&#160;&#160;</text>
<text text-anchor="start" x="1209.82" y="-786.16" font-family="Helvetica,sans-Serif" font-style="italic" font-size="32.00" fill="#29235c">integer</text>
<text text-anchor="start" x="1307.62" y="-786.16" font-family="Helvetica,sans-Serif" font-size="32.00" fill="#29235c"> </text>
<text text-anchor="start" x="1316.52" y="-786.16" font-family="Helvetica,sans-Serif" font-weight="bold" font-size="32.00" fill="#29235c">(!)</text>
<polygon fill="#e7e2dd" stroke="transparent" points="966.71,-704.96 966.71,-764.96 1357.71,-764.96 1357.71,-704.96 966.71,-704.96"/>
<polygon fill="none" stroke="#29235c" points="966.71,-704.96 966.71,-764.96 1357.71,-764.96 1357.71,-704.96 966.71,-704.96"/>
<text text-anchor="start" x="977.71" y="-725.16" font-family="Helvetica,sans-Serif" font-size="32.00" fill="#29235c">name &#160;&#160;&#160;</text>
<text text-anchor="start" x="1256.05" y="-726.16" font-family="Helvetica,sans-Serif" font-style="italic" font-size="32.00" fill="#29235c">text</text>
<text text-anchor="start" x="1307.62" y="-726.16" font-family="Helvetica,sans-Serif" font-size="32.00" fill="#29235c"> </text>
<text text-anchor="start" x="1316.52" y="-726.16" font-family="Helvetica,sans-Serif" font-weight="bold" font-size="32.00" fill="#29235c">(!)</text>
<polygon fill="#e7e2dd" stroke="transparent" points="966.71,-644.96 966.71,-704.96 1357.71,-704.96 1357.71,-644.96 966.71,-644.96"/>
<polygon fill="none" stroke="#29235c" points="966.71,-644.96 966.71,-704.96 1357.71,-704.96 1357.71,-644.96 966.71,-644.96"/>
<text text-anchor="start" x="977.71" y="-665.16" font-family="Helvetica,sans-Serif" font-size="32.00" fill="#29235c">description &#160;&#160;&#160;</text>
<text text-anchor="start" x="1295.14" y="-666.16" font-family="Helvetica,sans-Serif" font-style="italic" font-size="32.00" fill="#29235c">text</text>
<polygon fill="#e7e2dd" stroke="transparent" points="966.71,-584.96 966.71,-644.96 1357.71,-644.96 1357.71,-584.96 966.71,-584.96"/>
<polygon fill="none" stroke="#29235c" points="966.71,-584.96 966.71,-644.96 1357.71,-644.96 1357.71,-584.96 966.71,-584.96"/>
<text text-anchor="start" x="977.71" y="-605.16" font-family="Helvetica,sans-Serif" font-size="32.00" fill="#29235c">instructions &#160;&#160;&#160;</text>
<text text-anchor="start" x="1256.05" y="-606.16" font-family="Helvetica,sans-Serif" font-style="italic" font-size="32.00" fill="#29235c">text</text>
<text text-anchor="start" x="1307.62" y="-606.16" font-family="Helvetica,sans-Serif" font-size="32.00" fill="#29235c"> </text>
<text text-anchor="start" x="1316.52" y="-606.16" font-family="Helvetica,sans-Serif" font-weight="bold" font-size="32.00" fill="#29235c">(!)</text>
<polygon fill="#e7e2dd" stroke="transparent" points="966.71,-524.96 966.71,-584.96 1357.71,-584.96 1357.71,-524.96 966.71,-524.96"/>
<polygon fill="none" stroke="#29235c" points="966.71,-524.96 966.71,-584.96 1357.71,-584.96 1357.71,-524.96 966.71,-524.96"/>
<text text-anchor="start" x="977.56" y="-545.16" font-family="Helvetica,sans-Serif" font-size="32.00" fill="#29235c">user_data_directory &#160;&#160;&#160;</text>
<text text-anchor="start" x="1295.43" y="-546.16" font-family="Helvetica,sans-Serif" font-style="italic" font-size="32.00" fill="#29235c">text</text>
<polygon fill="none" stroke="#29235c" stroke-width="2" points="965.21,-523.96 965.21,-885.96 1358.21,-885.96 1358.21,-523.96 965.21,-523.96"/>
</g>
<!-- scraper_data_sources_table -->
<g id="scraper_data_sources_table" class="node">
<title>scraper_data_sources_table</title>
<ellipse fill="none" stroke="black" stroke-width="0" cx="391.74" cy="-504.96" rx="391.97" ry="214.92"/>
<polygon fill="#1d71b8" stroke="transparent" points="116.74,-594.96 116.74,-654.96 666.74,-654.96 666.74,-594.96 116.74,-594.96"/>
<polygon fill="none" stroke="#29235c" points="116.74,-594.96 116.74,-654.96 666.74,-654.96 666.74,-594.96 116.74,-594.96"/>
<text text-anchor="start" x="127.65" y="-616.16" font-family="Helvetica,sans-Serif" font-weight="bold" font-size="32.00" fill="#ffffff"> &#160;&#160;&#160;&#160;&#160;&#160;scraper_data_sources_table &#160;&#160;&#160;&#160;&#160;&#160;</text>
<polygon fill="#e7e2dd" stroke="transparent" points="116.74,-534.96 116.74,-594.96 666.74,-594.96 666.74,-534.96 116.74,-534.96"/>
<polygon fill="none" stroke="#29235c" points="116.74,-534.96 116.74,-594.96 666.74,-594.96 666.74,-534.96 116.74,-534.96"/>
<text text-anchor="start" x="127.74" y="-556.16" font-family="Helvetica,sans-Serif" font-weight="bold" font-size="32.00" fill="#29235c">scraper_id</text>
<text text-anchor="start" x="277.09" y="-556.16" font-family="Helvetica,sans-Serif" font-size="32.00" fill="#29235c"> &#160;&#160;&#160;</text>
<text text-anchor="start" x="518.84" y="-556.16" font-family="Helvetica,sans-Serif" font-style="italic" font-size="32.00" fill="#29235c">integer</text>
<text text-anchor="start" x="616.65" y="-556.16" font-family="Helvetica,sans-Serif" font-size="32.00" fill="#29235c"> </text>
<text text-anchor="start" x="625.54" y="-556.16" font-family="Helvetica,sans-Serif" font-weight="bold" font-size="32.00" fill="#29235c">(!)</text>
<polygon fill="#e7e2dd" stroke="transparent" points="116.74,-474.96 116.74,-534.96 666.74,-534.96 666.74,-474.96 116.74,-474.96"/>
<polygon fill="none" stroke="#29235c" points="116.74,-474.96 116.74,-534.96 666.74,-534.96 666.74,-474.96 116.74,-474.96"/>
<text text-anchor="start" x="127.74" y="-496.16" font-family="Helvetica,sans-Serif" font-weight="bold" font-size="32.00" fill="#29235c">data_store_table_name</text>
<text text-anchor="start" x="463.87" y="-496.16" font-family="Helvetica,sans-Serif" font-size="32.00" fill="#29235c"> &#160;&#160;&#160;</text>
<text text-anchor="start" x="565.07" y="-496.16" font-family="Helvetica,sans-Serif" font-style="italic" font-size="32.00" fill="#29235c">text</text>
<text text-anchor="start" x="616.65" y="-496.16" font-family="Helvetica,sans-Serif" font-size="32.00" fill="#29235c"> </text>
<text text-anchor="start" x="625.54" y="-496.16" font-family="Helvetica,sans-Serif" font-weight="bold" font-size="32.00" fill="#29235c">(!)</text>
<polygon fill="#e7e2dd" stroke="transparent" points="116.74,-414.96 116.74,-474.96 666.74,-474.96 666.74,-414.96 116.74,-414.96"/>
<polygon fill="none" stroke="#29235c" points="116.74,-414.96 116.74,-474.96 666.74,-474.96 666.74,-414.96 116.74,-414.96"/>
<text text-anchor="start" x="127.74" y="-435.16" font-family="Helvetica,sans-Serif" font-size="32.00" fill="#29235c">source_alias &#160;&#160;&#160;</text>
<text text-anchor="start" x="565.07" y="-436.16" font-family="Helvetica,sans-Serif" font-style="italic" font-size="32.00" fill="#29235c">text</text>
<text text-anchor="start" x="616.65" y="-436.16" font-family="Helvetica,sans-Serif" font-size="32.00" fill="#29235c"> </text>
<text text-anchor="start" x="625.54" y="-436.16" font-family="Helvetica,sans-Serif" font-weight="bold" font-size="32.00" fill="#29235c">(!)</text>
<polygon fill="#e7e2dd" stroke="transparent" points="116.74,-354.96 116.74,-414.96 666.74,-414.96 666.74,-354.96 116.74,-354.96"/>
<polygon fill="none" stroke="#29235c" points="116.74,-354.96 116.74,-414.96 666.74,-414.96 666.74,-354.96 116.74,-354.96"/>
<text text-anchor="start" x="127.74" y="-375.16" font-family="Helvetica,sans-Serif" font-size="32.00" fill="#29235c">where_schema &#160;&#160;&#160;</text>
<text text-anchor="start" x="604.16" y="-376.16" font-family="Helvetica,sans-Serif" font-style="italic" font-size="32.00" fill="#29235c">text</text>
<polygon fill="none" stroke="#29235c" stroke-width="2" points="115.74,-353.96 115.74,-655.96 667.74,-655.96 667.74,-353.96 115.74,-353.96"/>
</g>
<!-- scraper_data_sources_table&#45;&gt;user_data_stores_table -->
<!-- scraper_data_sources_table&#45;&gt;user_data_stores_table -->
<g id="edge4" class="edge">
<title>scraper_data_sources_table:e&#45;&gt;user_data_stores_table:w</title>
<path fill="none" stroke="#29235c" stroke-width="3" d="M667.74,-504.96C816.13,-504.96 771.03,-285.62 910.36,-275.33"/>
<polygon fill="#29235c" stroke="#29235c" stroke-width="3" points="910.85,-278.82 920.71,-274.96 910.59,-271.82 910.85,-278.82"/>
<text text-anchor="middle" x="911.82" y="-284.56" font-family="Helvetica,sans-Serif" font-size="32.00" fill="#29235c">1</text>
<text text-anchor="middle" x="661.51" y="-514.56" font-family="Helvetica,sans-Serif" font-size="32.00" fill="#29235c">*</text>
</g>
<!-- scraper_data_sources_table&#45;&gt;scrapers_table -->
<!-- scraper_data_sources_table&#45;&gt;scrapers_table -->
<g id="edge2" class="edge">
<title>scraper_data_sources_table:e&#45;&gt;scrapers_table:w</title>
<path fill="none" stroke="#29235c" stroke-width="3" d="M667.74,-564.96C831.6,-564.96 799.83,-785.62 955.68,-794.67"/>
<polygon fill="#29235c" stroke="#29235c" stroke-width="3" points="955.62,-798.17 965.71,-794.96 955.82,-791.18 955.62,-798.17"/>
<text text-anchor="middle" x="956.82" y="-804.56" font-family="Helvetica,sans-Serif" font-size="32.00" fill="#29235c">1</text>
<text text-anchor="middle" x="661.51" y="-574.56" font-family="Helvetica,sans-Serif" font-size="32.00" fill="#29235c">*</text>
</g>
</g>
</svg>
