<?xml version="1.0" encoding="UTF-8" standalone="no"?>
<!DOCTYPE svg PUBLIC "-//W3C//DTD SVG 1.1//EN"
 "http://www.w3.org/Graphics/SVG/1.1/DTD/svg11.dtd">
<!-- Generated by graphviz version 2.47.0 (20210316.0004)
 -->
<!-- Title: dbml Pages: 1 -->
<svg width="3178pt" height="1501pt"
 viewBox="0.00 0.00 3177.77 1501.05" xmlns="http://www.w3.org/2000/svg" xmlns:xlink="http://www.w3.org/1999/xlink">
<g id="graph0" class="graph" transform="scale(1 1) rotate(0) translate(4 1497.05)">
<title>dbml</title>
<!-- preferences -->
<g id="preferences" class="node">
<title>preferences</title>
<ellipse fill="none" stroke="black" stroke-width="0" cx="395.27" cy="-372.09" rx="225.63" ry="130.22"/>
<polygon fill="#1d71b8" stroke="transparent" points="238.27,-402.09 238.27,-462.09 553.27,-462.09 553.27,-402.09 238.27,-402.09"/>
<polygon fill="none" stroke="#29235c" points="238.27,-402.09 238.27,-462.09 553.27,-462.09 553.27,-402.09 238.27,-402.09"/>
<text text-anchor="start" x="249.06" y="-423.29" font-family="Helvetica,sans-Serif" font-weight="bold" font-size="32.00" fill="#ffffff"> &#160;&#160;&#160;&#160;&#160;&#160;preferences &#160;&#160;&#160;&#160;&#160;&#160;</text>
<polygon fill="#e7e2dd" stroke="transparent" points="238.27,-342.09 238.27,-402.09 553.27,-402.09 553.27,-342.09 238.27,-342.09"/>
<polygon fill="none" stroke="#29235c" points="238.27,-342.09 238.27,-402.09 553.27,-402.09 553.27,-342.09 238.27,-342.09"/>
<text text-anchor="start" x="249.27" y="-363.29" font-family="Helvetica,sans-Serif" font-weight="bold" font-size="32.00" fill="#29235c">key</text>
<text text-anchor="start" x="299.06" y="-363.29" font-family="Helvetica,sans-Serif" font-size="32.00" fill="#29235c"> &#160;&#160;&#160;</text>
<text text-anchor="start" x="451.61" y="-363.29" font-family="Helvetica,sans-Serif" font-style="italic" font-size="32.00" fill="#29235c">text</text>
<text text-anchor="start" x="503.18" y="-363.29" font-family="Helvetica,sans-Serif" font-size="32.00" fill="#29235c"> </text>
<text text-anchor="start" x="512.07" y="-363.29" font-family="Helvetica,sans-Serif" font-weight="bold" font-size="32.00" fill="#29235c">(!)</text>
<polygon fill="#e7e2dd" stroke="transparent" points="238.27,-282.09 238.27,-342.09 553.27,-342.09 553.27,-282.09 238.27,-282.09"/>
<polygon fill="none" stroke="#29235c" points="238.27,-282.09 238.27,-342.09 553.27,-342.09 553.27,-282.09 238.27,-282.09"/>
<text text-anchor="start" x="249.27" y="-302.29" font-family="Helvetica,sans-Serif" font-size="32.00" fill="#29235c">value &#160;&#160;&#160;</text>
<text text-anchor="start" x="451.61" y="-303.29" font-family="Helvetica,sans-Serif" font-style="italic" font-size="32.00" fill="#29235c">text</text>
<text text-anchor="start" x="503.18" y="-303.29" font-family="Helvetica,sans-Serif" font-size="32.00" fill="#29235c"> </text>
<text text-anchor="start" x="512.07" y="-303.29" font-family="Helvetica,sans-Serif" font-weight="bold" font-size="32.00" fill="#29235c">(!)</text>
<polygon fill="none" stroke="#29235c" stroke-width="2" points="236.77,-281.09 236.77,-463.09 553.77,-463.09 553.77,-281.09 236.77,-281.09"/>
</g>
<!-- scraper_data_sources -->
<g id="scraper_data_sources" class="node">
<title>scraper_data_sources</title>
<ellipse fill="none" stroke="black" stroke-width="0" cx="2005.94" cy="-1278.09" rx="344.22" ry="214.92"/>
<polygon fill="#1d71b8" stroke="transparent" points="1764.94,-1368.09 1764.94,-1428.09 2247.94,-1428.09 2247.94,-1368.09 1764.94,-1368.09"/>
<polygon fill="none" stroke="#29235c" points="1764.94,-1368.09 1764.94,-1428.09 2247.94,-1428.09 2247.94,-1368.09 1764.94,-1368.09"/>
<text text-anchor="start" x="1785.92" y="-1389.29" font-family="Helvetica,sans-Serif" font-weight="bold" font-size="32.00" fill="#ffffff"> &#160;&#160;&#160;&#160;&#160;&#160;scraper_data_sources &#160;&#160;&#160;&#160;&#160;&#160;</text>
<polygon fill="#e7e2dd" stroke="transparent" points="1764.94,-1308.09 1764.94,-1368.09 2247.94,-1368.09 2247.94,-1308.09 1764.94,-1308.09"/>
<polygon fill="none" stroke="#29235c" points="1764.94,-1308.09 1764.94,-1368.09 2247.94,-1368.09 2247.94,-1308.09 1764.94,-1308.09"/>
<text text-anchor="start" x="1775.94" y="-1329.29" font-family="Helvetica,sans-Serif" font-weight="bold" font-size="32.00" fill="#29235c">scraper_id</text>
<text text-anchor="start" x="1925.29" y="-1329.29" font-family="Helvetica,sans-Serif" font-size="32.00" fill="#29235c"> &#160;&#160;&#160;</text>
<text text-anchor="start" x="2100.04" y="-1329.29" font-family="Helvetica,sans-Serif" font-style="italic" font-size="32.00" fill="#29235c">integer</text>
<text text-anchor="start" x="2197.85" y="-1329.29" font-family="Helvetica,sans-Serif" font-size="32.00" fill="#29235c"> </text>
<text text-anchor="start" x="2206.74" y="-1329.29" font-family="Helvetica,sans-Serif" font-weight="bold" font-size="32.00" fill="#29235c">(!)</text>
<polygon fill="#e7e2dd" stroke="transparent" points="1764.94,-1248.09 1764.94,-1308.09 2247.94,-1308.09 2247.94,-1248.09 1764.94,-1248.09"/>
<polygon fill="none" stroke="#29235c" points="1764.94,-1248.09 1764.94,-1308.09 2247.94,-1308.09 2247.94,-1248.09 1764.94,-1248.09"/>
<text text-anchor="start" x="1775.59" y="-1269.29" font-family="Helvetica,sans-Serif" font-weight="bold" font-size="32.00" fill="#29235c">data_store_table_name</text>
<text text-anchor="start" x="2111.72" y="-1269.29" font-family="Helvetica,sans-Serif" font-size="32.00" fill="#29235c"> &#160;&#160;&#160;</text>
<text text-anchor="start" x="2146.6" y="-1269.29" font-family="Helvetica,sans-Serif" font-style="italic" font-size="32.00" fill="#29235c">text</text>
<text text-anchor="start" x="2198.18" y="-1269.29" font-family="Helvetica,sans-Serif" font-size="32.00" fill="#29235c"> </text>
<text text-anchor="start" x="2207.07" y="-1269.29" font-family="Helvetica,sans-Serif" font-weight="bold" font-size="32.00" fill="#29235c">(!)</text>
<polygon fill="#e7e2dd" stroke="transparent" points="1764.94,-1188.09 1764.94,-1248.09 2247.94,-1248.09 2247.94,-1188.09 1764.94,-1188.09"/>
<polygon fill="none" stroke="#29235c" points="1764.94,-1188.09 1764.94,-1248.09 2247.94,-1248.09 2247.94,-1188.09 1764.94,-1188.09"/>
<text text-anchor="start" x="1775.94" y="-1208.29" font-family="Helvetica,sans-Serif" font-size="32.00" fill="#29235c">source_alias &#160;&#160;&#160;</text>
<text text-anchor="start" x="2146.27" y="-1209.29" font-family="Helvetica,sans-Serif" font-style="italic" font-size="32.00" fill="#29235c">text</text>
<text text-anchor="start" x="2197.85" y="-1209.29" font-family="Helvetica,sans-Serif" font-size="32.00" fill="#29235c"> </text>
<text text-anchor="start" x="2206.74" y="-1209.29" font-family="Helvetica,sans-Serif" font-weight="bold" font-size="32.00" fill="#29235c">(!)</text>
<polygon fill="#e7e2dd" stroke="transparent" points="1764.94,-1128.09 1764.94,-1188.09 2247.94,-1188.09 2247.94,-1128.09 1764.94,-1128.09"/>
<polygon fill="none" stroke="#29235c" points="1764.94,-1128.09 1764.94,-1188.09 2247.94,-1188.09 2247.94,-1128.09 1764.94,-1128.09"/>
<text text-anchor="start" x="1775.94" y="-1148.29" font-family="Helvetica,sans-Serif" font-size="32.00" fill="#29235c">where_schema &#160;&#160;&#160;</text>
<text text-anchor="start" x="2185.36" y="-1149.29" font-family="Helvetica,sans-Serif" font-style="italic" font-size="32.00" fill="#29235c">text</text>
<polygon fill="none" stroke="#29235c" stroke-width="2" points="1763.44,-1127.09 1763.44,-1429.09 2248.44,-1429.09 2248.44,-1127.09 1763.44,-1127.09"/>
</g>
<!-- scrapers -->
<g id="scrapers" class="node">
<title>scrapers</title>
<ellipse fill="none" stroke="black" stroke-width="0" cx="2875.62" cy="-703.09" rx="279.11" ry="342.48"/>
<polygon fill="#1d71b8" stroke="transparent" points="2680.62,-883.09 2680.62,-943.09 3071.62,-943.09 3071.62,-883.09 2680.62,-883.09"/>
<polygon fill="none" stroke="#29235c" points="2680.62,-883.09 2680.62,-943.09 3071.62,-943.09 3071.62,-883.09 2680.62,-883.09"/>
<text text-anchor="start" x="2752.53" y="-904.29" font-family="Helvetica,sans-Serif" font-weight="bold" font-size="32.00" fill="#ffffff"> &#160;&#160;&#160;&#160;&#160;&#160;scrapers &#160;&#160;&#160;&#160;&#160;&#160;</text>
<polygon fill="#e7e2dd" stroke="transparent" points="2680.62,-823.09 2680.62,-883.09 3071.62,-883.09 3071.62,-823.09 2680.62,-823.09"/>
<polygon fill="none" stroke="#29235c" points="2680.62,-823.09 2680.62,-883.09 3071.62,-883.09 3071.62,-823.09 2680.62,-823.09"/>
<text text-anchor="start" x="2691.62" y="-844.29" font-family="Helvetica,sans-Serif" font-weight="bold" font-size="32.00" fill="#29235c">id</text>
<text text-anchor="start" x="2716.51" y="-844.29" font-family="Helvetica,sans-Serif" font-size="32.00" fill="#29235c"> &#160;&#160;&#160;</text>
<text text-anchor="start" x="2923.72" y="-844.29" font-family="Helvetica,sans-Serif" font-style="italic" font-size="32.00" fill="#29235c">integer</text>
<text text-anchor="start" x="3021.52" y="-844.29" font-family="Helvetica,sans-Serif" font-size="32.00" fill="#29235c"> </text>
<text text-anchor="start" x="3030.42" y="-844.29" font-family="Helvetica,sans-Serif" font-weight="bold" font-size="32.00" fill="#29235c">(!)</text>
<polygon fill="#e7e2dd" stroke="transparent" points="2680.62,-763.09 2680.62,-823.09 3071.62,-823.09 3071.62,-763.09 2680.62,-763.09"/>
<polygon fill="none" stroke="#29235c" points="2680.62,-763.09 2680.62,-823.09 3071.62,-823.09 3071.62,-763.09 2680.62,-763.09"/>
<text text-anchor="start" x="2691.62" y="-783.29" font-family="Helvetica,sans-Serif" font-size="32.00" fill="#29235c">name &#160;&#160;&#160;</text>
<text text-anchor="start" x="2969.95" y="-784.29" font-family="Helvetica,sans-Serif" font-style="italic" font-size="32.00" fill="#29235c">text</text>
<text text-anchor="start" x="3021.52" y="-784.29" font-family="Helvetica,sans-Serif" font-size="32.00" fill="#29235c"> </text>
<text text-anchor="start" x="3030.42" y="-784.29" font-family="Helvetica,sans-Serif" font-weight="bold" font-size="32.00" fill="#29235c">(!)</text>
<polygon fill="#e7e2dd" stroke="transparent" points="2680.62,-703.09 2680.62,-763.09 3071.62,-763.09 3071.62,-703.09 2680.62,-703.09"/>
<polygon fill="none" stroke="#29235c" points="2680.62,-703.09 2680.62,-763.09 3071.62,-763.09 3071.62,-703.09 2680.62,-703.09"/>
<text text-anchor="start" x="2691.62" y="-723.29" font-family="Helvetica,sans-Serif" font-size="32.00" fill="#29235c">description &#160;&#160;&#160;</text>
<text text-anchor="start" x="3009.04" y="-724.29" font-family="Helvetica,sans-Serif" font-style="italic" font-size="32.00" fill="#29235c">text</text>
<polygon fill="#e7e2dd" stroke="transparent" points="2680.62,-643.09 2680.62,-703.09 3071.62,-703.09 3071.62,-643.09 2680.62,-643.09"/>
<polygon fill="none" stroke="#29235c" points="2680.62,-643.09 2680.62,-703.09 3071.62,-703.09 3071.62,-643.09 2680.62,-643.09"/>
<text text-anchor="start" x="2691.62" y="-663.29" font-family="Helvetica,sans-Serif" font-size="32.00" fill="#29235c">instructions &#160;&#160;&#160;</text>
<text text-anchor="start" x="2969.95" y="-664.29" font-family="Helvetica,sans-Serif" font-style="italic" font-size="32.00" fill="#29235c">text</text>
<text text-anchor="start" x="3021.52" y="-664.29" font-family="Helvetica,sans-Serif" font-size="32.00" fill="#29235c"> </text>
<text text-anchor="start" x="3030.42" y="-664.29" font-family="Helvetica,sans-Serif" font-weight="bold" font-size="32.00" fill="#29235c">(!)</text>
<polygon fill="#e7e2dd" stroke="transparent" points="2680.62,-583.09 2680.62,-643.09 3071.62,-643.09 3071.62,-583.09 2680.62,-583.09"/>
<polygon fill="none" stroke="#29235c" points="2680.62,-583.09 2680.62,-643.09 3071.62,-643.09 3071.62,-583.09 2680.62,-583.09"/>
<text text-anchor="start" x="2691.46" y="-603.29" font-family="Helvetica,sans-Serif" font-size="32.00" fill="#29235c">user_data_directory &#160;&#160;&#160;</text>
<text text-anchor="start" x="3009.33" y="-604.29" font-family="Helvetica,sans-Serif" font-style="italic" font-size="32.00" fill="#29235c">text</text>
<polygon fill="#e7e2dd" stroke="transparent" points="2680.62,-523.09 2680.62,-583.09 3071.62,-583.09 3071.62,-523.09 2680.62,-523.09"/>
<polygon fill="none" stroke="#29235c" points="2680.62,-523.09 2680.62,-583.09 3071.62,-583.09 3071.62,-523.09 2680.62,-523.09"/>
<text text-anchor="start" x="2691.62" y="-543.29" font-family="Helvetica,sans-Serif" font-size="32.00" fill="#29235c">created_at &#160;&#160;&#160;</text>
<text text-anchor="start" x="2923.72" y="-544.29" font-family="Helvetica,sans-Serif" font-style="italic" font-size="32.00" fill="#29235c">integer</text>
<text text-anchor="start" x="3021.52" y="-544.29" font-family="Helvetica,sans-Serif" font-size="32.00" fill="#29235c"> </text>
<text text-anchor="start" x="3030.42" y="-544.29" font-family="Helvetica,sans-Serif" font-weight="bold" font-size="32.00" fill="#29235c">(!)</text>
<polygon fill="#e7e2dd" stroke="transparent" points="2680.62,-463.09 2680.62,-523.09 3071.62,-523.09 3071.62,-463.09 2680.62,-463.09"/>
<polygon fill="none" stroke="#29235c" points="2680.62,-463.09 2680.62,-523.09 3071.62,-523.09 3071.62,-463.09 2680.62,-463.09"/>
<text text-anchor="start" x="2691.62" y="-483.29" font-family="Helvetica,sans-Serif" font-size="32.00" fill="#29235c">updated_at &#160;&#160;&#160;</text>
<text text-anchor="start" x="2923.72" y="-484.29" font-family="Helvetica,sans-Serif" font-style="italic" font-size="32.00" fill="#29235c">integer</text>
<text text-anchor="start" x="3021.52" y="-484.29" font-family="Helvetica,sans-Serif" font-size="32.00" fill="#29235c"> </text>
<text text-anchor="start" x="3030.42" y="-484.29" font-family="Helvetica,sans-Serif" font-weight="bold" font-size="32.00" fill="#29235c">(!)</text>
<polygon fill="none" stroke="#29235c" stroke-width="2" points="2679.12,-462.09 2679.12,-944.09 3072.12,-944.09 3072.12,-462.09 2679.12,-462.09"/>
</g>
<!-- scraper_data_sources&#45;&gt;scrapers -->
<!-- scraper_data_sources&#45;&gt;scrapers -->
<g id="edge2" class="edge">
<title>scraper_data_sources:e&#45;&gt;scrapers:w</title>
<path fill="none" stroke="#29235c" stroke-width="3" d="M2248.94,-1338.09C2432.96,-1338.09 2427.01,-1189.93 2545.46,-1049.09 2611.15,-970.98 2576.55,-860.7 2669.57,-853.46"/>
<polygon fill="#29235c" stroke="#29235c" stroke-width="3" points="2669.75,-856.96 2679.62,-853.09 2669.49,-849.96 2669.75,-856.96"/>
<text text-anchor="middle" x="2670.72" y="-862.69" font-family="Helvetica,sans-Serif" font-size="32.00" fill="#29235c">1</text>
<text text-anchor="middle" x="2255.16" y="-1347.69" font-family="Helvetica,sans-Serif" font-size="32.00" fill="#29235c">*</text>
</g>
<!-- user_data_stores -->
<g id="user_data_stores" class="node">
<title>user_data_stores</title>
<ellipse fill="none" stroke="black" stroke-width="0" cx="2875.62" cy="-1278.09" rx="294.31" ry="214.92"/>
<polygon fill="#1d71b8" stroke="transparent" points="2669.62,-1368.09 2669.62,-1428.09 3081.62,-1428.09 3081.62,-1368.09 2669.62,-1368.09"/>
<polygon fill="none" stroke="#29235c" points="2669.62,-1368.09 2669.62,-1428.09 3081.62,-1428.09 3081.62,-1368.09 2669.62,-1368.09"/>
<text text-anchor="start" x="2689.77" y="-1389.29" font-family="Helvetica,sans-Serif" font-weight="bold" font-size="32.00" fill="#ffffff"> &#160;&#160;&#160;&#160;&#160;&#160;user_data_stores &#160;&#160;&#160;&#160;&#160;&#160;</text>
<polygon fill="#e7e2dd" stroke="transparent" points="2669.62,-1308.09 2669.62,-1368.09 3081.62,-1368.09 3081.62,-1308.09 2669.62,-1308.09"/>
<polygon fill="none" stroke="#29235c" points="2669.62,-1308.09 2669.62,-1368.09 3081.62,-1368.09 3081.62,-1308.09 2669.62,-1308.09"/>
<text text-anchor="start" x="2680.62" y="-1329.29" font-family="Helvetica,sans-Serif" font-weight="bold" font-size="32.00" fill="#29235c">table_name</text>
<text text-anchor="start" x="2847.78" y="-1329.29" font-family="Helvetica,sans-Serif" font-size="32.00" fill="#29235c"> &#160;&#160;&#160;</text>
<text text-anchor="start" x="2979.95" y="-1329.29" font-family="Helvetica,sans-Serif" font-style="italic" font-size="32.00" fill="#29235c">text</text>
<text text-anchor="start" x="3031.52" y="-1329.29" font-family="Helvetica,sans-Serif" font-size="32.00" fill="#29235c"> </text>
<text text-anchor="start" x="3040.42" y="-1329.29" font-family="Helvetica,sans-Serif" font-weight="bold" font-size="32.00" fill="#29235c">(!)</text>
<polygon fill="#e7e2dd" stroke="transparent" points="2669.62,-1248.09 2669.62,-1308.09 3081.62,-1308.09 3081.62,-1248.09 2669.62,-1248.09"/>
<polygon fill="none" stroke="#29235c" points="2669.62,-1248.09 2669.62,-1308.09 3081.62,-1308.09 3081.62,-1248.09 2669.62,-1248.09"/>
<text text-anchor="start" x="2680.62" y="-1268.29" font-family="Helvetica,sans-Serif" font-size="32.00" fill="#29235c">name &#160;&#160;&#160;</text>
<text text-anchor="start" x="2979.95" y="-1269.29" font-family="Helvetica,sans-Serif" font-style="italic" font-size="32.00" fill="#29235c">text</text>
<text text-anchor="start" x="3031.52" y="-1269.29" font-family="Helvetica,sans-Serif" font-size="32.00" fill="#29235c"> </text>
<text text-anchor="start" x="3040.42" y="-1269.29" font-family="Helvetica,sans-Serif" font-weight="bold" font-size="32.00" fill="#29235c">(!)</text>
<polygon fill="#e7e2dd" stroke="transparent" points="2669.62,-1188.09 2669.62,-1248.09 3081.62,-1248.09 3081.62,-1188.09 2669.62,-1188.09"/>
<polygon fill="none" stroke="#29235c" points="2669.62,-1188.09 2669.62,-1248.09 3081.62,-1248.09 3081.62,-1188.09 2669.62,-1188.09"/>
<text text-anchor="start" x="2680.62" y="-1208.29" font-family="Helvetica,sans-Serif" font-size="32.00" fill="#29235c">description &#160;&#160;&#160;</text>
<text text-anchor="start" x="3019.04" y="-1209.29" font-family="Helvetica,sans-Serif" font-style="italic" font-size="32.00" fill="#29235c">text</text>
<polygon fill="#e7e2dd" stroke="transparent" points="2669.62,-1128.09 2669.62,-1188.09 3081.62,-1188.09 3081.62,-1128.09 2669.62,-1128.09"/>
<polygon fill="none" stroke="#29235c" points="2669.62,-1128.09 2669.62,-1188.09 3081.62,-1188.09 3081.62,-1128.09 2669.62,-1128.09"/>
<text text-anchor="start" x="2680.36" y="-1148.29" font-family="Helvetica,sans-Serif" font-size="32.00" fill="#29235c">column_definitions &#160;&#160;&#160;</text>
<text text-anchor="start" x="2980.28" y="-1149.29" font-family="Helvetica,sans-Serif" font-style="italic" font-size="32.00" fill="#29235c">text</text>
<text text-anchor="start" x="3031.86" y="-1149.29" font-family="Helvetica,sans-Serif" font-size="32.00" fill="#29235c"> </text>
<text text-anchor="start" x="3040.75" y="-1149.29" font-family="Helvetica,sans-Serif" font-weight="bold" font-size="32.00" fill="#29235c">(!)</text>
<polygon fill="none" stroke="#29235c" stroke-width="2" points="2668.62,-1127.09 2668.62,-1429.09 3082.62,-1429.09 3082.62,-1127.09 2668.62,-1127.09"/>
</g>
<!-- scraper_data_sources&#45;&gt;user_data_stores -->
<!-- scraper_data_sources&#45;&gt;user_data_stores -->
<g id="edge4" class="edge">
<title>scraper_data_sources:e&#45;&gt;user_data_stores:w</title>
<path fill="none" stroke="#29235c" stroke-width="3" d="M2248.94,-1278.09C2433.95,-1278.09 2478.6,-1335.94 2658.54,-1338.03"/>
<polygon fill="#29235c" stroke="#29235c" stroke-width="3" points="2658.6,-1341.53 2668.62,-1338.09 2658.64,-1334.53 2658.6,-1341.53"/>
<text text-anchor="middle" x="2659.72" y="-1347.69" font-family="Helvetica,sans-Serif" font-size="32.00" fill="#29235c">1</text>
<text text-anchor="middle" x="2255.16" y="-1287.69" font-family="Helvetica,sans-Serif" font-size="32.00" fill="#29235c">*</text>
</g>
<!-- scraper_execution_iterations -->
<g id="scraper_execution_iterations" class="node">
<title>scraper_execution_iterations</title>
<ellipse fill="none" stroke="black" stroke-width="0" cx="395.27" cy="-777.09" rx="395.05" ry="257.27"/>
<polygon fill="#1d71b8" stroke="transparent" points="118.27,-897.09 118.27,-957.09 673.27,-957.09 673.27,-897.09 118.27,-897.09"/>
<polygon fill="none" stroke="#29235c" points="118.27,-897.09 118.27,-957.09 673.27,-957.09 673.27,-897.09 118.27,-897.09"/>
<text text-anchor="start" x="129.03" y="-918.29" font-family="Helvetica,sans-Serif" font-weight="bold" font-size="32.00" fill="#ffffff"> &#160;&#160;&#160;&#160;&#160;&#160;scraper_execution_iterations &#160;&#160;&#160;&#160;&#160;&#160;</text>
<polygon fill="#e7e2dd" stroke="transparent" points="118.27,-837.09 118.27,-897.09 673.27,-897.09 673.27,-837.09 118.27,-837.09"/>
<polygon fill="none" stroke="#29235c" points="118.27,-837.09 118.27,-897.09 673.27,-897.09 673.27,-837.09 118.27,-837.09"/>
<text text-anchor="start" x="129.27" y="-858.29" font-family="Helvetica,sans-Serif" font-weight="bold" font-size="32.00" fill="#29235c">iteration</text>
<text text-anchor="start" x="243.07" y="-858.29" font-family="Helvetica,sans-Serif" font-size="32.00" fill="#29235c"> &#160;&#160;&#160;</text>
<text text-anchor="start" x="525.38" y="-858.29" font-family="Helvetica,sans-Serif" font-style="italic" font-size="32.00" fill="#29235c">integer</text>
<text text-anchor="start" x="623.18" y="-858.29" font-family="Helvetica,sans-Serif" font-size="32.00" fill="#29235c"> </text>
<text text-anchor="start" x="632.07" y="-858.29" font-family="Helvetica,sans-Serif" font-weight="bold" font-size="32.00" fill="#29235c">(!)</text>
<polygon fill="#e7e2dd" stroke="transparent" points="118.27,-777.09 118.27,-837.09 673.27,-837.09 673.27,-777.09 118.27,-777.09"/>
<polygon fill="none" stroke="#29235c" points="118.27,-777.09 118.27,-837.09 673.27,-837.09 673.27,-777.09 118.27,-777.09"/>
<text text-anchor="start" x="129.27" y="-798.29" font-family="Helvetica,sans-Serif" font-weight="bold" font-size="32.00" fill="#29235c">execution_id</text>
<text text-anchor="start" x="308.89" y="-798.29" font-family="Helvetica,sans-Serif" font-size="32.00" fill="#29235c"> &#160;&#160;&#160;</text>
<text text-anchor="start" x="525.38" y="-798.29" font-family="Helvetica,sans-Serif" font-style="italic" font-size="32.00" fill="#29235c">integer</text>
<text text-anchor="start" x="623.18" y="-798.29" font-family="Helvetica,sans-Serif" font-size="32.00" fill="#29235c"> </text>
<text text-anchor="start" x="632.07" y="-798.29" font-family="Helvetica,sans-Serif" font-weight="bold" font-size="32.00" fill="#29235c">(!)</text>
<polygon fill="#e7e2dd" stroke="transparent" points="118.27,-717.09 118.27,-777.09 673.27,-777.09 673.27,-717.09 118.27,-717.09"/>
<polygon fill="none" stroke="#29235c" points="118.27,-717.09 118.27,-777.09 673.27,-777.09 673.27,-717.09 118.27,-717.09"/>
<text text-anchor="start" x="129.27" y="-737.29" font-family="Helvetica,sans-Serif" font-size="32.00" fill="#29235c">execution_info &#160;&#160;&#160;</text>
<text text-anchor="start" x="571.61" y="-738.29" font-family="Helvetica,sans-Serif" font-style="italic" font-size="32.00" fill="#29235c">text</text>
<text text-anchor="start" x="623.18" y="-738.29" font-family="Helvetica,sans-Serif" font-size="32.00" fill="#29235c"> </text>
<text text-anchor="start" x="632.07" y="-738.29" font-family="Helvetica,sans-Serif" font-weight="bold" font-size="32.00" fill="#29235c">(!)</text>
<polygon fill="#e7e2dd" stroke="transparent" points="118.27,-657.09 118.27,-717.09 673.27,-717.09 673.27,-657.09 118.27,-657.09"/>
<polygon fill="none" stroke="#29235c" points="118.27,-657.09 118.27,-717.09 673.27,-717.09 673.27,-657.09 118.27,-657.09"/>
<text text-anchor="start" x="129.27" y="-677.29" font-family="Helvetica,sans-Serif" font-size="32.00" fill="#29235c">success &#160;&#160;&#160;</text>
<text text-anchor="start" x="525.38" y="-678.29" font-family="Helvetica,sans-Serif" font-style="italic" font-size="32.00" fill="#29235c">integer</text>
<text text-anchor="start" x="623.18" y="-678.29" font-family="Helvetica,sans-Serif" font-size="32.00" fill="#29235c"> </text>
<text text-anchor="start" x="632.07" y="-678.29" font-family="Helvetica,sans-Serif" font-weight="bold" font-size="32.00" fill="#29235c">(!)</text>
<polygon fill="#e7e2dd" stroke="transparent" points="118.27,-597.09 118.27,-657.09 673.27,-657.09 673.27,-597.09 118.27,-597.09"/>
<polygon fill="none" stroke="#29235c" points="118.27,-597.09 118.27,-657.09 673.27,-657.09 673.27,-597.09 118.27,-597.09"/>
<text text-anchor="start" x="129.27" y="-617.29" font-family="Helvetica,sans-Serif" font-size="32.00" fill="#29235c">finished_at &#160;&#160;&#160;</text>
<text text-anchor="start" x="525.38" y="-618.29" font-family="Helvetica,sans-Serif" font-style="italic" font-size="32.00" fill="#29235c">integer</text>
<text text-anchor="start" x="623.18" y="-618.29" font-family="Helvetica,sans-Serif" font-size="32.00" fill="#29235c"> </text>
<text text-anchor="start" x="632.07" y="-618.29" font-family="Helvetica,sans-Serif" font-weight="bold" font-size="32.00" fill="#29235c">(!)</text>
<polygon fill="none" stroke="#29235c" stroke-width="2" points="116.77,-596.09 116.77,-958.09 673.77,-958.09 673.77,-596.09 116.77,-596.09"/>
</g>
<!-- scraper_executions -->
<g id="scraper_executions" class="node">
<title>scraper_executions</title>
<ellipse fill="none" stroke="black" stroke-width="0" cx="1128.48" cy="-777.09" rx="301.87" ry="257.27"/>
<polygon fill="#1d71b8" stroke="transparent" points="917.48,-897.09 917.48,-957.09 1340.48,-957.09 1340.48,-897.09 917.48,-897.09"/>
<polygon fill="none" stroke="#29235c" points="917.48,-897.09 917.48,-957.09 1340.48,-957.09 1340.48,-897.09 917.48,-897.09"/>
<text text-anchor="start" x="928.03" y="-918.29" font-family="Helvetica,sans-Serif" font-weight="bold" font-size="32.00" fill="#ffffff"> &#160;&#160;&#160;&#160;&#160;&#160;scraper_executions &#160;&#160;&#160;&#160;&#160;&#160;</text>
<polygon fill="#e7e2dd" stroke="transparent" points="917.48,-837.09 917.48,-897.09 1340.48,-897.09 1340.48,-837.09 917.48,-837.09"/>
<polygon fill="none" stroke="#29235c" points="917.48,-837.09 917.48,-897.09 1340.48,-897.09 1340.48,-837.09 917.48,-837.09"/>
<text text-anchor="start" x="928.48" y="-858.29" font-family="Helvetica,sans-Serif" font-weight="bold" font-size="32.00" fill="#29235c">id</text>
<text text-anchor="start" x="953.37" y="-858.29" font-family="Helvetica,sans-Serif" font-size="32.00" fill="#29235c"> &#160;&#160;&#160;</text>
<text text-anchor="start" x="1192.59" y="-858.29" font-family="Helvetica,sans-Serif" font-style="italic" font-size="32.00" fill="#29235c">integer</text>
<text text-anchor="start" x="1290.39" y="-858.29" font-family="Helvetica,sans-Serif" font-size="32.00" fill="#29235c"> </text>
<text text-anchor="start" x="1299.28" y="-858.29" font-family="Helvetica,sans-Serif" font-weight="bold" font-size="32.00" fill="#29235c">(!)</text>
<polygon fill="#e7e2dd" stroke="transparent" points="917.48,-777.09 917.48,-837.09 1340.48,-837.09 1340.48,-777.09 917.48,-777.09"/>
<polygon fill="none" stroke="#29235c" points="917.48,-777.09 917.48,-837.09 1340.48,-837.09 1340.48,-777.09 917.48,-777.09"/>
<text text-anchor="start" x="928.48" y="-797.29" font-family="Helvetica,sans-Serif" font-size="32.00" fill="#29235c">scraper_id &#160;&#160;&#160;</text>
<text text-anchor="start" x="1192.59" y="-798.29" font-family="Helvetica,sans-Serif" font-style="italic" font-size="32.00" fill="#29235c">integer</text>
<text text-anchor="start" x="1290.39" y="-798.29" font-family="Helvetica,sans-Serif" font-size="32.00" fill="#29235c"> </text>
<text text-anchor="start" x="1299.28" y="-798.29" font-family="Helvetica,sans-Serif" font-weight="bold" font-size="32.00" fill="#29235c">(!)</text>
<polygon fill="#e7e2dd" stroke="transparent" points="917.48,-717.09 917.48,-777.09 1340.48,-777.09 1340.48,-717.09 917.48,-717.09"/>
<polygon fill="none" stroke="#29235c" points="917.48,-717.09 917.48,-777.09 1340.48,-777.09 1340.48,-717.09 917.48,-717.09"/>
<text text-anchor="start" x="928.48" y="-737.29" font-family="Helvetica,sans-Serif" font-size="32.00" fill="#29235c">iterator &#160;&#160;&#160;</text>
<text text-anchor="start" x="1277.91" y="-738.29" font-family="Helvetica,sans-Serif" font-style="italic" font-size="32.00" fill="#29235c">text</text>
<polygon fill="#e7e2dd" stroke="transparent" points="917.48,-657.09 917.48,-717.09 1340.48,-717.09 1340.48,-657.09 917.48,-657.09"/>
<polygon fill="none" stroke="#29235c" points="917.48,-657.09 917.48,-717.09 1340.48,-717.09 1340.48,-657.09 917.48,-657.09"/>
<text text-anchor="start" x="928.48" y="-677.29" font-family="Helvetica,sans-Serif" font-size="32.00" fill="#29235c">routine_id &#160;&#160;&#160;</text>
<text text-anchor="start" x="1231.68" y="-678.29" font-family="Helvetica,sans-Serif" font-style="italic" font-size="32.00" fill="#29235c">integer</text>
<polygon fill="#e7e2dd" stroke="transparent" points="917.48,-597.09 917.48,-657.09 1340.48,-657.09 1340.48,-597.09 917.48,-597.09"/>
<polygon fill="none" stroke="#29235c" points="917.48,-597.09 917.48,-657.09 1340.48,-657.09 1340.48,-597.09 917.48,-597.09"/>
<text text-anchor="start" x="928.48" y="-617.29" font-family="Helvetica,sans-Serif" font-size="32.00" fill="#29235c">created_at &#160;&#160;&#160;</text>
<text text-anchor="start" x="1192.59" y="-618.29" font-family="Helvetica,sans-Serif" font-style="italic" font-size="32.00" fill="#29235c">integer</text>
<text text-anchor="start" x="1290.39" y="-618.29" font-family="Helvetica,sans-Serif" font-size="32.00" fill="#29235c"> </text>
<text text-anchor="start" x="1299.28" y="-618.29" font-family="Helvetica,sans-Serif" font-weight="bold" font-size="32.00" fill="#29235c">(!)</text>
<polygon fill="none" stroke="#29235c" stroke-width="2" points="915.98,-596.09 915.98,-958.09 1340.98,-958.09 1340.98,-596.09 915.98,-596.09"/>
</g>
<!-- scraper_execution_iterations&#45;&gt;scraper_executions -->
<!-- scraper_execution_iterations&#45;&gt;scraper_executions -->
<g id="edge6" class="edge">
<title>scraper_execution_iterations:e&#45;&gt;scraper_executions:w</title>
<path fill="none" stroke="#29235c" stroke-width="3" d="M674.27,-807.09C781.71,-807.09 804.21,-863.4 906.34,-866.92"/>
<polygon fill="#29235c" stroke="#29235c" stroke-width="3" points="906.42,-870.42 916.48,-867.09 906.54,-863.42 906.42,-870.42"/>
<text text-anchor="middle" x="907.59" y="-876.69" font-family="Helvetica,sans-Serif" font-size="32.00" fill="#29235c">1</text>
<text text-anchor="middle" x="668.05" y="-816.69" font-family="Helvetica,sans-Serif" font-size="32.00" fill="#29235c">*</text>
</g>
<!-- scraper_executions&#45;&gt;scrapers -->
<!-- scraper_executions&#45;&gt;scrapers -->
<g id="edge8" class="edge">
<title>scraper_executions:e&#45;&gt;scrapers:w</title>
<path fill="none" stroke="#29235c" stroke-width="3" d="M1341.48,-807.09C1510.22,-807.09 1337.65,-167.15 1466.41,-58.09 1557.9,19.4 2453.9,19.32 2545.46,-58.09 2679.61,-171.5 2507.43,-826.77 2669.53,-852.32"/>
<polygon fill="#29235c" stroke="#29235c" stroke-width="3" points="2669.38,-855.82 2679.62,-853.09 2669.91,-848.84 2669.38,-855.82"/>
<text text-anchor="middle" x="2670.72" y="-824.29" font-family="Helvetica,sans-Serif" font-size="32.00" fill="#29235c">1</text>
<text text-anchor="middle" x="1335.26" y="-816.69" font-family="Helvetica,sans-Serif" font-size="32.00" fill="#29235c">*</text>
</g>
<!-- routines -->
<g id="routines" class="node">
<title>routines</title>
<ellipse fill="none" stroke="black" stroke-width="0" cx="2005.94" cy="-537.09" rx="539.54" ry="469.54"/>
<polygon fill="#1d71b8" stroke="transparent" points="1626.94,-807.09 1626.94,-867.09 2385.94,-867.09 2385.94,-807.09 1626.94,-807.09"/>
<polygon fill="none" stroke="#29235c" points="1626.94,-807.09 1626.94,-867.09 2385.94,-867.09 2385.94,-807.09 1626.94,-807.09"/>
<text text-anchor="start" x="1887.29" y="-828.29" font-family="Helvetica,sans-Serif" font-weight="bold" font-size="32.00" fill="#ffffff"> &#160;&#160;&#160;&#160;&#160;&#160;routines &#160;&#160;&#160;&#160;&#160;&#160;</text>
<polygon fill="#e7e2dd" stroke="transparent" points="1626.94,-747.09 1626.94,-807.09 2385.94,-807.09 2385.94,-747.09 1626.94,-747.09"/>
<polygon fill="none" stroke="#29235c" points="1626.94,-747.09 1626.94,-807.09 2385.94,-807.09 2385.94,-747.09 1626.94,-747.09"/>
<text text-anchor="start" x="1637.94" y="-768.29" font-family="Helvetica,sans-Serif" font-weight="bold" font-size="32.00" fill="#29235c">id</text>
<text text-anchor="start" x="1662.83" y="-768.29" font-family="Helvetica,sans-Serif" font-size="32.00" fill="#29235c"> &#160;&#160;&#160;</text>
<text text-anchor="start" x="2238.04" y="-768.29" font-family="Helvetica,sans-Serif" font-style="italic" font-size="32.00" fill="#29235c">integer</text>
<text text-anchor="start" x="2335.85" y="-768.29" font-family="Helvetica,sans-Serif" font-size="32.00" fill="#29235c"> </text>
<text text-anchor="start" x="2344.74" y="-768.29" font-family="Helvetica,sans-Serif" font-weight="bold" font-size="32.00" fill="#29235c">(!)</text>
<polygon fill="#e7e2dd" stroke="transparent" points="1626.94,-687.09 1626.94,-747.09 2385.94,-747.09 2385.94,-687.09 1626.94,-687.09"/>
<polygon fill="none" stroke="#29235c" points="1626.94,-687.09 1626.94,-747.09 2385.94,-747.09 2385.94,-687.09 1626.94,-687.09"/>
<text text-anchor="start" x="1637.94" y="-707.29" font-family="Helvetica,sans-Serif" font-size="32.00" fill="#29235c">scraper_id &#160;&#160;&#160;</text>
<text text-anchor="start" x="2238.04" y="-708.29" font-family="Helvetica,sans-Serif" font-style="italic" font-size="32.00" fill="#29235c">integer</text>
<text text-anchor="start" x="2335.85" y="-708.29" font-family="Helvetica,sans-Serif" font-size="32.00" fill="#29235c"> </text>
<text text-anchor="start" x="2344.74" y="-708.29" font-family="Helvetica,sans-Serif" font-weight="bold" font-size="32.00" fill="#29235c">(!)</text>
<polygon fill="#e7e2dd" stroke="transparent" points="1626.94,-627.09 1626.94,-687.09 2385.94,-687.09 2385.94,-627.09 1626.94,-627.09"/>
<polygon fill="none" stroke="#29235c" points="1626.94,-627.09 1626.94,-687.09 2385.94,-687.09 2385.94,-627.09 1626.94,-627.09"/>
<text text-anchor="start" x="1637.94" y="-647.29" font-family="Helvetica,sans-Serif" font-size="32.00" fill="#29235c">iterator &#160;&#160;&#160;</text>
<text text-anchor="start" x="2323.36" y="-648.29" font-family="Helvetica,sans-Serif" font-style="italic" font-size="32.00" fill="#29235c">text</text>
<polygon fill="#e7e2dd" stroke="transparent" points="1626.94,-567.09 1626.94,-627.09 2385.94,-627.09 2385.94,-567.09 1626.94,-567.09"/>
<polygon fill="none" stroke="#29235c" points="1626.94,-567.09 1626.94,-627.09 2385.94,-627.09 2385.94,-567.09 1626.94,-567.09"/>
<text text-anchor="start" x="1637.94" y="-587.29" font-family="Helvetica,sans-Serif" font-size="32.00" fill="#29235c">status &#160;&#160;&#160;</text>
<text text-anchor="start" x="2284.27" y="-588.29" font-family="Helvetica,sans-Serif" font-style="italic" font-size="32.00" fill="#29235c">text</text>
<text text-anchor="start" x="2335.85" y="-588.29" font-family="Helvetica,sans-Serif" font-size="32.00" fill="#29235c"> </text>
<text text-anchor="start" x="2344.74" y="-588.29" font-family="Helvetica,sans-Serif" font-weight="bold" font-size="32.00" fill="#29235c">(!)</text>
<polygon fill="#e7e2dd" stroke="transparent" points="1626.94,-507.09 1626.94,-567.09 2385.94,-567.09 2385.94,-507.09 1626.94,-507.09"/>
<polygon fill="none" stroke="#29235c" points="1626.94,-507.09 1626.94,-567.09 2385.94,-567.09 2385.94,-507.09 1626.94,-507.09"/>
<text text-anchor="start" x="1637.94" y="-527.29" font-family="Helvetica,sans-Serif" font-size="32.00" fill="#29235c">description &#160;&#160;&#160;</text>
<text text-anchor="start" x="2323.36" y="-528.29" font-family="Helvetica,sans-Serif" font-style="italic" font-size="32.00" fill="#29235c">text</text>
<polygon fill="#e7e2dd" stroke="transparent" points="1626.94,-447.09 1626.94,-507.09 2385.94,-507.09 2385.94,-447.09 1626.94,-447.09"/>
<polygon fill="none" stroke="#29235c" points="1626.94,-447.09 1626.94,-507.09 2385.94,-507.09 2385.94,-447.09 1626.94,-447.09"/>
<text text-anchor="start" x="1637.94" y="-467.29" font-family="Helvetica,sans-Serif" font-size="32.00" fill="#29235c">scheduler &#160;&#160;&#160;</text>
<text text-anchor="start" x="2284.27" y="-468.29" font-family="Helvetica,sans-Serif" font-style="italic" font-size="32.00" fill="#29235c">text</text>
<text text-anchor="start" x="2335.85" y="-468.29" font-family="Helvetica,sans-Serif" font-size="32.00" fill="#29235c"> </text>
<text text-anchor="start" x="2344.74" y="-468.29" font-family="Helvetica,sans-Serif" font-weight="bold" font-size="32.00" fill="#29235c">(!)</text>
<polygon fill="#e7e2dd" stroke="transparent" points="1626.94,-387.09 1626.94,-447.09 2385.94,-447.09 2385.94,-387.09 1626.94,-387.09"/>
<polygon fill="none" stroke="#29235c" points="1626.94,-387.09 1626.94,-447.09 2385.94,-447.09 2385.94,-387.09 1626.94,-387.09"/>
<text text-anchor="start" x="1637.94" y="-407.29" font-family="Helvetica,sans-Serif" font-size="32.00" fill="#29235c">next_scheduled_execution_at &#160;&#160;&#160;</text>
<text text-anchor="start" x="2238.04" y="-408.29" font-family="Helvetica,sans-Serif" font-style="italic" font-size="32.00" fill="#29235c">integer</text>
<text text-anchor="start" x="2335.85" y="-408.29" font-family="Helvetica,sans-Serif" font-size="32.00" fill="#29235c"> </text>
<text text-anchor="start" x="2344.74" y="-408.29" font-family="Helvetica,sans-Serif" font-weight="bold" font-size="32.00" fill="#29235c">(!)</text>
<polygon fill="#e7e2dd" stroke="transparent" points="1626.94,-327.09 1626.94,-387.09 2385.94,-387.09 2385.94,-327.09 1626.94,-327.09"/>
<polygon fill="none" stroke="#29235c" points="1626.94,-327.09 1626.94,-387.09 2385.94,-387.09 2385.94,-327.09 1626.94,-327.09"/>
<text text-anchor="start" x="1637.82" y="-347.29" font-family="Helvetica,sans-Serif" font-size="32.00" fill="#29235c">pause_after_number_of_failed_executions &#160;&#160;&#160;</text>
<text text-anchor="start" x="2277.54" y="-348.29" font-family="Helvetica,sans-Serif" font-style="italic" font-size="32.00" fill="#29235c">integer</text>
<polygon fill="#e7e2dd" stroke="transparent" points="1626.94,-267.09 1626.94,-327.09 2385.94,-327.09 2385.94,-267.09 1626.94,-267.09"/>
<polygon fill="none" stroke="#29235c" points="1626.94,-267.09 1626.94,-327.09 2385.94,-327.09 2385.94,-267.09 1626.94,-267.09"/>
<text text-anchor="start" x="1637.94" y="-287.29" font-family="Helvetica,sans-Serif" font-size="32.00" fill="#29235c">created_at &#160;&#160;&#160;</text>
<text text-anchor="start" x="2238.04" y="-288.29" font-family="Helvetica,sans-Serif" font-style="italic" font-size="32.00" fill="#29235c">integer</text>
<text text-anchor="start" x="2335.85" y="-288.29" font-family="Helvetica,sans-Serif" font-size="32.00" fill="#29235c"> </text>
<text text-anchor="start" x="2344.74" y="-288.29" font-family="Helvetica,sans-Serif" font-weight="bold" font-size="32.00" fill="#29235c">(!)</text>
<polygon fill="#e7e2dd" stroke="transparent" points="1626.94,-207.09 1626.94,-267.09 2385.94,-267.09 2385.94,-207.09 1626.94,-207.09"/>
<polygon fill="none" stroke="#29235c" points="1626.94,-207.09 1626.94,-267.09 2385.94,-267.09 2385.94,-207.09 1626.94,-207.09"/>
<text text-anchor="start" x="1637.94" y="-227.29" font-family="Helvetica,sans-Serif" font-size="32.00" fill="#29235c">updated_at &#160;&#160;&#160;</text>
<text text-anchor="start" x="2238.04" y="-228.29" font-family="Helvetica,sans-Serif" font-style="italic" font-size="32.00" fill="#29235c">integer</text>
<text text-anchor="start" x="2335.85" y="-228.29" font-family="Helvetica,sans-Serif" font-size="32.00" fill="#29235c"> </text>
<text text-anchor="start" x="2344.74" y="-228.29" font-family="Helvetica,sans-Serif" font-weight="bold" font-size="32.00" fill="#29235c">(!)</text>
<polygon fill="none" stroke="#29235c" stroke-width="2" points="1625.44,-206.09 1625.44,-868.09 2386.44,-868.09 2386.44,-206.09 1625.44,-206.09"/>
</g>
<!-- scraper_executions&#45;&gt;routines -->
<!-- scraper_executions&#45;&gt;routines -->
<g id="edge10" class="edge">
<title>scraper_executions:e&#45;&gt;routines:w</title>
<path fill="none" stroke="#29235c" stroke-width="3" d="M1341.48,-687.09C1470.59,-687.09 1492.24,-772.4 1615.68,-776.9"/>
<polygon fill="#29235c" stroke="#29235c" stroke-width="3" points="1615.88,-780.41 1625.94,-777.09 1616,-773.41 1615.88,-780.41"/>
<text text-anchor="middle" x="1634.83" y="-786.69" font-family="Helvetica,sans-Serif" font-size="32.00" fill="#29235c">1</text>
<text text-anchor="middle" x="1335.26" y="-658.29" font-family="Helvetica,sans-Serif" font-size="32.00" fill="#29235c">*</text>
</g>
<!-- notifications -->
<g id="notifications" class="node">
<title>notifications</title>
<ellipse fill="none" stroke="black" stroke-width="0" cx="395.27" cy="-1267.09" rx="246.15" ry="214.92"/>
<polygon fill="#1d71b8" stroke="transparent" points="223.27,-1357.09 223.27,-1417.09 567.27,-1417.09 567.27,-1357.09 223.27,-1357.09"/>
<polygon fill="none" stroke="#29235c" points="223.27,-1357.09 223.27,-1417.09 567.27,-1417.09 567.27,-1357.09 223.27,-1357.09"/>
<text text-anchor="start" x="248.56" y="-1378.29" font-family="Helvetica,sans-Serif" font-weight="bold" font-size="32.00" fill="#ffffff"> &#160;&#160;&#160;&#160;&#160;&#160;notifications &#160;&#160;&#160;&#160;&#160;&#160;</text>
<polygon fill="#e7e2dd" stroke="transparent" points="223.27,-1297.09 223.27,-1357.09 567.27,-1357.09 567.27,-1297.09 223.27,-1297.09"/>
<polygon fill="none" stroke="#29235c" points="223.27,-1297.09 223.27,-1357.09 567.27,-1357.09 567.27,-1297.09 223.27,-1297.09"/>
<text text-anchor="start" x="234.27" y="-1318.29" font-family="Helvetica,sans-Serif" font-weight="bold" font-size="32.00" fill="#29235c">id</text>
<text text-anchor="start" x="259.16" y="-1318.29" font-family="Helvetica,sans-Serif" font-size="32.00" fill="#29235c"> &#160;&#160;&#160;</text>
<text text-anchor="start" x="419.38" y="-1318.29" font-family="Helvetica,sans-Serif" font-style="italic" font-size="32.00" fill="#29235c">integer</text>
<text text-anchor="start" x="517.18" y="-1318.29" font-family="Helvetica,sans-Serif" font-size="32.00" fill="#29235c"> </text>
<text text-anchor="start" x="526.07" y="-1318.29" font-family="Helvetica,sans-Serif" font-weight="bold" font-size="32.00" fill="#29235c">(!)</text>
<polygon fill="#e7e2dd" stroke="transparent" points="223.27,-1237.09 223.27,-1297.09 567.27,-1297.09 567.27,-1237.09 223.27,-1237.09"/>
<polygon fill="none" stroke="#29235c" points="223.27,-1237.09 223.27,-1297.09 567.27,-1297.09 567.27,-1237.09 223.27,-1237.09"/>
<text text-anchor="start" x="233.9" y="-1257.29" font-family="Helvetica,sans-Serif" font-size="32.00" fill="#29235c">created_at &#160;&#160;&#160;</text>
<text text-anchor="start" x="419.83" y="-1258.29" font-family="Helvetica,sans-Serif" font-style="italic" font-size="32.00" fill="#29235c">integer</text>
<text text-anchor="start" x="517.63" y="-1258.29" font-family="Helvetica,sans-Serif" font-size="32.00" fill="#29235c"> </text>
<text text-anchor="start" x="526.52" y="-1258.29" font-family="Helvetica,sans-Serif" font-weight="bold" font-size="32.00" fill="#29235c">(!)</text>
<polygon fill="#e7e2dd" stroke="transparent" points="223.27,-1177.09 223.27,-1237.09 567.27,-1237.09 567.27,-1177.09 223.27,-1177.09"/>
<polygon fill="none" stroke="#29235c" points="223.27,-1177.09 223.27,-1237.09 567.27,-1237.09 567.27,-1177.09 223.27,-1177.09"/>
<text text-anchor="start" x="234.27" y="-1197.29" font-family="Helvetica,sans-Serif" font-size="32.00" fill="#29235c">read &#160;&#160;&#160;</text>
<text text-anchor="start" x="419.38" y="-1198.29" font-family="Helvetica,sans-Serif" font-style="italic" font-size="32.00" fill="#29235c">integer</text>
<text text-anchor="start" x="517.18" y="-1198.29" font-family="Helvetica,sans-Serif" font-size="32.00" fill="#29235c"> </text>
<text text-anchor="start" x="526.07" y="-1198.29" font-family="Helvetica,sans-Serif" font-weight="bold" font-size="32.00" fill="#29235c">(!)</text>
<polygon fill="#e7e2dd" stroke="transparent" points="223.27,-1117.09 223.27,-1177.09 567.27,-1177.09 567.27,-1117.09 223.27,-1117.09"/>
<polygon fill="none" stroke="#29235c" points="223.27,-1117.09 223.27,-1177.09 567.27,-1177.09 567.27,-1117.09 223.27,-1117.09"/>
<text text-anchor="start" x="234.27" y="-1137.29" font-family="Helvetica,sans-Serif" font-size="32.00" fill="#29235c">data &#160;&#160;&#160;</text>
<text text-anchor="start" x="465.61" y="-1138.29" font-family="Helvetica,sans-Serif" font-style="italic" font-size="32.00" fill="#29235c">text</text>
<text text-anchor="start" x="517.18" y="-1138.29" font-family="Helvetica,sans-Serif" font-size="32.00" fill="#29235c"> </text>
<text text-anchor="start" x="526.07" y="-1138.29" font-family="Helvetica,sans-Serif" font-weight="bold" font-size="32.00" fill="#29235c">(!)</text>
<polygon fill="none" stroke="#29235c" stroke-width="2" points="222.27,-1116.09 222.27,-1418.09 568.27,-1418.09 568.27,-1116.09 222.27,-1116.09"/>
</g>
<!-- routines&#45;&gt;scrapers -->
<!-- routines&#45;&gt;scrapers -->
<g id="edge12" class="edge">
<title>routines:e&#45;&gt;scrapers:w</title>
<path fill="none" stroke="#29235c" stroke-width="3" d="M2386.94,-717.09C2526.87,-717.09 2535.81,-846.53 2669.35,-852.85"/>
<polygon fill="#29235c" stroke="#29235c" stroke-width="3" points="2669.54,-856.35 2679.62,-853.09 2669.7,-849.36 2669.54,-856.35"/>
<text text-anchor="middle" x="2688.51" y="-862.69" font-family="Helvetica,sans-Serif" font-size="32.00" fill="#29235c">1</text>
<text text-anchor="middle" x="2393.16" y="-717.09" font-family="Helvetica,sans-Serif" font-size="32.00" fill="#29235c">*</text>
</g>
</g>
</svg>
