<?xml version="1.0" encoding="UTF-8" standalone="no"?>
<!DOCTYPE svg PUBLIC "-//W3C//DTD SVG 1.1//EN"
 "http://www.w3.org/Graphics/SVG/1.1/DTD/svg11.dtd">
<!-- Generated by graphviz version 2.47.0 (20210316.0004)
 -->
<!-- Title: dbml Pages: 1 -->
<svg width="1321pt" height="970pt"
 viewBox="0.00 0.00 1321.03 970.35" xmlns="http://www.w3.org/2000/svg" xmlns:xlink="http://www.w3.org/1999/xlink">
<g id="graph0" class="graph" transform="scale(1 1) rotate(0) translate(4 966.35)">
<title>dbml</title>
<!-- preferences -->
<g id="preferences" class="node">
<title>preferences</title>
<ellipse fill="none" stroke="black" stroke-width="0" cx="344.36" cy="-141.96" rx="225.63" ry="130.22"/>
<polygon fill="#1d71b8" stroke="transparent" points="187.36,-171.96 187.36,-231.96 502.36,-231.96 502.36,-171.96 187.36,-171.96"/>
<polygon fill="none" stroke="#29235c" points="187.36,-171.96 187.36,-231.96 502.36,-231.96 502.36,-171.96 187.36,-171.96"/>
<text text-anchor="start" x="198.15" y="-193.16" font-family="Helvetica,sans-Serif" font-weight="bold" font-size="32.00" fill="#ffffff"> &#160;&#160;&#160;&#160;&#160;&#160;preferences &#160;&#160;&#160;&#160;&#160;&#160;</text>
<polygon fill="#e7e2dd" stroke="transparent" points="187.36,-111.96 187.36,-171.96 502.36,-171.96 502.36,-111.96 187.36,-111.96"/>
<polygon fill="none" stroke="#29235c" points="187.36,-111.96 187.36,-171.96 502.36,-171.96 502.36,-111.96 187.36,-111.96"/>
<text text-anchor="start" x="198.36" y="-133.16" font-family="Helvetica,sans-Serif" font-weight="bold" font-size="32.00" fill="#29235c">key</text>
<text text-anchor="start" x="248.15" y="-133.16" font-family="Helvetica,sans-Serif" font-size="32.00" fill="#29235c"> &#160;&#160;&#160;</text>
<text text-anchor="start" x="400.7" y="-133.16" font-family="Helvetica,sans-Serif" font-style="italic" font-size="32.00" fill="#29235c">text</text>
<text text-anchor="start" x="452.27" y="-133.16" font-family="Helvetica,sans-Serif" font-size="32.00" fill="#29235c"> </text>
<text text-anchor="start" x="461.16" y="-133.16" font-family="Helvetica,sans-Serif" font-weight="bold" font-size="32.00" fill="#29235c">(!)</text>
<polygon fill="#e7e2dd" stroke="transparent" points="187.36,-51.96 187.36,-111.96 502.36,-111.96 502.36,-51.96 187.36,-51.96"/>
<polygon fill="none" stroke="#29235c" points="187.36,-51.96 187.36,-111.96 502.36,-111.96 502.36,-51.96 187.36,-51.96"/>
<text text-anchor="start" x="198.36" y="-72.16" font-family="Helvetica,sans-Serif" font-size="32.00" fill="#29235c">value &#160;&#160;&#160;</text>
<text text-anchor="start" x="400.7" y="-73.16" font-family="Helvetica,sans-Serif" font-style="italic" font-size="32.00" fill="#29235c">text</text>
<text text-anchor="start" x="452.27" y="-73.16" font-family="Helvetica,sans-Serif" font-size="32.00" fill="#29235c"> </text>
<text text-anchor="start" x="461.16" y="-73.16" font-family="Helvetica,sans-Serif" font-weight="bold" font-size="32.00" fill="#29235c">(!)</text>
<polygon fill="none" stroke="#29235c" stroke-width="2" points="185.86,-50.96 185.86,-232.96 502.86,-232.96 502.86,-50.96 185.86,-50.96"/>
</g>
<!-- user_data_stores -->
<g id="user_data_stores" class="node">
<title>user_data_stores</title>
<ellipse fill="none" stroke="black" stroke-width="0" cx="1018.88" cy="-214.96" rx="294.31" ry="214.92"/>
<polygon fill="#1d71b8" stroke="transparent" points="812.88,-304.96 812.88,-364.96 1224.88,-364.96 1224.88,-304.96 812.88,-304.96"/>
<polygon fill="none" stroke="#29235c" points="812.88,-304.96 812.88,-364.96 1224.88,-364.96 1224.88,-304.96 812.88,-304.96"/>
<text text-anchor="start" x="833.03" y="-326.16" font-family="Helvetica,sans-Serif" font-weight="bold" font-size="32.00" fill="#ffffff"> &#160;&#160;&#160;&#160;&#160;&#160;user_data_stores &#160;&#160;&#160;&#160;&#160;&#160;</text>
<polygon fill="#e7e2dd" stroke="transparent" points="812.88,-244.96 812.88,-304.96 1224.88,-304.96 1224.88,-244.96 812.88,-244.96"/>
<polygon fill="none" stroke="#29235c" points="812.88,-244.96 812.88,-304.96 1224.88,-304.96 1224.88,-244.96 812.88,-244.96"/>
<text text-anchor="start" x="823.88" y="-266.16" font-family="Helvetica,sans-Serif" font-weight="bold" font-size="32.00" fill="#29235c">table_name</text>
<text text-anchor="start" x="991.05" y="-266.16" font-family="Helvetica,sans-Serif" font-size="32.00" fill="#29235c"> &#160;&#160;&#160;</text>
<text text-anchor="start" x="1123.21" y="-266.16" font-family="Helvetica,sans-Serif" font-style="italic" font-size="32.00" fill="#29235c">text</text>
<text text-anchor="start" x="1174.79" y="-266.16" font-family="Helvetica,sans-Serif" font-size="32.00" fill="#29235c"> </text>
<text text-anchor="start" x="1183.68" y="-266.16" font-family="Helvetica,sans-Serif" font-weight="bold" font-size="32.00" fill="#29235c">(!)</text>
<polygon fill="#e7e2dd" stroke="transparent" points="812.88,-184.96 812.88,-244.96 1224.88,-244.96 1224.88,-184.96 812.88,-184.96"/>
<polygon fill="none" stroke="#29235c" points="812.88,-184.96 812.88,-244.96 1224.88,-244.96 1224.88,-184.96 812.88,-184.96"/>
<text text-anchor="start" x="823.88" y="-205.16" font-family="Helvetica,sans-Serif" font-size="32.00" fill="#29235c">name &#160;&#160;&#160;</text>
<text text-anchor="start" x="1123.21" y="-206.16" font-family="Helvetica,sans-Serif" font-style="italic" font-size="32.00" fill="#29235c">text</text>
<text text-anchor="start" x="1174.79" y="-206.16" font-family="Helvetica,sans-Serif" font-size="32.00" fill="#29235c"> </text>
<text text-anchor="start" x="1183.68" y="-206.16" font-family="Helvetica,sans-Serif" font-weight="bold" font-size="32.00" fill="#29235c">(!)</text>
<polygon fill="#e7e2dd" stroke="transparent" points="812.88,-124.96 812.88,-184.96 1224.88,-184.96 1224.88,-124.96 812.88,-124.96"/>
<polygon fill="none" stroke="#29235c" points="812.88,-124.96 812.88,-184.96 1224.88,-184.96 1224.88,-124.96 812.88,-124.96"/>
<text text-anchor="start" x="823.88" y="-145.16" font-family="Helvetica,sans-Serif" font-size="32.00" fill="#29235c">description &#160;&#160;&#160;</text>
<text text-anchor="start" x="1162.3" y="-146.16" font-family="Helvetica,sans-Serif" font-style="italic" font-size="32.00" fill="#29235c">text</text>
<polygon fill="#e7e2dd" stroke="transparent" points="812.88,-64.96 812.88,-124.96 1224.88,-124.96 1224.88,-64.96 812.88,-64.96"/>
<polygon fill="none" stroke="#29235c" points="812.88,-64.96 812.88,-124.96 1224.88,-124.96 1224.88,-64.96 812.88,-64.96"/>
<text text-anchor="start" x="823.62" y="-85.16" font-family="Helvetica,sans-Serif" font-size="32.00" fill="#29235c">column_definitions &#160;&#160;&#160;</text>
<text text-anchor="start" x="1123.55" y="-86.16" font-family="Helvetica,sans-Serif" font-style="italic" font-size="32.00" fill="#29235c">text</text>
<text text-anchor="start" x="1175.12" y="-86.16" font-family="Helvetica,sans-Serif" font-size="32.00" fill="#29235c"> </text>
<text text-anchor="start" x="1184.01" y="-86.16" font-family="Helvetica,sans-Serif" font-weight="bold" font-size="32.00" fill="#29235c">(!)</text>
<polygon fill="none" stroke="#29235c" stroke-width="2" points="811.88,-63.96 811.88,-365.96 1225.88,-365.96 1225.88,-63.96 811.88,-63.96"/>
</g>
<!-- scrapers -->
<g id="scrapers" class="node">
<title>scrapers</title>
<ellipse fill="none" stroke="black" stroke-width="0" cx="1018.88" cy="-704.96" rx="279.11" ry="257.27"/>
<polygon fill="#1d71b8" stroke="transparent" points="823.88,-824.96 823.88,-884.96 1214.88,-884.96 1214.88,-824.96 823.88,-824.96"/>
<polygon fill="none" stroke="#29235c" points="823.88,-824.96 823.88,-884.96 1214.88,-884.96 1214.88,-824.96 823.88,-824.96"/>
<text text-anchor="start" x="895.79" y="-846.16" font-family="Helvetica,sans-Serif" font-weight="bold" font-size="32.00" fill="#ffffff"> &#160;&#160;&#160;&#160;&#160;&#160;scrapers &#160;&#160;&#160;&#160;&#160;&#160;</text>
<polygon fill="#e7e2dd" stroke="transparent" points="823.88,-764.96 823.88,-824.96 1214.88,-824.96 1214.88,-764.96 823.88,-764.96"/>
<polygon fill="none" stroke="#29235c" points="823.88,-764.96 823.88,-824.96 1214.88,-824.96 1214.88,-764.96 823.88,-764.96"/>
<text text-anchor="start" x="834.88" y="-786.16" font-family="Helvetica,sans-Serif" font-weight="bold" font-size="32.00" fill="#29235c">id</text>
<text text-anchor="start" x="859.77" y="-786.16" font-family="Helvetica,sans-Serif" font-size="32.00" fill="#29235c"> &#160;&#160;&#160;</text>
<text text-anchor="start" x="1066.99" y="-786.16" font-family="Helvetica,sans-Serif" font-style="italic" font-size="32.00" fill="#29235c">integer</text>
<text text-anchor="start" x="1164.79" y="-786.16" font-family="Helvetica,sans-Serif" font-size="32.00" fill="#29235c"> </text>
<text text-anchor="start" x="1173.68" y="-786.16" font-family="Helvetica,sans-Serif" font-weight="bold" font-size="32.00" fill="#29235c">(!)</text>
<polygon fill="#e7e2dd" stroke="transparent" points="823.88,-704.96 823.88,-764.96 1214.88,-764.96 1214.88,-704.96 823.88,-704.96"/>
<polygon fill="none" stroke="#29235c" points="823.88,-704.96 823.88,-764.96 1214.88,-764.96 1214.88,-704.96 823.88,-704.96"/>
<text text-anchor="start" x="834.88" y="-725.16" font-family="Helvetica,sans-Serif" font-size="32.00" fill="#29235c">name &#160;&#160;&#160;</text>
<text text-anchor="start" x="1113.21" y="-726.16" font-family="Helvetica,sans-Serif" font-style="italic" font-size="32.00" fill="#29235c">text</text>
<text text-anchor="start" x="1164.79" y="-726.16" font-family="Helvetica,sans-Serif" font-size="32.00" fill="#29235c"> </text>
<text text-anchor="start" x="1173.68" y="-726.16" font-family="Helvetica,sans-Serif" font-weight="bold" font-size="32.00" fill="#29235c">(!)</text>
<polygon fill="#e7e2dd" stroke="transparent" points="823.88,-644.96 823.88,-704.96 1214.88,-704.96 1214.88,-644.96 823.88,-644.96"/>
<polygon fill="none" stroke="#29235c" points="823.88,-644.96 823.88,-704.96 1214.88,-704.96 1214.88,-644.96 823.88,-644.96"/>
<text text-anchor="start" x="834.88" y="-665.16" font-family="Helvetica,sans-Serif" font-size="32.00" fill="#29235c">description &#160;&#160;&#160;</text>
<text text-anchor="start" x="1152.3" y="-666.16" font-family="Helvetica,sans-Serif" font-style="italic" font-size="32.00" fill="#29235c">text</text>
<polygon fill="#e7e2dd" stroke="transparent" points="823.88,-584.96 823.88,-644.96 1214.88,-644.96 1214.88,-584.96 823.88,-584.96"/>
<polygon fill="none" stroke="#29235c" points="823.88,-584.96 823.88,-644.96 1214.88,-644.96 1214.88,-584.96 823.88,-584.96"/>
<text text-anchor="start" x="834.88" y="-605.16" font-family="Helvetica,sans-Serif" font-size="32.00" fill="#29235c">instructions &#160;&#160;&#160;</text>
<text text-anchor="start" x="1113.21" y="-606.16" font-family="Helvetica,sans-Serif" font-style="italic" font-size="32.00" fill="#29235c">text</text>
<text text-anchor="start" x="1164.79" y="-606.16" font-family="Helvetica,sans-Serif" font-size="32.00" fill="#29235c"> </text>
<text text-anchor="start" x="1173.68" y="-606.16" font-family="Helvetica,sans-Serif" font-weight="bold" font-size="32.00" fill="#29235c">(!)</text>
<polygon fill="#e7e2dd" stroke="transparent" points="823.88,-524.96 823.88,-584.96 1214.88,-584.96 1214.88,-524.96 823.88,-524.96"/>
<polygon fill="none" stroke="#29235c" points="823.88,-524.96 823.88,-584.96 1214.88,-584.96 1214.88,-524.96 823.88,-524.96"/>
<text text-anchor="start" x="834.73" y="-545.16" font-family="Helvetica,sans-Serif" font-size="32.00" fill="#29235c">user_data_directory &#160;&#160;&#160;</text>
<text text-anchor="start" x="1152.59" y="-546.16" font-family="Helvetica,sans-Serif" font-style="italic" font-size="32.00" fill="#29235c">text</text>
<polygon fill="none" stroke="#29235c" stroke-width="2" points="822.38,-523.96 822.38,-885.96 1215.38,-885.96 1215.38,-523.96 822.38,-523.96"/>
</g>
<!-- scraper_data_sources -->
<g id="scraper_data_sources" class="node">
<title>scraper_data_sources</title>
<ellipse fill="none" stroke="black" stroke-width="0" cx="344.36" cy="-504.96" rx="344.22" ry="214.92"/>
<polygon fill="#1d71b8" stroke="transparent" points="103.36,-594.96 103.36,-654.96 586.36,-654.96 586.36,-594.96 103.36,-594.96"/>
<polygon fill="none" stroke="#29235c" points="103.36,-594.96 103.36,-654.96 586.36,-654.96 586.36,-594.96 103.36,-594.96"/>
<text text-anchor="start" x="124.35" y="-616.16" font-family="Helvetica,sans-Serif" font-weight="bold" font-size="32.00" fill="#ffffff"> &#160;&#160;&#160;&#160;&#160;&#160;scraper_data_sources &#160;&#160;&#160;&#160;&#160;&#160;</text>
<polygon fill="#e7e2dd" stroke="transparent" points="103.36,-534.96 103.36,-594.96 586.36,-594.96 586.36,-534.96 103.36,-534.96"/>
<polygon fill="none" stroke="#29235c" points="103.36,-534.96 103.36,-594.96 586.36,-594.96 586.36,-534.96 103.36,-534.96"/>
<text text-anchor="start" x="114.36" y="-556.16" font-family="Helvetica,sans-Serif" font-weight="bold" font-size="32.00" fill="#29235c">scraper_id</text>
<text text-anchor="start" x="263.71" y="-556.16" font-family="Helvetica,sans-Serif" font-size="32.00" fill="#29235c"> &#160;&#160;&#160;</text>
<text text-anchor="start" x="438.47" y="-556.16" font-family="Helvetica,sans-Serif" font-style="italic" font-size="32.00" fill="#29235c">integer</text>
<text text-anchor="start" x="536.27" y="-556.16" font-family="Helvetica,sans-Serif" font-size="32.00" fill="#29235c"> </text>
<text text-anchor="start" x="545.16" y="-556.16" font-family="Helvetica,sans-Serif" font-weight="bold" font-size="32.00" fill="#29235c">(!)</text>
<polygon fill="#e7e2dd" stroke="transparent" points="103.36,-474.96 103.36,-534.96 586.36,-534.96 586.36,-474.96 103.36,-474.96"/>
<polygon fill="none" stroke="#29235c" points="103.36,-474.96 103.36,-534.96 586.36,-534.96 586.36,-474.96 103.36,-474.96"/>
<text text-anchor="start" x="114.01" y="-496.16" font-family="Helvetica,sans-Serif" font-weight="bold" font-size="32.00" fill="#29235c">data_store_table_name</text>
<text text-anchor="start" x="450.14" y="-496.16" font-family="Helvetica,sans-Serif" font-size="32.00" fill="#29235c"> &#160;&#160;&#160;</text>
<text text-anchor="start" x="485.03" y="-496.16" font-family="Helvetica,sans-Serif" font-style="italic" font-size="32.00" fill="#29235c">text</text>
<text text-anchor="start" x="536.6" y="-496.16" font-family="Helvetica,sans-Serif" font-size="32.00" fill="#29235c"> </text>
<text text-anchor="start" x="545.5" y="-496.16" font-family="Helvetica,sans-Serif" font-weight="bold" font-size="32.00" fill="#29235c">(!)</text>
<polygon fill="#e7e2dd" stroke="transparent" points="103.36,-414.96 103.36,-474.96 586.36,-474.96 586.36,-414.96 103.36,-414.96"/>
<polygon fill="none" stroke="#29235c" points="103.36,-414.96 103.36,-474.96 586.36,-474.96 586.36,-414.96 103.36,-414.96"/>
<text text-anchor="start" x="114.36" y="-435.16" font-family="Helvetica,sans-Serif" font-size="32.00" fill="#29235c">source_alias &#160;&#160;&#160;</text>
<text text-anchor="start" x="484.7" y="-436.16" font-family="Helvetica,sans-Serif" font-style="italic" font-size="32.00" fill="#29235c">text</text>
<text text-anchor="start" x="536.27" y="-436.16" font-family="Helvetica,sans-Serif" font-size="32.00" fill="#29235c"> </text>
<text text-anchor="start" x="545.16" y="-436.16" font-family="Helvetica,sans-Serif" font-weight="bold" font-size="32.00" fill="#29235c">(!)</text>
<polygon fill="#e7e2dd" stroke="transparent" points="103.36,-354.96 103.36,-414.96 586.36,-414.96 586.36,-354.96 103.36,-354.96"/>
<polygon fill="none" stroke="#29235c" points="103.36,-354.96 103.36,-414.96 586.36,-414.96 586.36,-354.96 103.36,-354.96"/>
<text text-anchor="start" x="114.36" y="-375.16" font-family="Helvetica,sans-Serif" font-size="32.00" fill="#29235c">where_schema &#160;&#160;&#160;</text>
<text text-anchor="start" x="523.79" y="-376.16" font-family="Helvetica,sans-Serif" font-style="italic" font-size="32.00" fill="#29235c">text</text>
<polygon fill="none" stroke="#29235c" stroke-width="2" points="101.86,-353.96 101.86,-655.96 586.86,-655.96 586.86,-353.96 101.86,-353.96"/>
</g>
<!-- scraper_data_sources&#45;&gt;user_data_stores -->
<!-- scraper_data_sources&#45;&gt;user_data_stores -->
<g id="edge4" class="edge">
<title>scraper_data_sources:e&#45;&gt;user_data_stores:w</title>
<path fill="none" stroke="#29235c" stroke-width="3" d="M587.36,-504.96C726.72,-504.96 671.89,-286.05 801.77,-275.37"/>
<polygon fill="#29235c" stroke="#29235c" stroke-width="3" points="802.03,-278.86 811.88,-274.96 801.75,-271.86 802.03,-278.86"/>
<text text-anchor="middle" x="802.98" y="-284.56" font-family="Helvetica,sans-Serif" font-size="32.00" fill="#29235c">1</text>
<text text-anchor="middle" x="593.58" y="-514.56" font-family="Helvetica,sans-Serif" font-size="32.00" fill="#29235c">*</text>
</g>
<!-- scraper_data_sources&#45;&gt;scrapers -->
<!-- scraper_data_sources&#45;&gt;scrapers -->
<g id="edge2" class="edge">
<title>scraper_data_sources:e&#45;&gt;scrapers:w</title>
<path fill="none" stroke="#29235c" stroke-width="3" d="M587.36,-564.96C730.1,-564.96 679.24,-783.87 812.52,-794.56"/>
<polygon fill="#29235c" stroke="#29235c" stroke-width="3" points="812.75,-798.07 822.88,-794.96 813.02,-791.07 812.75,-798.07"/>
<text text-anchor="middle" x="813.98" y="-804.56" font-family="Helvetica,sans-Serif" font-size="32.00" fill="#29235c">1</text>
<text text-anchor="middle" x="593.58" y="-574.56" font-family="Helvetica,sans-Serif" font-size="32.00" fill="#29235c">*</text>
</g>
</g>
</svg>
