<?xml version="1.0" encoding="UTF-8" standalone="no"?>
<!DOCTYPE svg PUBLIC "-//W3C//DTD SVG 1.1//EN"
 "http://www.w3.org/Graphics/SVG/1.1/DTD/svg11.dtd">
<!-- Generated by graphviz version 2.47.0 (20210316.0004)
 -->
<!-- Title: dbml Pages: 1 -->
<svg width="2148pt" height="1551pt"
 viewBox="0.00 0.00 2147.58 1550.92" xmlns="http://www.w3.org/2000/svg" xmlns:xlink="http://www.w3.org/1999/xlink">
<g id="graph0" class="graph" transform="scale(1 1) rotate(0) translate(4 1546.92)">
<title>dbml</title>
<!-- preferences -->
<g id="preferences" class="node">
<title>preferences</title>
<ellipse fill="none" stroke="black" stroke-width="0" cx="395.27" cy="-516.96" rx="225.63" ry="130.22"/>
<polygon fill="#1d71b8" stroke="transparent" points="238.27,-546.96 238.27,-606.96 553.27,-606.96 553.27,-546.96 238.27,-546.96"/>
<polygon fill="none" stroke="#29235c" points="238.27,-546.96 238.27,-606.96 553.27,-606.96 553.27,-546.96 238.27,-546.96"/>
<text text-anchor="start" x="249.06" y="-568.16" font-family="Helvetica,sans-Serif" font-weight="bold" font-size="32.00" fill="#ffffff"> &#160;&#160;&#160;&#160;&#160;&#160;preferences &#160;&#160;&#160;&#160;&#160;&#160;</text>
<polygon fill="#e7e2dd" stroke="transparent" points="238.27,-486.96 238.27,-546.96 553.27,-546.96 553.27,-486.96 238.27,-486.96"/>
<polygon fill="none" stroke="#29235c" points="238.27,-486.96 238.27,-546.96 553.27,-546.96 553.27,-486.96 238.27,-486.96"/>
<text text-anchor="start" x="249.27" y="-508.16" font-family="Helvetica,sans-Serif" font-weight="bold" font-size="32.00" fill="#29235c">key</text>
<text text-anchor="start" x="299.06" y="-508.16" font-family="Helvetica,sans-Serif" font-size="32.00" fill="#29235c"> &#160;&#160;&#160;</text>
<text text-anchor="start" x="451.61" y="-508.16" font-family="Helvetica,sans-Serif" font-style="italic" font-size="32.00" fill="#29235c">text</text>
<text text-anchor="start" x="503.18" y="-508.16" font-family="Helvetica,sans-Serif" font-size="32.00" fill="#29235c"> </text>
<text text-anchor="start" x="512.07" y="-508.16" font-family="Helvetica,sans-Serif" font-weight="bold" font-size="32.00" fill="#29235c">(!)</text>
<polygon fill="#e7e2dd" stroke="transparent" points="238.27,-426.96 238.27,-486.96 553.27,-486.96 553.27,-426.96 238.27,-426.96"/>
<polygon fill="none" stroke="#29235c" points="238.27,-426.96 238.27,-486.96 553.27,-486.96 553.27,-426.96 238.27,-426.96"/>
<text text-anchor="start" x="249.27" y="-447.16" font-family="Helvetica,sans-Serif" font-size="32.00" fill="#29235c">value &#160;&#160;&#160;</text>
<text text-anchor="start" x="451.61" y="-448.16" font-family="Helvetica,sans-Serif" font-style="italic" font-size="32.00" fill="#29235c">text</text>
<text text-anchor="start" x="503.18" y="-448.16" font-family="Helvetica,sans-Serif" font-size="32.00" fill="#29235c"> </text>
<text text-anchor="start" x="512.07" y="-448.16" font-family="Helvetica,sans-Serif" font-weight="bold" font-size="32.00" fill="#29235c">(!)</text>
<polygon fill="none" stroke="#29235c" stroke-width="2" points="236.77,-425.96 236.77,-607.96 553.77,-607.96 553.77,-425.96 236.77,-425.96"/>
</g>
<!-- scraper_data_sources -->
<g id="scraper_data_sources" class="node">
<title>scraper_data_sources</title>
<ellipse fill="none" stroke="black" stroke-width="0" cx="1170.91" cy="-352.96" rx="344.22" ry="214.92"/>
<polygon fill="#1d71b8" stroke="transparent" points="929.91,-442.96 929.91,-502.96 1412.91,-502.96 1412.91,-442.96 929.91,-442.96"/>
<polygon fill="none" stroke="#29235c" points="929.91,-442.96 929.91,-502.96 1412.91,-502.96 1412.91,-442.96 929.91,-442.96"/>
<text text-anchor="start" x="950.89" y="-464.16" font-family="Helvetica,sans-Serif" font-weight="bold" font-size="32.00" fill="#ffffff"> &#160;&#160;&#160;&#160;&#160;&#160;scraper_data_sources &#160;&#160;&#160;&#160;&#160;&#160;</text>
<polygon fill="#e7e2dd" stroke="transparent" points="929.91,-382.96 929.91,-442.96 1412.91,-442.96 1412.91,-382.96 929.91,-382.96"/>
<polygon fill="none" stroke="#29235c" points="929.91,-382.96 929.91,-442.96 1412.91,-442.96 1412.91,-382.96 929.91,-382.96"/>
<text text-anchor="start" x="940.91" y="-404.16" font-family="Helvetica,sans-Serif" font-weight="bold" font-size="32.00" fill="#29235c">scraper_id</text>
<text text-anchor="start" x="1090.26" y="-404.16" font-family="Helvetica,sans-Serif" font-size="32.00" fill="#29235c"> &#160;&#160;&#160;</text>
<text text-anchor="start" x="1265.01" y="-404.16" font-family="Helvetica,sans-Serif" font-style="italic" font-size="32.00" fill="#29235c">integer</text>
<text text-anchor="start" x="1362.82" y="-404.16" font-family="Helvetica,sans-Serif" font-size="32.00" fill="#29235c"> </text>
<text text-anchor="start" x="1371.71" y="-404.16" font-family="Helvetica,sans-Serif" font-weight="bold" font-size="32.00" fill="#29235c">(!)</text>
<polygon fill="#e7e2dd" stroke="transparent" points="929.91,-322.96 929.91,-382.96 1412.91,-382.96 1412.91,-322.96 929.91,-322.96"/>
<polygon fill="none" stroke="#29235c" points="929.91,-322.96 929.91,-382.96 1412.91,-382.96 1412.91,-322.96 929.91,-322.96"/>
<text text-anchor="start" x="940.56" y="-344.16" font-family="Helvetica,sans-Serif" font-weight="bold" font-size="32.00" fill="#29235c">data_store_table_name</text>
<text text-anchor="start" x="1276.68" y="-344.16" font-family="Helvetica,sans-Serif" font-size="32.00" fill="#29235c"> &#160;&#160;&#160;</text>
<text text-anchor="start" x="1311.57" y="-344.16" font-family="Helvetica,sans-Serif" font-style="italic" font-size="32.00" fill="#29235c">text</text>
<text text-anchor="start" x="1363.15" y="-344.16" font-family="Helvetica,sans-Serif" font-size="32.00" fill="#29235c"> </text>
<text text-anchor="start" x="1372.04" y="-344.16" font-family="Helvetica,sans-Serif" font-weight="bold" font-size="32.00" fill="#29235c">(!)</text>
<polygon fill="#e7e2dd" stroke="transparent" points="929.91,-262.96 929.91,-322.96 1412.91,-322.96 1412.91,-262.96 929.91,-262.96"/>
<polygon fill="none" stroke="#29235c" points="929.91,-262.96 929.91,-322.96 1412.91,-322.96 1412.91,-262.96 929.91,-262.96"/>
<text text-anchor="start" x="940.91" y="-283.16" font-family="Helvetica,sans-Serif" font-size="32.00" fill="#29235c">source_alias &#160;&#160;&#160;</text>
<text text-anchor="start" x="1311.24" y="-284.16" font-family="Helvetica,sans-Serif" font-style="italic" font-size="32.00" fill="#29235c">text</text>
<text text-anchor="start" x="1362.82" y="-284.16" font-family="Helvetica,sans-Serif" font-size="32.00" fill="#29235c"> </text>
<text text-anchor="start" x="1371.71" y="-284.16" font-family="Helvetica,sans-Serif" font-weight="bold" font-size="32.00" fill="#29235c">(!)</text>
<polygon fill="#e7e2dd" stroke="transparent" points="929.91,-202.96 929.91,-262.96 1412.91,-262.96 1412.91,-202.96 929.91,-202.96"/>
<polygon fill="none" stroke="#29235c" points="929.91,-202.96 929.91,-262.96 1412.91,-262.96 1412.91,-202.96 929.91,-202.96"/>
<text text-anchor="start" x="940.91" y="-223.16" font-family="Helvetica,sans-Serif" font-size="32.00" fill="#29235c">where_schema &#160;&#160;&#160;</text>
<text text-anchor="start" x="1350.33" y="-224.16" font-family="Helvetica,sans-Serif" font-style="italic" font-size="32.00" fill="#29235c">text</text>
<polygon fill="none" stroke="#29235c" stroke-width="2" points="928.41,-201.96 928.41,-503.96 1413.41,-503.96 1413.41,-201.96 928.41,-201.96"/>
</g>
<!-- scrapers -->
<g id="scrapers" class="node">
<title>scrapers</title>
<ellipse fill="none" stroke="black" stroke-width="0" cx="1845.42" cy="-789.96" rx="279.11" ry="342.48"/>
<polygon fill="#1d71b8" stroke="transparent" points="1650.42,-969.96 1650.42,-1029.96 2041.42,-1029.96 2041.42,-969.96 1650.42,-969.96"/>
<polygon fill="none" stroke="#29235c" points="1650.42,-969.96 1650.42,-1029.96 2041.42,-1029.96 2041.42,-969.96 1650.42,-969.96"/>
<text text-anchor="start" x="1722.34" y="-991.16" font-family="Helvetica,sans-Serif" font-weight="bold" font-size="32.00" fill="#ffffff"> &#160;&#160;&#160;&#160;&#160;&#160;scrapers &#160;&#160;&#160;&#160;&#160;&#160;</text>
<polygon fill="#e7e2dd" stroke="transparent" points="1650.42,-909.96 1650.42,-969.96 2041.42,-969.96 2041.42,-909.96 1650.42,-909.96"/>
<polygon fill="none" stroke="#29235c" points="1650.42,-909.96 1650.42,-969.96 2041.42,-969.96 2041.42,-909.96 1650.42,-909.96"/>
<text text-anchor="start" x="1661.42" y="-931.16" font-family="Helvetica,sans-Serif" font-weight="bold" font-size="32.00" fill="#29235c">id</text>
<text text-anchor="start" x="1686.31" y="-931.16" font-family="Helvetica,sans-Serif" font-size="32.00" fill="#29235c"> &#160;&#160;&#160;</text>
<text text-anchor="start" x="1893.53" y="-931.16" font-family="Helvetica,sans-Serif" font-style="italic" font-size="32.00" fill="#29235c">integer</text>
<text text-anchor="start" x="1991.33" y="-931.16" font-family="Helvetica,sans-Serif" font-size="32.00" fill="#29235c"> </text>
<text text-anchor="start" x="2000.23" y="-931.16" font-family="Helvetica,sans-Serif" font-weight="bold" font-size="32.00" fill="#29235c">(!)</text>
<polygon fill="#e7e2dd" stroke="transparent" points="1650.42,-849.96 1650.42,-909.96 2041.42,-909.96 2041.42,-849.96 1650.42,-849.96"/>
<polygon fill="none" stroke="#29235c" points="1650.42,-849.96 1650.42,-909.96 2041.42,-909.96 2041.42,-849.96 1650.42,-849.96"/>
<text text-anchor="start" x="1661.42" y="-870.16" font-family="Helvetica,sans-Serif" font-size="32.00" fill="#29235c">name &#160;&#160;&#160;</text>
<text text-anchor="start" x="1939.76" y="-871.16" font-family="Helvetica,sans-Serif" font-style="italic" font-size="32.00" fill="#29235c">text</text>
<text text-anchor="start" x="1991.33" y="-871.16" font-family="Helvetica,sans-Serif" font-size="32.00" fill="#29235c"> </text>
<text text-anchor="start" x="2000.23" y="-871.16" font-family="Helvetica,sans-Serif" font-weight="bold" font-size="32.00" fill="#29235c">(!)</text>
<polygon fill="#e7e2dd" stroke="transparent" points="1650.42,-789.96 1650.42,-849.96 2041.42,-849.96 2041.42,-789.96 1650.42,-789.96"/>
<polygon fill="none" stroke="#29235c" points="1650.42,-789.96 1650.42,-849.96 2041.42,-849.96 2041.42,-789.96 1650.42,-789.96"/>
<text text-anchor="start" x="1661.42" y="-810.16" font-family="Helvetica,sans-Serif" font-size="32.00" fill="#29235c">description &#160;&#160;&#160;</text>
<text text-anchor="start" x="1978.85" y="-811.16" font-family="Helvetica,sans-Serif" font-style="italic" font-size="32.00" fill="#29235c">text</text>
<polygon fill="#e7e2dd" stroke="transparent" points="1650.42,-729.96 1650.42,-789.96 2041.42,-789.96 2041.42,-729.96 1650.42,-729.96"/>
<polygon fill="none" stroke="#29235c" points="1650.42,-729.96 1650.42,-789.96 2041.42,-789.96 2041.42,-729.96 1650.42,-729.96"/>
<text text-anchor="start" x="1661.42" y="-750.16" font-family="Helvetica,sans-Serif" font-size="32.00" fill="#29235c">instructions &#160;&#160;&#160;</text>
<text text-anchor="start" x="1939.76" y="-751.16" font-family="Helvetica,sans-Serif" font-style="italic" font-size="32.00" fill="#29235c">text</text>
<text text-anchor="start" x="1991.33" y="-751.16" font-family="Helvetica,sans-Serif" font-size="32.00" fill="#29235c"> </text>
<text text-anchor="start" x="2000.23" y="-751.16" font-family="Helvetica,sans-Serif" font-weight="bold" font-size="32.00" fill="#29235c">(!)</text>
<polygon fill="#e7e2dd" stroke="transparent" points="1650.42,-669.96 1650.42,-729.96 2041.42,-729.96 2041.42,-669.96 1650.42,-669.96"/>
<polygon fill="none" stroke="#29235c" points="1650.42,-669.96 1650.42,-729.96 2041.42,-729.96 2041.42,-669.96 1650.42,-669.96"/>
<text text-anchor="start" x="1661.27" y="-690.16" font-family="Helvetica,sans-Serif" font-size="32.00" fill="#29235c">user_data_directory &#160;&#160;&#160;</text>
<text text-anchor="start" x="1979.14" y="-691.16" font-family="Helvetica,sans-Serif" font-style="italic" font-size="32.00" fill="#29235c">text</text>
<polygon fill="#e7e2dd" stroke="transparent" points="1650.42,-609.96 1650.42,-669.96 2041.42,-669.96 2041.42,-609.96 1650.42,-609.96"/>
<polygon fill="none" stroke="#29235c" points="1650.42,-609.96 1650.42,-669.96 2041.42,-669.96 2041.42,-609.96 1650.42,-609.96"/>
<text text-anchor="start" x="1661.42" y="-630.16" font-family="Helvetica,sans-Serif" font-size="32.00" fill="#29235c">created_at &#160;&#160;&#160;</text>
<text text-anchor="start" x="1893.53" y="-631.16" font-family="Helvetica,sans-Serif" font-style="italic" font-size="32.00" fill="#29235c">integer</text>
<text text-anchor="start" x="1991.33" y="-631.16" font-family="Helvetica,sans-Serif" font-size="32.00" fill="#29235c"> </text>
<text text-anchor="start" x="2000.23" y="-631.16" font-family="Helvetica,sans-Serif" font-weight="bold" font-size="32.00" fill="#29235c">(!)</text>
<polygon fill="#e7e2dd" stroke="transparent" points="1650.42,-549.96 1650.42,-609.96 2041.42,-609.96 2041.42,-549.96 1650.42,-549.96"/>
<polygon fill="none" stroke="#29235c" points="1650.42,-549.96 1650.42,-609.96 2041.42,-609.96 2041.42,-549.96 1650.42,-549.96"/>
<text text-anchor="start" x="1661.42" y="-570.16" font-family="Helvetica,sans-Serif" font-size="32.00" fill="#29235c">updated_at &#160;&#160;&#160;</text>
<text text-anchor="start" x="1893.53" y="-571.16" font-family="Helvetica,sans-Serif" font-style="italic" font-size="32.00" fill="#29235c">integer</text>
<text text-anchor="start" x="1991.33" y="-571.16" font-family="Helvetica,sans-Serif" font-size="32.00" fill="#29235c"> </text>
<text text-anchor="start" x="2000.23" y="-571.16" font-family="Helvetica,sans-Serif" font-weight="bold" font-size="32.00" fill="#29235c">(!)</text>
<polygon fill="none" stroke="#29235c" stroke-width="2" points="1648.92,-548.96 1648.92,-1030.96 2041.92,-1030.96 2041.92,-548.96 1648.92,-548.96"/>
</g>
<!-- scraper_data_sources&#45;&gt;scrapers -->
<!-- scraper_data_sources&#45;&gt;scrapers -->
<g id="edge2" class="edge">
<title>scraper_data_sources:e&#45;&gt;scrapers:w</title>
<path fill="none" stroke="#29235c" stroke-width="3" d="M1413.91,-412.96C1666.95,-412.96 1400.37,-925.65 1639.2,-939.67"/>
<polygon fill="#29235c" stroke="#29235c" stroke-width="3" points="1639.33,-943.17 1649.42,-939.96 1639.53,-936.18 1639.33,-943.17"/>
<text text-anchor="middle" x="1640.53" y="-949.56" font-family="Helvetica,sans-Serif" font-size="32.00" fill="#29235c">1</text>
<text text-anchor="middle" x="1420.13" y="-384.16" font-family="Helvetica,sans-Serif" font-size="32.00" fill="#29235c">*</text>
</g>
<!-- user_data_stores -->
<g id="user_data_stores" class="node">
<title>user_data_stores</title>
<ellipse fill="none" stroke="black" stroke-width="0" cx="1845.42" cy="-214.96" rx="294.31" ry="214.92"/>
<polygon fill="#1d71b8" stroke="transparent" points="1639.42,-304.96 1639.42,-364.96 2051.42,-364.96 2051.42,-304.96 1639.42,-304.96"/>
<polygon fill="none" stroke="#29235c" points="1639.42,-304.96 1639.42,-364.96 2051.42,-364.96 2051.42,-304.96 1639.42,-304.96"/>
<text text-anchor="start" x="1659.58" y="-326.16" font-family="Helvetica,sans-Serif" font-weight="bold" font-size="32.00" fill="#ffffff"> &#160;&#160;&#160;&#160;&#160;&#160;user_data_stores &#160;&#160;&#160;&#160;&#160;&#160;</text>
<polygon fill="#e7e2dd" stroke="transparent" points="1639.42,-244.96 1639.42,-304.96 2051.42,-304.96 2051.42,-244.96 1639.42,-244.96"/>
<polygon fill="none" stroke="#29235c" points="1639.42,-244.96 1639.42,-304.96 2051.42,-304.96 2051.42,-244.96 1639.42,-244.96"/>
<text text-anchor="start" x="1650.42" y="-266.16" font-family="Helvetica,sans-Serif" font-weight="bold" font-size="32.00" fill="#29235c">table_name</text>
<text text-anchor="start" x="1817.59" y="-266.16" font-family="Helvetica,sans-Serif" font-size="32.00" fill="#29235c"> &#160;&#160;&#160;</text>
<text text-anchor="start" x="1949.76" y="-266.16" font-family="Helvetica,sans-Serif" font-style="italic" font-size="32.00" fill="#29235c">text</text>
<text text-anchor="start" x="2001.33" y="-266.16" font-family="Helvetica,sans-Serif" font-size="32.00" fill="#29235c"> </text>
<text text-anchor="start" x="2010.23" y="-266.16" font-family="Helvetica,sans-Serif" font-weight="bold" font-size="32.00" fill="#29235c">(!)</text>
<polygon fill="#e7e2dd" stroke="transparent" points="1639.42,-184.96 1639.42,-244.96 2051.42,-244.96 2051.42,-184.96 1639.42,-184.96"/>
<polygon fill="none" stroke="#29235c" points="1639.42,-184.96 1639.42,-244.96 2051.42,-244.96 2051.42,-184.96 1639.42,-184.96"/>
<text text-anchor="start" x="1650.42" y="-205.16" font-family="Helvetica,sans-Serif" font-size="32.00" fill="#29235c">name &#160;&#160;&#160;</text>
<text text-anchor="start" x="1949.76" y="-206.16" font-family="Helvetica,sans-Serif" font-style="italic" font-size="32.00" fill="#29235c">text</text>
<text text-anchor="start" x="2001.33" y="-206.16" font-family="Helvetica,sans-Serif" font-size="32.00" fill="#29235c"> </text>
<text text-anchor="start" x="2010.23" y="-206.16" font-family="Helvetica,sans-Serif" font-weight="bold" font-size="32.00" fill="#29235c">(!)</text>
<polygon fill="#e7e2dd" stroke="transparent" points="1639.42,-124.96 1639.42,-184.96 2051.42,-184.96 2051.42,-124.96 1639.42,-124.96"/>
<polygon fill="none" stroke="#29235c" points="1639.42,-124.96 1639.42,-184.96 2051.42,-184.96 2051.42,-124.96 1639.42,-124.96"/>
<text text-anchor="start" x="1650.42" y="-145.16" font-family="Helvetica,sans-Serif" font-size="32.00" fill="#29235c">description &#160;&#160;&#160;</text>
<text text-anchor="start" x="1988.85" y="-146.16" font-family="Helvetica,sans-Serif" font-style="italic" font-size="32.00" fill="#29235c">text</text>
<polygon fill="#e7e2dd" stroke="transparent" points="1639.42,-64.96 1639.42,-124.96 2051.42,-124.96 2051.42,-64.96 1639.42,-64.96"/>
<polygon fill="none" stroke="#29235c" points="1639.42,-64.96 1639.42,-124.96 2051.42,-124.96 2051.42,-64.96 1639.42,-64.96"/>
<text text-anchor="start" x="1650.17" y="-85.16" font-family="Helvetica,sans-Serif" font-size="32.00" fill="#29235c">column_definitions &#160;&#160;&#160;</text>
<text text-anchor="start" x="1950.09" y="-86.16" font-family="Helvetica,sans-Serif" font-style="italic" font-size="32.00" fill="#29235c">text</text>
<text text-anchor="start" x="2001.67" y="-86.16" font-family="Helvetica,sans-Serif" font-size="32.00" fill="#29235c"> </text>
<text text-anchor="start" x="2010.56" y="-86.16" font-family="Helvetica,sans-Serif" font-weight="bold" font-size="32.00" fill="#29235c">(!)</text>
<polygon fill="none" stroke="#29235c" stroke-width="2" points="1638.42,-63.96 1638.42,-365.96 2052.42,-365.96 2052.42,-63.96 1638.42,-63.96"/>
</g>
<!-- scraper_data_sources&#45;&gt;user_data_stores -->
<!-- scraper_data_sources&#45;&gt;user_data_stores -->
<g id="edge4" class="edge">
<title>scraper_data_sources:e&#45;&gt;user_data_stores:w</title>
<path fill="none" stroke="#29235c" stroke-width="3" d="M1413.91,-352.96C1516.03,-352.96 1531.81,-280.05 1628.2,-275.21"/>
<polygon fill="#29235c" stroke="#29235c" stroke-width="3" points="1628.51,-278.71 1638.42,-274.96 1628.34,-271.71 1628.51,-278.71"/>
<text text-anchor="middle" x="1629.53" y="-246.16" font-family="Helvetica,sans-Serif" font-size="32.00" fill="#29235c">1</text>
<text text-anchor="middle" x="1420.13" y="-324.16" font-family="Helvetica,sans-Serif" font-size="32.00" fill="#29235c">*</text>
</g>
<!-- scraper_execution_iterations -->
<g id="scraper_execution_iterations" class="node">
<title>scraper_execution_iterations</title>
<ellipse fill="none" stroke="black" stroke-width="0" cx="395.27" cy="-879.96" rx="395.05" ry="214.92"/>
<polygon fill="#1d71b8" stroke="transparent" points="118.27,-969.96 118.27,-1029.96 673.27,-1029.96 673.27,-969.96 118.27,-969.96"/>
<polygon fill="none" stroke="#29235c" points="118.27,-969.96 118.27,-1029.96 673.27,-1029.96 673.27,-969.96 118.27,-969.96"/>
<text text-anchor="start" x="129.03" y="-991.16" font-family="Helvetica,sans-Serif" font-weight="bold" font-size="32.00" fill="#ffffff"> &#160;&#160;&#160;&#160;&#160;&#160;scraper_execution_iterations &#160;&#160;&#160;&#160;&#160;&#160;</text>
<polygon fill="#e7e2dd" stroke="transparent" points="118.27,-909.96 118.27,-969.96 673.27,-969.96 673.27,-909.96 118.27,-909.96"/>
<polygon fill="none" stroke="#29235c" points="118.27,-909.96 118.27,-969.96 673.27,-969.96 673.27,-909.96 118.27,-909.96"/>
<text text-anchor="start" x="129.27" y="-931.16" font-family="Helvetica,sans-Serif" font-weight="bold" font-size="32.00" fill="#29235c">iteration</text>
<text text-anchor="start" x="243.07" y="-931.16" font-family="Helvetica,sans-Serif" font-size="32.00" fill="#29235c"> &#160;&#160;&#160;</text>
<text text-anchor="start" x="525.38" y="-931.16" font-family="Helvetica,sans-Serif" font-style="italic" font-size="32.00" fill="#29235c">integer</text>
<text text-anchor="start" x="623.18" y="-931.16" font-family="Helvetica,sans-Serif" font-size="32.00" fill="#29235c"> </text>
<text text-anchor="start" x="632.07" y="-931.16" font-family="Helvetica,sans-Serif" font-weight="bold" font-size="32.00" fill="#29235c">(!)</text>
<polygon fill="#e7e2dd" stroke="transparent" points="118.27,-849.96 118.27,-909.96 673.27,-909.96 673.27,-849.96 118.27,-849.96"/>
<polygon fill="none" stroke="#29235c" points="118.27,-849.96 118.27,-909.96 673.27,-909.96 673.27,-849.96 118.27,-849.96"/>
<text text-anchor="start" x="129.27" y="-871.16" font-family="Helvetica,sans-Serif" font-weight="bold" font-size="32.00" fill="#29235c">execution_id</text>
<text text-anchor="start" x="308.89" y="-871.16" font-family="Helvetica,sans-Serif" font-size="32.00" fill="#29235c"> &#160;&#160;&#160;</text>
<text text-anchor="start" x="525.38" y="-871.16" font-family="Helvetica,sans-Serif" font-style="italic" font-size="32.00" fill="#29235c">integer</text>
<text text-anchor="start" x="623.18" y="-871.16" font-family="Helvetica,sans-Serif" font-size="32.00" fill="#29235c"> </text>
<text text-anchor="start" x="632.07" y="-871.16" font-family="Helvetica,sans-Serif" font-weight="bold" font-size="32.00" fill="#29235c">(!)</text>
<polygon fill="#e7e2dd" stroke="transparent" points="118.27,-789.96 118.27,-849.96 673.27,-849.96 673.27,-789.96 118.27,-789.96"/>
<polygon fill="none" stroke="#29235c" points="118.27,-789.96 118.27,-849.96 673.27,-849.96 673.27,-789.96 118.27,-789.96"/>
<text text-anchor="start" x="129.27" y="-810.16" font-family="Helvetica,sans-Serif" font-size="32.00" fill="#29235c">execution_info &#160;&#160;&#160;</text>
<text text-anchor="start" x="571.61" y="-811.16" font-family="Helvetica,sans-Serif" font-style="italic" font-size="32.00" fill="#29235c">text</text>
<text text-anchor="start" x="623.18" y="-811.16" font-family="Helvetica,sans-Serif" font-size="32.00" fill="#29235c"> </text>
<text text-anchor="start" x="632.07" y="-811.16" font-family="Helvetica,sans-Serif" font-weight="bold" font-size="32.00" fill="#29235c">(!)</text>
<polygon fill="#e7e2dd" stroke="transparent" points="118.27,-729.96 118.27,-789.96 673.27,-789.96 673.27,-729.96 118.27,-729.96"/>
<polygon fill="none" stroke="#29235c" points="118.27,-729.96 118.27,-789.96 673.27,-789.96 673.27,-729.96 118.27,-729.96"/>
<text text-anchor="start" x="129.27" y="-750.16" font-family="Helvetica,sans-Serif" font-size="32.00" fill="#29235c">finished_at &#160;&#160;&#160;</text>
<text text-anchor="start" x="525.38" y="-751.16" font-family="Helvetica,sans-Serif" font-style="italic" font-size="32.00" fill="#29235c">integer</text>
<text text-anchor="start" x="623.18" y="-751.16" font-family="Helvetica,sans-Serif" font-size="32.00" fill="#29235c"> </text>
<text text-anchor="start" x="632.07" y="-751.16" font-family="Helvetica,sans-Serif" font-weight="bold" font-size="32.00" fill="#29235c">(!)</text>
<polygon fill="none" stroke="#29235c" stroke-width="2" points="116.77,-728.96 116.77,-1030.96 673.77,-1030.96 673.77,-728.96 116.77,-728.96"/>
</g>
<!-- scraper_executions -->
<g id="scraper_executions" class="node">
<title>scraper_executions</title>
<ellipse fill="none" stroke="black" stroke-width="0" cx="1170.91" cy="-879.96" rx="301.87" ry="214.92"/>
<polygon fill="#1d71b8" stroke="transparent" points="959.91,-969.96 959.91,-1029.96 1382.91,-1029.96 1382.91,-969.96 959.91,-969.96"/>
<polygon fill="none" stroke="#29235c" points="959.91,-969.96 959.91,-1029.96 1382.91,-1029.96 1382.91,-969.96 959.91,-969.96"/>
<text text-anchor="start" x="970.46" y="-991.16" font-family="Helvetica,sans-Serif" font-weight="bold" font-size="32.00" fill="#ffffff"> &#160;&#160;&#160;&#160;&#160;&#160;scraper_executions &#160;&#160;&#160;&#160;&#160;&#160;</text>
<polygon fill="#e7e2dd" stroke="transparent" points="959.91,-909.96 959.91,-969.96 1382.91,-969.96 1382.91,-909.96 959.91,-909.96"/>
<polygon fill="none" stroke="#29235c" points="959.91,-909.96 959.91,-969.96 1382.91,-969.96 1382.91,-909.96 959.91,-909.96"/>
<text text-anchor="start" x="970.91" y="-931.16" font-family="Helvetica,sans-Serif" font-weight="bold" font-size="32.00" fill="#29235c">id</text>
<text text-anchor="start" x="995.8" y="-931.16" font-family="Helvetica,sans-Serif" font-size="32.00" fill="#29235c"> &#160;&#160;&#160;</text>
<text text-anchor="start" x="1235.01" y="-931.16" font-family="Helvetica,sans-Serif" font-style="italic" font-size="32.00" fill="#29235c">integer</text>
<text text-anchor="start" x="1332.82" y="-931.16" font-family="Helvetica,sans-Serif" font-size="32.00" fill="#29235c"> </text>
<text text-anchor="start" x="1341.71" y="-931.16" font-family="Helvetica,sans-Serif" font-weight="bold" font-size="32.00" fill="#29235c">(!)</text>
<polygon fill="#e7e2dd" stroke="transparent" points="959.91,-849.96 959.91,-909.96 1382.91,-909.96 1382.91,-849.96 959.91,-849.96"/>
<polygon fill="none" stroke="#29235c" points="959.91,-849.96 959.91,-909.96 1382.91,-909.96 1382.91,-849.96 959.91,-849.96"/>
<text text-anchor="start" x="970.91" y="-870.16" font-family="Helvetica,sans-Serif" font-size="32.00" fill="#29235c">scraper_id &#160;&#160;&#160;</text>
<text text-anchor="start" x="1235.01" y="-871.16" font-family="Helvetica,sans-Serif" font-style="italic" font-size="32.00" fill="#29235c">integer</text>
<text text-anchor="start" x="1332.82" y="-871.16" font-family="Helvetica,sans-Serif" font-size="32.00" fill="#29235c"> </text>
<text text-anchor="start" x="1341.71" y="-871.16" font-family="Helvetica,sans-Serif" font-weight="bold" font-size="32.00" fill="#29235c">(!)</text>
<polygon fill="#e7e2dd" stroke="transparent" points="959.91,-789.96 959.91,-849.96 1382.91,-849.96 1382.91,-789.96 959.91,-789.96"/>
<polygon fill="none" stroke="#29235c" points="959.91,-789.96 959.91,-849.96 1382.91,-849.96 1382.91,-789.96 959.91,-789.96"/>
<text text-anchor="start" x="970.91" y="-810.16" font-family="Helvetica,sans-Serif" font-size="32.00" fill="#29235c">iterator &#160;&#160;&#160;</text>
<text text-anchor="start" x="1320.33" y="-811.16" font-family="Helvetica,sans-Serif" font-style="italic" font-size="32.00" fill="#29235c">text</text>
<polygon fill="#e7e2dd" stroke="transparent" points="959.91,-729.96 959.91,-789.96 1382.91,-789.96 1382.91,-729.96 959.91,-729.96"/>
<polygon fill="none" stroke="#29235c" points="959.91,-729.96 959.91,-789.96 1382.91,-789.96 1382.91,-729.96 959.91,-729.96"/>
<text text-anchor="start" x="970.91" y="-750.16" font-family="Helvetica,sans-Serif" font-size="32.00" fill="#29235c">created_at &#160;&#160;&#160;</text>
<text text-anchor="start" x="1235.01" y="-751.16" font-family="Helvetica,sans-Serif" font-style="italic" font-size="32.00" fill="#29235c">integer</text>
<text text-anchor="start" x="1332.82" y="-751.16" font-family="Helvetica,sans-Serif" font-size="32.00" fill="#29235c"> </text>
<text text-anchor="start" x="1341.71" y="-751.16" font-family="Helvetica,sans-Serif" font-weight="bold" font-size="32.00" fill="#29235c">(!)</text>
<polygon fill="none" stroke="#29235c" stroke-width="2" points="958.41,-728.96 958.41,-1030.96 1383.41,-1030.96 1383.41,-728.96 958.41,-728.96"/>
</g>
<!-- scraper_execution_iterations&#45;&gt;scraper_executions -->
<!-- scraper_execution_iterations&#45;&gt;scraper_executions -->
<g id="edge6" class="edge">
<title>scraper_execution_iterations:e&#45;&gt;scraper_executions:w</title>
<path fill="none" stroke="#29235c" stroke-width="3" d="M674.27,-879.96C800.15,-879.96 828.18,-936.84 948.89,-939.84"/>
<polygon fill="#29235c" stroke="#29235c" stroke-width="3" points="948.86,-943.34 958.91,-939.96 948.95,-936.34 948.86,-943.34"/>
<text text-anchor="middle" x="950.01" y="-949.56" font-family="Helvetica,sans-Serif" font-size="32.00" fill="#29235c">1</text>
<text text-anchor="middle" x="668.05" y="-889.56" font-family="Helvetica,sans-Serif" font-size="32.00" fill="#29235c">*</text>
</g>
<!-- scraper_executions&#45;&gt;scrapers -->
<!-- scraper_executions&#45;&gt;scrapers -->
<g id="edge8" class="edge">
<title>scraper_executions:e&#45;&gt;scrapers:w</title>
<path fill="none" stroke="#29235c" stroke-width="3" d="M1383.91,-879.96C1501.46,-879.96 1527.03,-936.61 1639.37,-939.82"/>
<polygon fill="#29235c" stroke="#29235c" stroke-width="3" points="1639.38,-943.32 1649.42,-939.96 1639.47,-936.32 1639.38,-943.32"/>
<text text-anchor="middle" x="1640.53" y="-911.16" font-family="Helvetica,sans-Serif" font-size="32.00" fill="#29235c">1</text>
<text text-anchor="middle" x="1390.13" y="-889.56" font-family="Helvetica,sans-Serif" font-size="32.00" fill="#29235c">*</text>
</g>
<!-- notifications -->
<g id="notifications" class="node">
<title>notifications</title>
<ellipse fill="none" stroke="black" stroke-width="0" cx="395.27" cy="-1327.96" rx="246.15" ry="214.92"/>
<polygon fill="#1d71b8" stroke="transparent" points="223.27,-1417.96 223.27,-1477.96 567.27,-1477.96 567.27,-1417.96 223.27,-1417.96"/>
<polygon fill="none" stroke="#29235c" points="223.27,-1417.96 223.27,-1477.96 567.27,-1477.96 567.27,-1417.96 223.27,-1417.96"/>
<text text-anchor="start" x="248.56" y="-1439.16" font-family="Helvetica,sans-Serif" font-weight="bold" font-size="32.00" fill="#ffffff"> &#160;&#160;&#160;&#160;&#160;&#160;notifications &#160;&#160;&#160;&#160;&#160;&#160;</text>
<polygon fill="#e7e2dd" stroke="transparent" points="223.27,-1357.96 223.27,-1417.96 567.27,-1417.96 567.27,-1357.96 223.27,-1357.96"/>
<polygon fill="none" stroke="#29235c" points="223.27,-1357.96 223.27,-1417.96 567.27,-1417.96 567.27,-1357.96 223.27,-1357.96"/>
<text text-anchor="start" x="234.27" y="-1379.16" font-family="Helvetica,sans-Serif" font-weight="bold" font-size="32.00" fill="#29235c">id</text>
<text text-anchor="start" x="259.16" y="-1379.16" font-family="Helvetica,sans-Serif" font-size="32.00" fill="#29235c"> &#160;&#160;&#160;</text>
<text text-anchor="start" x="419.38" y="-1379.16" font-family="Helvetica,sans-Serif" font-style="italic" font-size="32.00" fill="#29235c">integer</text>
<text text-anchor="start" x="517.18" y="-1379.16" font-family="Helvetica,sans-Serif" font-size="32.00" fill="#29235c"> </text>
<text text-anchor="start" x="526.07" y="-1379.16" font-family="Helvetica,sans-Serif" font-weight="bold" font-size="32.00" fill="#29235c">(!)</text>
<polygon fill="#e7e2dd" stroke="transparent" points="223.27,-1297.96 223.27,-1357.96 567.27,-1357.96 567.27,-1297.96 223.27,-1297.96"/>
<polygon fill="none" stroke="#29235c" points="223.27,-1297.96 223.27,-1357.96 567.27,-1357.96 567.27,-1297.96 223.27,-1297.96"/>
<text text-anchor="start" x="233.9" y="-1318.16" font-family="Helvetica,sans-Serif" font-size="32.00" fill="#29235c">created_at &#160;&#160;&#160;</text>
<text text-anchor="start" x="419.83" y="-1319.16" font-family="Helvetica,sans-Serif" font-style="italic" font-size="32.00" fill="#29235c">integer</text>
<text text-anchor="start" x="517.63" y="-1319.16" font-family="Helvetica,sans-Serif" font-size="32.00" fill="#29235c"> </text>
<text text-anchor="start" x="526.52" y="-1319.16" font-family="Helvetica,sans-Serif" font-weight="bold" font-size="32.00" fill="#29235c">(!)</text>
<polygon fill="#e7e2dd" stroke="transparent" points="223.27,-1237.96 223.27,-1297.96 567.27,-1297.96 567.27,-1237.96 223.27,-1237.96"/>
<polygon fill="none" stroke="#29235c" points="223.27,-1237.96 223.27,-1297.96 567.27,-1297.96 567.27,-1237.96 223.27,-1237.96"/>
<text text-anchor="start" x="234.27" y="-1258.16" font-family="Helvetica,sans-Serif" font-size="32.00" fill="#29235c">read &#160;&#160;&#160;</text>
<text text-anchor="start" x="419.38" y="-1259.16" font-family="Helvetica,sans-Serif" font-style="italic" font-size="32.00" fill="#29235c">integer</text>
<text text-anchor="start" x="517.18" y="-1259.16" font-family="Helvetica,sans-Serif" font-size="32.00" fill="#29235c"> </text>
<text text-anchor="start" x="526.07" y="-1259.16" font-family="Helvetica,sans-Serif" font-weight="bold" font-size="32.00" fill="#29235c">(!)</text>
<polygon fill="#e7e2dd" stroke="transparent" points="223.27,-1177.96 223.27,-1237.96 567.27,-1237.96 567.27,-1177.96 223.27,-1177.96"/>
<polygon fill="none" stroke="#29235c" points="223.27,-1177.96 223.27,-1237.96 567.27,-1237.96 567.27,-1177.96 223.27,-1177.96"/>
<text text-anchor="start" x="234.27" y="-1198.16" font-family="Helvetica,sans-Serif" font-size="32.00" fill="#29235c">data &#160;&#160;&#160;</text>
<text text-anchor="start" x="465.61" y="-1199.16" font-family="Helvetica,sans-Serif" font-style="italic" font-size="32.00" fill="#29235c">text</text>
<text text-anchor="start" x="517.18" y="-1199.16" font-family="Helvetica,sans-Serif" font-size="32.00" fill="#29235c"> </text>
<text text-anchor="start" x="526.07" y="-1199.16" font-family="Helvetica,sans-Serif" font-weight="bold" font-size="32.00" fill="#29235c">(!)</text>
<polygon fill="none" stroke="#29235c" stroke-width="2" points="222.27,-1176.96 222.27,-1478.96 568.27,-1478.96 568.27,-1176.96 222.27,-1176.96"/>
</g>
</g>
</svg>
