<?xml version="1.0" encoding="UTF-8" standalone="no"?>
<!DOCTYPE svg PUBLIC "-//W3C//DTD SVG 1.1//EN"
 "http://www.w3.org/Graphics/SVG/1.1/DTD/svg11.dtd">
<!-- Generated by graphviz version 2.47.0 (20210316.0004)
 -->
<!-- Title: dbml Pages: 1 -->
<svg width="1335pt" height="1248pt"
 viewBox="0.00 0.00 1335.18 1248.07" xmlns="http://www.w3.org/2000/svg" xmlns:xlink="http://www.w3.org/1999/xlink">
<g id="graph0" class="graph" transform="scale(1 1) rotate(0) translate(4 1244.07)">
<title>dbml</title>
<!-- preferences -->
<g id="preferences" class="node">
<title>preferences</title>
<ellipse fill="none" stroke="black" stroke-width="0" cx="351.43" cy="-130.11" rx="225.63" ry="130.22"/>
<polygon fill="#1d71b8" stroke="transparent" points="194.43,-160.11 194.43,-220.11 509.43,-220.11 509.43,-160.11 194.43,-160.11"/>
<polygon fill="none" stroke="#29235c" points="194.43,-160.11 194.43,-220.11 509.43,-220.11 509.43,-160.11 194.43,-160.11"/>
<text text-anchor="start" x="205.22" y="-181.31" font-family="Helvetica,sans-Serif" font-weight="bold" font-size="32.00" fill="#ffffff"> &#160;&#160;&#160;&#160;&#160;&#160;preferences &#160;&#160;&#160;&#160;&#160;&#160;</text>
<polygon fill="#e7e2dd" stroke="transparent" points="194.43,-100.11 194.43,-160.11 509.43,-160.11 509.43,-100.11 194.43,-100.11"/>
<polygon fill="none" stroke="#29235c" points="194.43,-100.11 194.43,-160.11 509.43,-160.11 509.43,-100.11 194.43,-100.11"/>
<text text-anchor="start" x="205.43" y="-121.31" font-family="Helvetica,sans-Serif" font-weight="bold" font-size="32.00" fill="#29235c">key</text>
<text text-anchor="start" x="255.22" y="-121.31" font-family="Helvetica,sans-Serif" font-size="32.00" fill="#29235c"> &#160;&#160;&#160;</text>
<text text-anchor="start" x="407.77" y="-121.31" font-family="Helvetica,sans-Serif" font-style="italic" font-size="32.00" fill="#29235c">text</text>
<text text-anchor="start" x="459.34" y="-121.31" font-family="Helvetica,sans-Serif" font-size="32.00" fill="#29235c"> </text>
<text text-anchor="start" x="468.23" y="-121.31" font-family="Helvetica,sans-Serif" font-weight="bold" font-size="32.00" fill="#29235c">(!)</text>
<polygon fill="#e7e2dd" stroke="transparent" points="194.43,-40.11 194.43,-100.11 509.43,-100.11 509.43,-40.11 194.43,-40.11"/>
<polygon fill="none" stroke="#29235c" points="194.43,-40.11 194.43,-100.11 509.43,-100.11 509.43,-40.11 194.43,-40.11"/>
<text text-anchor="start" x="205.43" y="-60.31" font-family="Helvetica,sans-Serif" font-size="32.00" fill="#29235c">value &#160;&#160;&#160;</text>
<text text-anchor="start" x="407.77" y="-61.31" font-family="Helvetica,sans-Serif" font-style="italic" font-size="32.00" fill="#29235c">text</text>
<text text-anchor="start" x="459.34" y="-61.31" font-family="Helvetica,sans-Serif" font-size="32.00" fill="#29235c"> </text>
<text text-anchor="start" x="468.23" y="-61.31" font-family="Helvetica,sans-Serif" font-weight="bold" font-size="32.00" fill="#29235c">(!)</text>
<polygon fill="none" stroke="#29235c" stroke-width="2" points="192.93,-39.11 192.93,-221.11 509.93,-221.11 509.93,-39.11 192.93,-39.11"/>
</g>
<!-- user_data_stores -->
<g id="user_data_stores" class="node">
<title>user_data_stores</title>
<ellipse fill="none" stroke="black" stroke-width="0" cx="1033.02" cy="-1025.11" rx="294.31" ry="214.92"/>
<polygon fill="#1d71b8" stroke="transparent" points="827.02,-1115.11 827.02,-1175.11 1239.02,-1175.11 1239.02,-1115.11 827.02,-1115.11"/>
<polygon fill="none" stroke="#29235c" points="827.02,-1115.11 827.02,-1175.11 1239.02,-1175.11 1239.02,-1115.11 827.02,-1115.11"/>
<text text-anchor="start" x="847.18" y="-1136.31" font-family="Helvetica,sans-Serif" font-weight="bold" font-size="32.00" fill="#ffffff"> &#160;&#160;&#160;&#160;&#160;&#160;user_data_stores &#160;&#160;&#160;&#160;&#160;&#160;</text>
<polygon fill="#e7e2dd" stroke="transparent" points="827.02,-1055.11 827.02,-1115.11 1239.02,-1115.11 1239.02,-1055.11 827.02,-1055.11"/>
<polygon fill="none" stroke="#29235c" points="827.02,-1055.11 827.02,-1115.11 1239.02,-1115.11 1239.02,-1055.11 827.02,-1055.11"/>
<text text-anchor="start" x="838.02" y="-1076.31" font-family="Helvetica,sans-Serif" font-weight="bold" font-size="32.00" fill="#29235c">table_name</text>
<text text-anchor="start" x="1005.19" y="-1076.31" font-family="Helvetica,sans-Serif" font-size="32.00" fill="#29235c"> &#160;&#160;&#160;</text>
<text text-anchor="start" x="1137.35" y="-1076.31" font-family="Helvetica,sans-Serif" font-style="italic" font-size="32.00" fill="#29235c">text</text>
<text text-anchor="start" x="1188.93" y="-1076.31" font-family="Helvetica,sans-Serif" font-size="32.00" fill="#29235c"> </text>
<text text-anchor="start" x="1197.82" y="-1076.31" font-family="Helvetica,sans-Serif" font-weight="bold" font-size="32.00" fill="#29235c">(!)</text>
<polygon fill="#e7e2dd" stroke="transparent" points="827.02,-995.11 827.02,-1055.11 1239.02,-1055.11 1239.02,-995.11 827.02,-995.11"/>
<polygon fill="none" stroke="#29235c" points="827.02,-995.11 827.02,-1055.11 1239.02,-1055.11 1239.02,-995.11 827.02,-995.11"/>
<text text-anchor="start" x="838.02" y="-1015.31" font-family="Helvetica,sans-Serif" font-size="32.00" fill="#29235c">name &#160;&#160;&#160;</text>
<text text-anchor="start" x="1137.35" y="-1016.31" font-family="Helvetica,sans-Serif" font-style="italic" font-size="32.00" fill="#29235c">text</text>
<text text-anchor="start" x="1188.93" y="-1016.31" font-family="Helvetica,sans-Serif" font-size="32.00" fill="#29235c"> </text>
<text text-anchor="start" x="1197.82" y="-1016.31" font-family="Helvetica,sans-Serif" font-weight="bold" font-size="32.00" fill="#29235c">(!)</text>
<polygon fill="#e7e2dd" stroke="transparent" points="827.02,-935.11 827.02,-995.11 1239.02,-995.11 1239.02,-935.11 827.02,-935.11"/>
<polygon fill="none" stroke="#29235c" points="827.02,-935.11 827.02,-995.11 1239.02,-995.11 1239.02,-935.11 827.02,-935.11"/>
<text text-anchor="start" x="838.02" y="-955.31" font-family="Helvetica,sans-Serif" font-size="32.00" fill="#29235c">description &#160;&#160;&#160;</text>
<text text-anchor="start" x="1176.45" y="-956.31" font-family="Helvetica,sans-Serif" font-style="italic" font-size="32.00" fill="#29235c">text</text>
<polygon fill="#e7e2dd" stroke="transparent" points="827.02,-875.11 827.02,-935.11 1239.02,-935.11 1239.02,-875.11 827.02,-875.11"/>
<polygon fill="none" stroke="#29235c" points="827.02,-875.11 827.02,-935.11 1239.02,-935.11 1239.02,-875.11 827.02,-875.11"/>
<text text-anchor="start" x="837.76" y="-895.31" font-family="Helvetica,sans-Serif" font-size="32.00" fill="#29235c">column_definitions &#160;&#160;&#160;</text>
<text text-anchor="start" x="1137.69" y="-896.31" font-family="Helvetica,sans-Serif" font-style="italic" font-size="32.00" fill="#29235c">text</text>
<text text-anchor="start" x="1189.26" y="-896.31" font-family="Helvetica,sans-Serif" font-size="32.00" fill="#29235c"> </text>
<text text-anchor="start" x="1198.15" y="-896.31" font-family="Helvetica,sans-Serif" font-weight="bold" font-size="32.00" fill="#29235c">(!)</text>
<polygon fill="none" stroke="#29235c" stroke-width="2" points="826.02,-874.11 826.02,-1176.11 1240.02,-1176.11 1240.02,-874.11 826.02,-874.11"/>
</g>
<!-- scrapers -->
<g id="scrapers" class="node">
<title>scrapers</title>
<ellipse fill="none" stroke="black" stroke-width="0" cx="1033.02" cy="-535.11" rx="279.11" ry="257.27"/>
<polygon fill="#1d71b8" stroke="transparent" points="838.02,-655.11 838.02,-715.11 1229.02,-715.11 1229.02,-655.11 838.02,-655.11"/>
<polygon fill="none" stroke="#29235c" points="838.02,-655.11 838.02,-715.11 1229.02,-715.11 1229.02,-655.11 838.02,-655.11"/>
<text text-anchor="start" x="909.93" y="-676.31" font-family="Helvetica,sans-Serif" font-weight="bold" font-size="32.00" fill="#ffffff"> &#160;&#160;&#160;&#160;&#160;&#160;scrapers &#160;&#160;&#160;&#160;&#160;&#160;</text>
<polygon fill="#e7e2dd" stroke="transparent" points="838.02,-595.11 838.02,-655.11 1229.02,-655.11 1229.02,-595.11 838.02,-595.11"/>
<polygon fill="none" stroke="#29235c" points="838.02,-595.11 838.02,-655.11 1229.02,-655.11 1229.02,-595.11 838.02,-595.11"/>
<text text-anchor="start" x="849.02" y="-616.31" font-family="Helvetica,sans-Serif" font-weight="bold" font-size="32.00" fill="#29235c">id</text>
<text text-anchor="start" x="873.91" y="-616.31" font-family="Helvetica,sans-Serif" font-size="32.00" fill="#29235c"> &#160;&#160;&#160;</text>
<text text-anchor="start" x="1081.13" y="-616.31" font-family="Helvetica,sans-Serif" font-style="italic" font-size="32.00" fill="#29235c">integer</text>
<text text-anchor="start" x="1178.93" y="-616.31" font-family="Helvetica,sans-Serif" font-size="32.00" fill="#29235c"> </text>
<text text-anchor="start" x="1187.82" y="-616.31" font-family="Helvetica,sans-Serif" font-weight="bold" font-size="32.00" fill="#29235c">(!)</text>
<polygon fill="#e7e2dd" stroke="transparent" points="838.02,-535.11 838.02,-595.11 1229.02,-595.11 1229.02,-535.11 838.02,-535.11"/>
<polygon fill="none" stroke="#29235c" points="838.02,-535.11 838.02,-595.11 1229.02,-595.11 1229.02,-535.11 838.02,-535.11"/>
<text text-anchor="start" x="849.02" y="-555.31" font-family="Helvetica,sans-Serif" font-size="32.00" fill="#29235c">name &#160;&#160;&#160;</text>
<text text-anchor="start" x="1127.35" y="-556.31" font-family="Helvetica,sans-Serif" font-style="italic" font-size="32.00" fill="#29235c">text</text>
<text text-anchor="start" x="1178.93" y="-556.31" font-family="Helvetica,sans-Serif" font-size="32.00" fill="#29235c"> </text>
<text text-anchor="start" x="1187.82" y="-556.31" font-family="Helvetica,sans-Serif" font-weight="bold" font-size="32.00" fill="#29235c">(!)</text>
<polygon fill="#e7e2dd" stroke="transparent" points="838.02,-475.11 838.02,-535.11 1229.02,-535.11 1229.02,-475.11 838.02,-475.11"/>
<polygon fill="none" stroke="#29235c" points="838.02,-475.11 838.02,-535.11 1229.02,-535.11 1229.02,-475.11 838.02,-475.11"/>
<text text-anchor="start" x="849.02" y="-495.31" font-family="Helvetica,sans-Serif" font-size="32.00" fill="#29235c">description &#160;&#160;&#160;</text>
<text text-anchor="start" x="1166.45" y="-496.31" font-family="Helvetica,sans-Serif" font-style="italic" font-size="32.00" fill="#29235c">text</text>
<polygon fill="#e7e2dd" stroke="transparent" points="838.02,-415.11 838.02,-475.11 1229.02,-475.11 1229.02,-415.11 838.02,-415.11"/>
<polygon fill="none" stroke="#29235c" points="838.02,-415.11 838.02,-475.11 1229.02,-475.11 1229.02,-415.11 838.02,-415.11"/>
<text text-anchor="start" x="849.02" y="-435.31" font-family="Helvetica,sans-Serif" font-size="32.00" fill="#29235c">instructions &#160;&#160;&#160;</text>
<text text-anchor="start" x="1127.35" y="-436.31" font-family="Helvetica,sans-Serif" font-style="italic" font-size="32.00" fill="#29235c">text</text>
<text text-anchor="start" x="1178.93" y="-436.31" font-family="Helvetica,sans-Serif" font-size="32.00" fill="#29235c"> </text>
<text text-anchor="start" x="1187.82" y="-436.31" font-family="Helvetica,sans-Serif" font-weight="bold" font-size="32.00" fill="#29235c">(!)</text>
<polygon fill="#e7e2dd" stroke="transparent" points="838.02,-355.11 838.02,-415.11 1229.02,-415.11 1229.02,-355.11 838.02,-355.11"/>
<polygon fill="none" stroke="#29235c" points="838.02,-355.11 838.02,-415.11 1229.02,-415.11 1229.02,-355.11 838.02,-355.11"/>
<text text-anchor="start" x="848.87" y="-375.31" font-family="Helvetica,sans-Serif" font-size="32.00" fill="#29235c">user_data_directory &#160;&#160;&#160;</text>
<text text-anchor="start" x="1166.73" y="-376.31" font-family="Helvetica,sans-Serif" font-style="italic" font-size="32.00" fill="#29235c">text</text>
<polygon fill="none" stroke="#29235c" stroke-width="2" points="836.52,-354.11 836.52,-716.11 1229.52,-716.11 1229.52,-354.11 836.52,-354.11"/>
</g>
<!-- scraper_data_sources -->
<g id="scraper_data_sources" class="node">
<title>scraper_data_sources</title>
<ellipse fill="none" stroke="black" stroke-width="0" cx="351.43" cy="-1025.11" rx="344.22" ry="214.92"/>
<polygon fill="#1d71b8" stroke="transparent" points="110.43,-1115.11 110.43,-1175.11 593.43,-1175.11 593.43,-1115.11 110.43,-1115.11"/>
<polygon fill="none" stroke="#29235c" points="110.43,-1115.11 110.43,-1175.11 593.43,-1175.11 593.43,-1115.11 110.43,-1115.11"/>
<text text-anchor="start" x="131.42" y="-1136.31" font-family="Helvetica,sans-Serif" font-weight="bold" font-size="32.00" fill="#ffffff"> &#160;&#160;&#160;&#160;&#160;&#160;scraper_data_sources &#160;&#160;&#160;&#160;&#160;&#160;</text>
<polygon fill="#e7e2dd" stroke="transparent" points="110.43,-1055.11 110.43,-1115.11 593.43,-1115.11 593.43,-1055.11 110.43,-1055.11"/>
<polygon fill="none" stroke="#29235c" points="110.43,-1055.11 110.43,-1115.11 593.43,-1115.11 593.43,-1055.11 110.43,-1055.11"/>
<text text-anchor="start" x="121.43" y="-1076.31" font-family="Helvetica,sans-Serif" font-weight="bold" font-size="32.00" fill="#29235c">scraper_id</text>
<text text-anchor="start" x="270.78" y="-1076.31" font-family="Helvetica,sans-Serif" font-size="32.00" fill="#29235c"> &#160;&#160;&#160;</text>
<text text-anchor="start" x="445.54" y="-1076.31" font-family="Helvetica,sans-Serif" font-style="italic" font-size="32.00" fill="#29235c">integer</text>
<text text-anchor="start" x="543.34" y="-1076.31" font-family="Helvetica,sans-Serif" font-size="32.00" fill="#29235c"> </text>
<text text-anchor="start" x="552.23" y="-1076.31" font-family="Helvetica,sans-Serif" font-weight="bold" font-size="32.00" fill="#29235c">(!)</text>
<polygon fill="#e7e2dd" stroke="transparent" points="110.43,-995.11 110.43,-1055.11 593.43,-1055.11 593.43,-995.11 110.43,-995.11"/>
<polygon fill="none" stroke="#29235c" points="110.43,-995.11 110.43,-1055.11 593.43,-1055.11 593.43,-995.11 110.43,-995.11"/>
<text text-anchor="start" x="121.08" y="-1016.31" font-family="Helvetica,sans-Serif" font-weight="bold" font-size="32.00" fill="#29235c">data_store_table_name</text>
<text text-anchor="start" x="457.21" y="-1016.31" font-family="Helvetica,sans-Serif" font-size="32.00" fill="#29235c"> &#160;&#160;&#160;</text>
<text text-anchor="start" x="492.1" y="-1016.31" font-family="Helvetica,sans-Serif" font-style="italic" font-size="32.00" fill="#29235c">text</text>
<text text-anchor="start" x="543.67" y="-1016.31" font-family="Helvetica,sans-Serif" font-size="32.00" fill="#29235c"> </text>
<text text-anchor="start" x="552.57" y="-1016.31" font-family="Helvetica,sans-Serif" font-weight="bold" font-size="32.00" fill="#29235c">(!)</text>
<polygon fill="#e7e2dd" stroke="transparent" points="110.43,-935.11 110.43,-995.11 593.43,-995.11 593.43,-935.11 110.43,-935.11"/>
<polygon fill="none" stroke="#29235c" points="110.43,-935.11 110.43,-995.11 593.43,-995.11 593.43,-935.11 110.43,-935.11"/>
<text text-anchor="start" x="121.43" y="-955.31" font-family="Helvetica,sans-Serif" font-size="32.00" fill="#29235c">source_alias &#160;&#160;&#160;</text>
<text text-anchor="start" x="491.77" y="-956.31" font-family="Helvetica,sans-Serif" font-style="italic" font-size="32.00" fill="#29235c">text</text>
<text text-anchor="start" x="543.34" y="-956.31" font-family="Helvetica,sans-Serif" font-size="32.00" fill="#29235c"> </text>
<text text-anchor="start" x="552.23" y="-956.31" font-family="Helvetica,sans-Serif" font-weight="bold" font-size="32.00" fill="#29235c">(!)</text>
<polygon fill="#e7e2dd" stroke="transparent" points="110.43,-875.11 110.43,-935.11 593.43,-935.11 593.43,-875.11 110.43,-875.11"/>
<polygon fill="none" stroke="#29235c" points="110.43,-875.11 110.43,-935.11 593.43,-935.11 593.43,-875.11 110.43,-875.11"/>
<text text-anchor="start" x="121.43" y="-895.31" font-family="Helvetica,sans-Serif" font-size="32.00" fill="#29235c">where_schema &#160;&#160;&#160;</text>
<text text-anchor="start" x="530.86" y="-896.31" font-family="Helvetica,sans-Serif" font-style="italic" font-size="32.00" fill="#29235c">text</text>
<polygon fill="none" stroke="#29235c" stroke-width="2" points="108.93,-874.11 108.93,-1176.11 593.93,-1176.11 593.93,-874.11 108.93,-874.11"/>
</g>
<!-- scraper_data_sources&#45;&gt;user_data_stores -->
<!-- scraper_data_sources&#45;&gt;user_data_stores -->
<g id="edge4" class="edge">
<title>scraper_data_sources:e&#45;&gt;user_data_stores:w</title>
<path fill="none" stroke="#29235c" stroke-width="3" d="M594.43,-1025.11C697.33,-1025.11 718.38,-1081.3 816.01,-1084.92"/>
<polygon fill="#29235c" stroke="#29235c" stroke-width="3" points="815.96,-1088.42 826.02,-1085.11 816.09,-1081.43 815.96,-1088.42"/>
<text text-anchor="middle" x="817.13" y="-1094.71" font-family="Helvetica,sans-Serif" font-size="32.00" fill="#29235c">1</text>
<text text-anchor="middle" x="600.65" y="-1034.71" font-family="Helvetica,sans-Serif" font-size="32.00" fill="#29235c">*</text>
</g>
<!-- scraper_data_sources&#45;&gt;scrapers -->
<!-- scraper_data_sources&#45;&gt;scrapers -->
<g id="edge2" class="edge">
<title>scraper_data_sources:e&#45;&gt;scrapers:w</title>
<path fill="none" stroke="#29235c" stroke-width="3" d="M594.43,-1085.11C822.07,-1085.11 612.44,-638.93 826.83,-625.42"/>
<polygon fill="#29235c" stroke="#29235c" stroke-width="3" points="827.13,-628.91 837.02,-625.11 826.92,-621.92 827.13,-628.91"/>
<text text-anchor="middle" x="828.13" y="-634.71" font-family="Helvetica,sans-Serif" font-size="32.00" fill="#29235c">1</text>
<text text-anchor="middle" x="600.65" y="-1094.71" font-family="Helvetica,sans-Serif" font-size="32.00" fill="#29235c">*</text>
</g>
<!-- scraper_execution_infos -->
<g id="scraper_execution_infos" class="node">
<title>scraper_execution_infos</title>
<ellipse fill="none" stroke="black" stroke-width="0" cx="351.43" cy="-535.11" rx="351.36" ry="257.27"/>
<polygon fill="#1d71b8" stroke="transparent" points="105.43,-655.11 105.43,-715.11 598.43,-715.11 598.43,-655.11 105.43,-655.11"/>
<polygon fill="none" stroke="#29235c" points="105.43,-655.11 105.43,-715.11 598.43,-715.11 598.43,-655.11 105.43,-655.11"/>
<text text-anchor="start" x="116.3" y="-676.31" font-family="Helvetica,sans-Serif" font-weight="bold" font-size="32.00" fill="#ffffff"> &#160;&#160;&#160;&#160;&#160;&#160;scraper_execution_infos &#160;&#160;&#160;&#160;&#160;&#160;</text>
<polygon fill="#e7e2dd" stroke="transparent" points="105.43,-595.11 105.43,-655.11 598.43,-655.11 598.43,-595.11 105.43,-595.11"/>
<polygon fill="none" stroke="#29235c" points="105.43,-595.11 105.43,-655.11 598.43,-655.11 598.43,-595.11 105.43,-595.11"/>
<text text-anchor="start" x="116.43" y="-616.31" font-family="Helvetica,sans-Serif" font-weight="bold" font-size="32.00" fill="#29235c">execution_id</text>
<text text-anchor="start" x="296.05" y="-616.31" font-family="Helvetica,sans-Serif" font-size="32.00" fill="#29235c"> &#160;&#160;&#160;</text>
<text text-anchor="start" x="496.77" y="-616.31" font-family="Helvetica,sans-Serif" font-style="italic" font-size="32.00" fill="#29235c">text</text>
<text text-anchor="start" x="548.34" y="-616.31" font-family="Helvetica,sans-Serif" font-size="32.00" fill="#29235c"> </text>
<text text-anchor="start" x="557.23" y="-616.31" font-family="Helvetica,sans-Serif" font-weight="bold" font-size="32.00" fill="#29235c">(!)</text>
<polygon fill="#e7e2dd" stroke="transparent" points="105.43,-535.11 105.43,-595.11 598.43,-595.11 598.43,-535.11 105.43,-535.11"/>
<polygon fill="none" stroke="#29235c" points="105.43,-535.11 105.43,-595.11 598.43,-595.11 598.43,-535.11 105.43,-535.11"/>
<text text-anchor="start" x="116.43" y="-556.31" font-family="Helvetica,sans-Serif" font-weight="bold" font-size="32.00" fill="#29235c">iteration</text>
<text text-anchor="start" x="230.23" y="-556.31" font-family="Helvetica,sans-Serif" font-size="32.00" fill="#29235c"> &#160;&#160;&#160;</text>
<text text-anchor="start" x="450.54" y="-556.31" font-family="Helvetica,sans-Serif" font-style="italic" font-size="32.00" fill="#29235c">integer</text>
<text text-anchor="start" x="548.34" y="-556.31" font-family="Helvetica,sans-Serif" font-size="32.00" fill="#29235c"> </text>
<text text-anchor="start" x="557.23" y="-556.31" font-family="Helvetica,sans-Serif" font-weight="bold" font-size="32.00" fill="#29235c">(!)</text>
<polygon fill="#e7e2dd" stroke="transparent" points="105.43,-475.11 105.43,-535.11 598.43,-535.11 598.43,-475.11 105.43,-475.11"/>
<polygon fill="none" stroke="#29235c" points="105.43,-475.11 105.43,-535.11 598.43,-535.11 598.43,-475.11 105.43,-475.11"/>
<text text-anchor="start" x="116.43" y="-495.31" font-family="Helvetica,sans-Serif" font-size="32.00" fill="#29235c">scraper_id &#160;&#160;&#160;</text>
<text text-anchor="start" x="450.54" y="-496.31" font-family="Helvetica,sans-Serif" font-style="italic" font-size="32.00" fill="#29235c">integer</text>
<text text-anchor="start" x="548.34" y="-496.31" font-family="Helvetica,sans-Serif" font-size="32.00" fill="#29235c"> </text>
<text text-anchor="start" x="557.23" y="-496.31" font-family="Helvetica,sans-Serif" font-weight="bold" font-size="32.00" fill="#29235c">(!)</text>
<polygon fill="#e7e2dd" stroke="transparent" points="105.43,-415.11 105.43,-475.11 598.43,-475.11 598.43,-415.11 105.43,-415.11"/>
<polygon fill="none" stroke="#29235c" points="105.43,-415.11 105.43,-475.11 598.43,-475.11 598.43,-415.11 105.43,-415.11"/>
<text text-anchor="start" x="116.43" y="-435.31" font-family="Helvetica,sans-Serif" font-size="32.00" fill="#29235c">execution_info &#160;&#160;&#160;</text>
<text text-anchor="start" x="496.77" y="-436.31" font-family="Helvetica,sans-Serif" font-style="italic" font-size="32.00" fill="#29235c">text</text>
<text text-anchor="start" x="548.34" y="-436.31" font-family="Helvetica,sans-Serif" font-size="32.00" fill="#29235c"> </text>
<text text-anchor="start" x="557.23" y="-436.31" font-family="Helvetica,sans-Serif" font-weight="bold" font-size="32.00" fill="#29235c">(!)</text>
<polygon fill="#e7e2dd" stroke="transparent" points="105.43,-355.11 105.43,-415.11 598.43,-415.11 598.43,-355.11 105.43,-355.11"/>
<polygon fill="none" stroke="#29235c" points="105.43,-355.11 105.43,-415.11 598.43,-415.11 598.43,-355.11 105.43,-355.11"/>
<text text-anchor="start" x="116.43" y="-375.31" font-family="Helvetica,sans-Serif" font-size="32.00" fill="#29235c">created_at &#160;&#160;&#160;</text>
<text text-anchor="start" x="450.54" y="-376.31" font-family="Helvetica,sans-Serif" font-style="italic" font-size="32.00" fill="#29235c">integer</text>
<text text-anchor="start" x="548.34" y="-376.31" font-family="Helvetica,sans-Serif" font-size="32.00" fill="#29235c"> </text>
<text text-anchor="start" x="557.23" y="-376.31" font-family="Helvetica,sans-Serif" font-weight="bold" font-size="32.00" fill="#29235c">(!)</text>
<polygon fill="none" stroke="#29235c" stroke-width="2" points="103.93,-354.11 103.93,-716.11 598.93,-716.11 598.93,-354.11 103.93,-354.11"/>
</g>
<!-- scraper_execution_infos&#45;&gt;scrapers -->
<!-- scraper_execution_infos&#45;&gt;scrapers -->
<g id="edge6" class="edge">
<title>scraper_execution_infos:e&#45;&gt;scrapers:w</title>
<path fill="none" stroke="#29235c" stroke-width="3" d="M599.43,-505.11C714.27,-505.11 718.56,-618.18 826.92,-624.8"/>
<polygon fill="#29235c" stroke="#29235c" stroke-width="3" points="826.92,-628.31 837.02,-625.11 827.13,-621.31 826.92,-628.31"/>
<text text-anchor="middle" x="828.13" y="-596.31" font-family="Helvetica,sans-Serif" font-size="32.00" fill="#29235c">1</text>
<text text-anchor="middle" x="605.65" y="-514.71" font-family="Helvetica,sans-Serif" font-size="32.00" fill="#29235c">*</text>
</g>
</g>
</svg>
