<?xml version="1.0" encoding="UTF-8" standalone="no"?>
<!DOCTYPE svg PUBLIC "-//W3C//DTD SVG 1.1//EN"
 "http://www.w3.org/Graphics/SVG/1.1/DTD/svg11.dtd">
<!-- Generated by graphviz version 2.47.0 (20210316.0004)
 -->
<!-- Title: dbml Pages: 1 -->
<svg width="2538pt" height="2019pt"
 viewBox="0.00 0.00 2537.90 2019.48" xmlns="http://www.w3.org/2000/svg" xmlns:xlink="http://www.w3.org/1999/xlink">
<g id="graph0" class="graph" transform="scale(1 1) rotate(0) translate(4 2015.48)">
<title>dbml</title>
<!-- preferences -->
<g id="preferences" class="node">
<title>preferences</title>
<ellipse fill="none" stroke="black" stroke-width="0" cx="395.27" cy="-476.96" rx="225.63" ry="130.22"/>
<polygon fill="#1d71b8" stroke="transparent" points="238.27,-506.96 238.27,-566.96 553.27,-566.96 553.27,-506.96 238.27,-506.96"/>
<polygon fill="none" stroke="#29235c" points="238.27,-506.96 238.27,-566.96 553.27,-566.96 553.27,-506.96 238.27,-506.96"/>
<text text-anchor="start" x="249.06" y="-528.16" font-family="Helvetica,sans-Serif" font-weight="bold" font-size="32.00" fill="#ffffff"> &#160;&#160;&#160;&#160;&#160;&#160;preferences &#160;&#160;&#160;&#160;&#160;&#160;</text>
<polygon fill="#e7e2dd" stroke="transparent" points="238.27,-446.96 238.27,-506.96 553.27,-506.96 553.27,-446.96 238.27,-446.96"/>
<polygon fill="none" stroke="#29235c" points="238.27,-446.96 238.27,-506.96 553.27,-506.96 553.27,-446.96 238.27,-446.96"/>
<text text-anchor="start" x="249.27" y="-468.16" font-family="Helvetica,sans-Serif" font-weight="bold" font-size="32.00" fill="#29235c">key</text>
<text text-anchor="start" x="299.06" y="-468.16" font-family="Helvetica,sans-Serif" font-size="32.00" fill="#29235c"> &#160;&#160;&#160;</text>
<text text-anchor="start" x="451.61" y="-468.16" font-family="Helvetica,sans-Serif" font-style="italic" font-size="32.00" fill="#29235c">text</text>
<text text-anchor="start" x="503.18" y="-468.16" font-family="Helvetica,sans-Serif" font-size="32.00" fill="#29235c"> </text>
<text text-anchor="start" x="512.07" y="-468.16" font-family="Helvetica,sans-Serif" font-weight="bold" font-size="32.00" fill="#29235c">(!)</text>
<polygon fill="#e7e2dd" stroke="transparent" points="238.27,-386.96 238.27,-446.96 553.27,-446.96 553.27,-386.96 238.27,-386.96"/>
<polygon fill="none" stroke="#29235c" points="238.27,-386.96 238.27,-446.96 553.27,-446.96 553.27,-386.96 238.27,-386.96"/>
<text text-anchor="start" x="249.27" y="-407.16" font-family="Helvetica,sans-Serif" font-size="32.00" fill="#29235c">value &#160;&#160;&#160;</text>
<text text-anchor="start" x="451.61" y="-408.16" font-family="Helvetica,sans-Serif" font-style="italic" font-size="32.00" fill="#29235c">text</text>
<text text-anchor="start" x="503.18" y="-408.16" font-family="Helvetica,sans-Serif" font-size="32.00" fill="#29235c"> </text>
<text text-anchor="start" x="512.07" y="-408.16" font-family="Helvetica,sans-Serif" font-weight="bold" font-size="32.00" fill="#29235c">(!)</text>
<polygon fill="none" stroke="#29235c" stroke-width="2" points="236.77,-385.96 236.77,-567.96 553.77,-567.96 553.77,-385.96 236.77,-385.96"/>
</g>
<!-- scraper_data_sources -->
<g id="scraper_data_sources" class="node">
<title>scraper_data_sources</title>
<ellipse fill="none" stroke="black" stroke-width="0" cx="1366.07" cy="-313.96" rx="344.22" ry="214.92"/>
<polygon fill="#1d71b8" stroke="transparent" points="1125.07,-403.96 1125.07,-463.96 1608.07,-463.96 1608.07,-403.96 1125.07,-403.96"/>
<polygon fill="none" stroke="#29235c" points="1125.07,-403.96 1125.07,-463.96 1608.07,-463.96 1608.07,-403.96 1125.07,-403.96"/>
<text text-anchor="start" x="1146.05" y="-425.16" font-family="Helvetica,sans-Serif" font-weight="bold" font-size="32.00" fill="#ffffff"> &#160;&#160;&#160;&#160;&#160;&#160;scraper_data_sources &#160;&#160;&#160;&#160;&#160;&#160;</text>
<polygon fill="#e7e2dd" stroke="transparent" points="1125.07,-343.96 1125.07,-403.96 1608.07,-403.96 1608.07,-343.96 1125.07,-343.96"/>
<polygon fill="none" stroke="#29235c" points="1125.07,-343.96 1125.07,-403.96 1608.07,-403.96 1608.07,-343.96 1125.07,-343.96"/>
<text text-anchor="start" x="1136.07" y="-365.16" font-family="Helvetica,sans-Serif" font-weight="bold" font-size="32.00" fill="#29235c">scraper_id</text>
<text text-anchor="start" x="1285.42" y="-365.16" font-family="Helvetica,sans-Serif" font-size="32.00" fill="#29235c"> &#160;&#160;&#160;</text>
<text text-anchor="start" x="1460.18" y="-365.16" font-family="Helvetica,sans-Serif" font-style="italic" font-size="32.00" fill="#29235c">integer</text>
<text text-anchor="start" x="1557.98" y="-365.16" font-family="Helvetica,sans-Serif" font-size="32.00" fill="#29235c"> </text>
<text text-anchor="start" x="1566.87" y="-365.16" font-family="Helvetica,sans-Serif" font-weight="bold" font-size="32.00" fill="#29235c">(!)</text>
<polygon fill="#e7e2dd" stroke="transparent" points="1125.07,-283.96 1125.07,-343.96 1608.07,-343.96 1608.07,-283.96 1125.07,-283.96"/>
<polygon fill="none" stroke="#29235c" points="1125.07,-283.96 1125.07,-343.96 1608.07,-343.96 1608.07,-283.96 1125.07,-283.96"/>
<text text-anchor="start" x="1135.72" y="-305.16" font-family="Helvetica,sans-Serif" font-weight="bold" font-size="32.00" fill="#29235c">data_store_table_name</text>
<text text-anchor="start" x="1471.85" y="-305.16" font-family="Helvetica,sans-Serif" font-size="32.00" fill="#29235c"> &#160;&#160;&#160;</text>
<text text-anchor="start" x="1506.74" y="-305.16" font-family="Helvetica,sans-Serif" font-style="italic" font-size="32.00" fill="#29235c">text</text>
<text text-anchor="start" x="1558.31" y="-305.16" font-family="Helvetica,sans-Serif" font-size="32.00" fill="#29235c"> </text>
<text text-anchor="start" x="1567.2" y="-305.16" font-family="Helvetica,sans-Serif" font-weight="bold" font-size="32.00" fill="#29235c">(!)</text>
<polygon fill="#e7e2dd" stroke="transparent" points="1125.07,-223.96 1125.07,-283.96 1608.07,-283.96 1608.07,-223.96 1125.07,-223.96"/>
<polygon fill="none" stroke="#29235c" points="1125.07,-223.96 1125.07,-283.96 1608.07,-283.96 1608.07,-223.96 1125.07,-223.96"/>
<text text-anchor="start" x="1136.07" y="-244.16" font-family="Helvetica,sans-Serif" font-size="32.00" fill="#29235c">source_alias &#160;&#160;&#160;</text>
<text text-anchor="start" x="1506.4" y="-245.16" font-family="Helvetica,sans-Serif" font-style="italic" font-size="32.00" fill="#29235c">text</text>
<text text-anchor="start" x="1557.98" y="-245.16" font-family="Helvetica,sans-Serif" font-size="32.00" fill="#29235c"> </text>
<text text-anchor="start" x="1566.87" y="-245.16" font-family="Helvetica,sans-Serif" font-weight="bold" font-size="32.00" fill="#29235c">(!)</text>
<polygon fill="#e7e2dd" stroke="transparent" points="1125.07,-163.96 1125.07,-223.96 1608.07,-223.96 1608.07,-163.96 1125.07,-163.96"/>
<polygon fill="none" stroke="#29235c" points="1125.07,-163.96 1125.07,-223.96 1608.07,-223.96 1608.07,-163.96 1125.07,-163.96"/>
<text text-anchor="start" x="1136.07" y="-184.16" font-family="Helvetica,sans-Serif" font-size="32.00" fill="#29235c">where_schema &#160;&#160;&#160;</text>
<text text-anchor="start" x="1545.49" y="-185.16" font-family="Helvetica,sans-Serif" font-style="italic" font-size="32.00" fill="#29235c">text</text>
<polygon fill="none" stroke="#29235c" stroke-width="2" points="1123.57,-162.96 1123.57,-464.96 1608.57,-464.96 1608.57,-162.96 1123.57,-162.96"/>
</g>
<!-- scrapers -->
<g id="scrapers" class="node">
<title>scrapers</title>
<ellipse fill="none" stroke="black" stroke-width="0" cx="2235.75" cy="-789.96" rx="279.11" ry="342.48"/>
<polygon fill="#1d71b8" stroke="transparent" points="2040.75,-969.96 2040.75,-1029.96 2431.75,-1029.96 2431.75,-969.96 2040.75,-969.96"/>
<polygon fill="none" stroke="#29235c" points="2040.75,-969.96 2040.75,-1029.96 2431.75,-1029.96 2431.75,-969.96 2040.75,-969.96"/>
<text text-anchor="start" x="2112.66" y="-991.16" font-family="Helvetica,sans-Serif" font-weight="bold" font-size="32.00" fill="#ffffff"> &#160;&#160;&#160;&#160;&#160;&#160;scrapers &#160;&#160;&#160;&#160;&#160;&#160;</text>
<polygon fill="#e7e2dd" stroke="transparent" points="2040.75,-909.96 2040.75,-969.96 2431.75,-969.96 2431.75,-909.96 2040.75,-909.96"/>
<polygon fill="none" stroke="#29235c" points="2040.75,-909.96 2040.75,-969.96 2431.75,-969.96 2431.75,-909.96 2040.75,-909.96"/>
<text text-anchor="start" x="2051.75" y="-931.16" font-family="Helvetica,sans-Serif" font-weight="bold" font-size="32.00" fill="#29235c">id</text>
<text text-anchor="start" x="2076.64" y="-931.16" font-family="Helvetica,sans-Serif" font-size="32.00" fill="#29235c"> &#160;&#160;&#160;</text>
<text text-anchor="start" x="2283.85" y="-931.16" font-family="Helvetica,sans-Serif" font-style="italic" font-size="32.00" fill="#29235c">integer</text>
<text text-anchor="start" x="2381.66" y="-931.16" font-family="Helvetica,sans-Serif" font-size="32.00" fill="#29235c"> </text>
<text text-anchor="start" x="2390.55" y="-931.16" font-family="Helvetica,sans-Serif" font-weight="bold" font-size="32.00" fill="#29235c">(!)</text>
<polygon fill="#e7e2dd" stroke="transparent" points="2040.75,-849.96 2040.75,-909.96 2431.75,-909.96 2431.75,-849.96 2040.75,-849.96"/>
<polygon fill="none" stroke="#29235c" points="2040.75,-849.96 2040.75,-909.96 2431.75,-909.96 2431.75,-849.96 2040.75,-849.96"/>
<text text-anchor="start" x="2051.75" y="-870.16" font-family="Helvetica,sans-Serif" font-size="32.00" fill="#29235c">name &#160;&#160;&#160;</text>
<text text-anchor="start" x="2330.08" y="-871.16" font-family="Helvetica,sans-Serif" font-style="italic" font-size="32.00" fill="#29235c">text</text>
<text text-anchor="start" x="2381.66" y="-871.16" font-family="Helvetica,sans-Serif" font-size="32.00" fill="#29235c"> </text>
<text text-anchor="start" x="2390.55" y="-871.16" font-family="Helvetica,sans-Serif" font-weight="bold" font-size="32.00" fill="#29235c">(!)</text>
<polygon fill="#e7e2dd" stroke="transparent" points="2040.75,-789.96 2040.75,-849.96 2431.75,-849.96 2431.75,-789.96 2040.75,-789.96"/>
<polygon fill="none" stroke="#29235c" points="2040.75,-789.96 2040.75,-849.96 2431.75,-849.96 2431.75,-789.96 2040.75,-789.96"/>
<text text-anchor="start" x="2051.75" y="-810.16" font-family="Helvetica,sans-Serif" font-size="32.00" fill="#29235c">description &#160;&#160;&#160;</text>
<text text-anchor="start" x="2369.17" y="-811.16" font-family="Helvetica,sans-Serif" font-style="italic" font-size="32.00" fill="#29235c">text</text>
<polygon fill="#e7e2dd" stroke="transparent" points="2040.75,-729.96 2040.75,-789.96 2431.75,-789.96 2431.75,-729.96 2040.75,-729.96"/>
<polygon fill="none" stroke="#29235c" points="2040.75,-729.96 2040.75,-789.96 2431.75,-789.96 2431.75,-729.96 2040.75,-729.96"/>
<text text-anchor="start" x="2051.75" y="-750.16" font-family="Helvetica,sans-Serif" font-size="32.00" fill="#29235c">instructions &#160;&#160;&#160;</text>
<text text-anchor="start" x="2330.08" y="-751.16" font-family="Helvetica,sans-Serif" font-style="italic" font-size="32.00" fill="#29235c">text</text>
<text text-anchor="start" x="2381.66" y="-751.16" font-family="Helvetica,sans-Serif" font-size="32.00" fill="#29235c"> </text>
<text text-anchor="start" x="2390.55" y="-751.16" font-family="Helvetica,sans-Serif" font-weight="bold" font-size="32.00" fill="#29235c">(!)</text>
<polygon fill="#e7e2dd" stroke="transparent" points="2040.75,-669.96 2040.75,-729.96 2431.75,-729.96 2431.75,-669.96 2040.75,-669.96"/>
<polygon fill="none" stroke="#29235c" points="2040.75,-669.96 2040.75,-729.96 2431.75,-729.96 2431.75,-669.96 2040.75,-669.96"/>
<text text-anchor="start" x="2051.59" y="-690.16" font-family="Helvetica,sans-Serif" font-size="32.00" fill="#29235c">user_data_directory &#160;&#160;&#160;</text>
<text text-anchor="start" x="2369.46" y="-691.16" font-family="Helvetica,sans-Serif" font-style="italic" font-size="32.00" fill="#29235c">text</text>
<polygon fill="#e7e2dd" stroke="transparent" points="2040.75,-609.96 2040.75,-669.96 2431.75,-669.96 2431.75,-609.96 2040.75,-609.96"/>
<polygon fill="none" stroke="#29235c" points="2040.75,-609.96 2040.75,-669.96 2431.75,-669.96 2431.75,-609.96 2040.75,-609.96"/>
<text text-anchor="start" x="2051.75" y="-630.16" font-family="Helvetica,sans-Serif" font-size="32.00" fill="#29235c">created_at &#160;&#160;&#160;</text>
<text text-anchor="start" x="2283.85" y="-631.16" font-family="Helvetica,sans-Serif" font-style="italic" font-size="32.00" fill="#29235c">integer</text>
<text text-anchor="start" x="2381.66" y="-631.16" font-family="Helvetica,sans-Serif" font-size="32.00" fill="#29235c"> </text>
<text text-anchor="start" x="2390.55" y="-631.16" font-family="Helvetica,sans-Serif" font-weight="bold" font-size="32.00" fill="#29235c">(!)</text>
<polygon fill="#e7e2dd" stroke="transparent" points="2040.75,-549.96 2040.75,-609.96 2431.75,-609.96 2431.75,-549.96 2040.75,-549.96"/>
<polygon fill="none" stroke="#29235c" points="2040.75,-549.96 2040.75,-609.96 2431.75,-609.96 2431.75,-549.96 2040.75,-549.96"/>
<text text-anchor="start" x="2051.75" y="-570.16" font-family="Helvetica,sans-Serif" font-size="32.00" fill="#29235c">updated_at &#160;&#160;&#160;</text>
<text text-anchor="start" x="2283.85" y="-571.16" font-family="Helvetica,sans-Serif" font-style="italic" font-size="32.00" fill="#29235c">integer</text>
<text text-anchor="start" x="2381.66" y="-571.16" font-family="Helvetica,sans-Serif" font-size="32.00" fill="#29235c"> </text>
<text text-anchor="start" x="2390.55" y="-571.16" font-family="Helvetica,sans-Serif" font-weight="bold" font-size="32.00" fill="#29235c">(!)</text>
<polygon fill="none" stroke="#29235c" stroke-width="2" points="2039.25,-548.96 2039.25,-1030.96 2432.25,-1030.96 2432.25,-548.96 2039.25,-548.96"/>
</g>
<!-- scraper_data_sources&#45;&gt;scrapers -->
<!-- scraper_data_sources&#45;&gt;scrapers -->
<g id="edge2" class="edge">
<title>scraper_data_sources:e&#45;&gt;scrapers:w</title>
<path fill="none" stroke="#29235c" stroke-width="3" d="M1609.07,-373.96C1779.17,-373.96 1804.08,-479.46 1905.59,-615.96 1996.51,-738.22 1888.94,-931.06 2029.65,-939.66"/>
<polygon fill="#29235c" stroke="#29235c" stroke-width="3" points="2029.65,-943.16 2039.75,-939.96 2029.85,-936.17 2029.65,-943.16"/>
<text text-anchor="middle" x="2030.85" y="-949.56" font-family="Helvetica,sans-Serif" font-size="32.00" fill="#29235c">1</text>
<text text-anchor="middle" x="1615.29" y="-345.16" font-family="Helvetica,sans-Serif" font-size="32.00" fill="#29235c">*</text>
</g>
<!-- user_data_stores -->
<g id="user_data_stores" class="node">
<title>user_data_stores</title>
<ellipse fill="none" stroke="black" stroke-width="0" cx="2235.75" cy="-214.96" rx="294.31" ry="214.92"/>
<polygon fill="#1d71b8" stroke="transparent" points="2029.75,-304.96 2029.75,-364.96 2441.75,-364.96 2441.75,-304.96 2029.75,-304.96"/>
<polygon fill="none" stroke="#29235c" points="2029.75,-304.96 2029.75,-364.96 2441.75,-364.96 2441.75,-304.96 2029.75,-304.96"/>
<text text-anchor="start" x="2049.9" y="-326.16" font-family="Helvetica,sans-Serif" font-weight="bold" font-size="32.00" fill="#ffffff"> &#160;&#160;&#160;&#160;&#160;&#160;user_data_stores &#160;&#160;&#160;&#160;&#160;&#160;</text>
<polygon fill="#e7e2dd" stroke="transparent" points="2029.75,-244.96 2029.75,-304.96 2441.75,-304.96 2441.75,-244.96 2029.75,-244.96"/>
<polygon fill="none" stroke="#29235c" points="2029.75,-244.96 2029.75,-304.96 2441.75,-304.96 2441.75,-244.96 2029.75,-244.96"/>
<text text-anchor="start" x="2040.75" y="-266.16" font-family="Helvetica,sans-Serif" font-weight="bold" font-size="32.00" fill="#29235c">table_name</text>
<text text-anchor="start" x="2207.91" y="-266.16" font-family="Helvetica,sans-Serif" font-size="32.00" fill="#29235c"> &#160;&#160;&#160;</text>
<text text-anchor="start" x="2340.08" y="-266.16" font-family="Helvetica,sans-Serif" font-style="italic" font-size="32.00" fill="#29235c">text</text>
<text text-anchor="start" x="2391.66" y="-266.16" font-family="Helvetica,sans-Serif" font-size="32.00" fill="#29235c"> </text>
<text text-anchor="start" x="2400.55" y="-266.16" font-family="Helvetica,sans-Serif" font-weight="bold" font-size="32.00" fill="#29235c">(!)</text>
<polygon fill="#e7e2dd" stroke="transparent" points="2029.75,-184.96 2029.75,-244.96 2441.75,-244.96 2441.75,-184.96 2029.75,-184.96"/>
<polygon fill="none" stroke="#29235c" points="2029.75,-184.96 2029.75,-244.96 2441.75,-244.96 2441.75,-184.96 2029.75,-184.96"/>
<text text-anchor="start" x="2040.75" y="-205.16" font-family="Helvetica,sans-Serif" font-size="32.00" fill="#29235c">name &#160;&#160;&#160;</text>
<text text-anchor="start" x="2340.08" y="-206.16" font-family="Helvetica,sans-Serif" font-style="italic" font-size="32.00" fill="#29235c">text</text>
<text text-anchor="start" x="2391.66" y="-206.16" font-family="Helvetica,sans-Serif" font-size="32.00" fill="#29235c"> </text>
<text text-anchor="start" x="2400.55" y="-206.16" font-family="Helvetica,sans-Serif" font-weight="bold" font-size="32.00" fill="#29235c">(!)</text>
<polygon fill="#e7e2dd" stroke="transparent" points="2029.75,-124.96 2029.75,-184.96 2441.75,-184.96 2441.75,-124.96 2029.75,-124.96"/>
<polygon fill="none" stroke="#29235c" points="2029.75,-124.96 2029.75,-184.96 2441.75,-184.96 2441.75,-124.96 2029.75,-124.96"/>
<text text-anchor="start" x="2040.75" y="-145.16" font-family="Helvetica,sans-Serif" font-size="32.00" fill="#29235c">description &#160;&#160;&#160;</text>
<text text-anchor="start" x="2379.17" y="-146.16" font-family="Helvetica,sans-Serif" font-style="italic" font-size="32.00" fill="#29235c">text</text>
<polygon fill="#e7e2dd" stroke="transparent" points="2029.75,-64.96 2029.75,-124.96 2441.75,-124.96 2441.75,-64.96 2029.75,-64.96"/>
<polygon fill="none" stroke="#29235c" points="2029.75,-64.96 2029.75,-124.96 2441.75,-124.96 2441.75,-64.96 2029.75,-64.96"/>
<text text-anchor="start" x="2040.49" y="-85.16" font-family="Helvetica,sans-Serif" font-size="32.00" fill="#29235c">column_definitions &#160;&#160;&#160;</text>
<text text-anchor="start" x="2340.41" y="-86.16" font-family="Helvetica,sans-Serif" font-style="italic" font-size="32.00" fill="#29235c">text</text>
<text text-anchor="start" x="2391.99" y="-86.16" font-family="Helvetica,sans-Serif" font-size="32.00" fill="#29235c"> </text>
<text text-anchor="start" x="2400.88" y="-86.16" font-family="Helvetica,sans-Serif" font-weight="bold" font-size="32.00" fill="#29235c">(!)</text>
<polygon fill="none" stroke="#29235c" stroke-width="2" points="2028.75,-63.96 2028.75,-365.96 2442.75,-365.96 2442.75,-63.96 2028.75,-63.96"/>
</g>
<!-- scraper_data_sources&#45;&gt;user_data_stores -->
<!-- scraper_data_sources&#45;&gt;user_data_stores -->
<g id="edge4" class="edge">
<title>scraper_data_sources:e&#45;&gt;user_data_stores:w</title>
<path fill="none" stroke="#29235c" stroke-width="3" d="M1609.07,-313.96C1793.01,-313.96 1839.75,-276.36 2018.73,-275"/>
<polygon fill="#29235c" stroke="#29235c" stroke-width="3" points="2018.76,-278.5 2028.75,-274.96 2018.73,-271.5 2018.76,-278.5"/>
<text text-anchor="middle" x="2019.85" y="-246.16" font-family="Helvetica,sans-Serif" font-size="32.00" fill="#29235c">1</text>
<text text-anchor="middle" x="1615.29" y="-285.16" font-family="Helvetica,sans-Serif" font-size="32.00" fill="#29235c">*</text>
</g>
<!-- scraper_execution_iterations -->
<g id="scraper_execution_iterations" class="node">
<title>scraper_execution_iterations</title>
<ellipse fill="none" stroke="black" stroke-width="0" cx="395.27" cy="-839.96" rx="395.05" ry="214.92"/>
<polygon fill="#1d71b8" stroke="transparent" points="118.27,-929.96 118.27,-989.96 673.27,-989.96 673.27,-929.96 118.27,-929.96"/>
<polygon fill="none" stroke="#29235c" points="118.27,-929.96 118.27,-989.96 673.27,-989.96 673.27,-929.96 118.27,-929.96"/>
<text text-anchor="start" x="129.03" y="-951.16" font-family="Helvetica,sans-Serif" font-weight="bold" font-size="32.00" fill="#ffffff"> &#160;&#160;&#160;&#160;&#160;&#160;scraper_execution_iterations &#160;&#160;&#160;&#160;&#160;&#160;</text>
<polygon fill="#e7e2dd" stroke="transparent" points="118.27,-869.96 118.27,-929.96 673.27,-929.96 673.27,-869.96 118.27,-869.96"/>
<polygon fill="none" stroke="#29235c" points="118.27,-869.96 118.27,-929.96 673.27,-929.96 673.27,-869.96 118.27,-869.96"/>
<text text-anchor="start" x="129.27" y="-891.16" font-family="Helvetica,sans-Serif" font-weight="bold" font-size="32.00" fill="#29235c">iteration</text>
<text text-anchor="start" x="243.07" y="-891.16" font-family="Helvetica,sans-Serif" font-size="32.00" fill="#29235c"> &#160;&#160;&#160;</text>
<text text-anchor="start" x="525.38" y="-891.16" font-family="Helvetica,sans-Serif" font-style="italic" font-size="32.00" fill="#29235c">integer</text>
<text text-anchor="start" x="623.18" y="-891.16" font-family="Helvetica,sans-Serif" font-size="32.00" fill="#29235c"> </text>
<text text-anchor="start" x="632.07" y="-891.16" font-family="Helvetica,sans-Serif" font-weight="bold" font-size="32.00" fill="#29235c">(!)</text>
<polygon fill="#e7e2dd" stroke="transparent" points="118.27,-809.96 118.27,-869.96 673.27,-869.96 673.27,-809.96 118.27,-809.96"/>
<polygon fill="none" stroke="#29235c" points="118.27,-809.96 118.27,-869.96 673.27,-869.96 673.27,-809.96 118.27,-809.96"/>
<text text-anchor="start" x="129.27" y="-831.16" font-family="Helvetica,sans-Serif" font-weight="bold" font-size="32.00" fill="#29235c">execution_id</text>
<text text-anchor="start" x="308.89" y="-831.16" font-family="Helvetica,sans-Serif" font-size="32.00" fill="#29235c"> &#160;&#160;&#160;</text>
<text text-anchor="start" x="525.38" y="-831.16" font-family="Helvetica,sans-Serif" font-style="italic" font-size="32.00" fill="#29235c">integer</text>
<text text-anchor="start" x="623.18" y="-831.16" font-family="Helvetica,sans-Serif" font-size="32.00" fill="#29235c"> </text>
<text text-anchor="start" x="632.07" y="-831.16" font-family="Helvetica,sans-Serif" font-weight="bold" font-size="32.00" fill="#29235c">(!)</text>
<polygon fill="#e7e2dd" stroke="transparent" points="118.27,-749.96 118.27,-809.96 673.27,-809.96 673.27,-749.96 118.27,-749.96"/>
<polygon fill="none" stroke="#29235c" points="118.27,-749.96 118.27,-809.96 673.27,-809.96 673.27,-749.96 118.27,-749.96"/>
<text text-anchor="start" x="129.27" y="-770.16" font-family="Helvetica,sans-Serif" font-size="32.00" fill="#29235c">execution_info &#160;&#160;&#160;</text>
<text text-anchor="start" x="571.61" y="-771.16" font-family="Helvetica,sans-Serif" font-style="italic" font-size="32.00" fill="#29235c">text</text>
<text text-anchor="start" x="623.18" y="-771.16" font-family="Helvetica,sans-Serif" font-size="32.00" fill="#29235c"> </text>
<text text-anchor="start" x="632.07" y="-771.16" font-family="Helvetica,sans-Serif" font-weight="bold" font-size="32.00" fill="#29235c">(!)</text>
<polygon fill="#e7e2dd" stroke="transparent" points="118.27,-689.96 118.27,-749.96 673.27,-749.96 673.27,-689.96 118.27,-689.96"/>
<polygon fill="none" stroke="#29235c" points="118.27,-689.96 118.27,-749.96 673.27,-749.96 673.27,-689.96 118.27,-689.96"/>
<text text-anchor="start" x="129.27" y="-710.16" font-family="Helvetica,sans-Serif" font-size="32.00" fill="#29235c">finished_at &#160;&#160;&#160;</text>
<text text-anchor="start" x="525.38" y="-711.16" font-family="Helvetica,sans-Serif" font-style="italic" font-size="32.00" fill="#29235c">integer</text>
<text text-anchor="start" x="623.18" y="-711.16" font-family="Helvetica,sans-Serif" font-size="32.00" fill="#29235c"> </text>
<text text-anchor="start" x="632.07" y="-711.16" font-family="Helvetica,sans-Serif" font-weight="bold" font-size="32.00" fill="#29235c">(!)</text>
<polygon fill="none" stroke="#29235c" stroke-width="2" points="116.77,-688.96 116.77,-990.96 673.77,-990.96 673.77,-688.96 116.77,-688.96"/>
</g>
<!-- scraper_executions -->
<g id="scraper_executions" class="node">
<title>scraper_executions</title>
<ellipse fill="none" stroke="black" stroke-width="0" cx="1366.07" cy="-839.96" rx="301.87" ry="214.92"/>
<polygon fill="#1d71b8" stroke="transparent" points="1155.07,-929.96 1155.07,-989.96 1578.07,-989.96 1578.07,-929.96 1155.07,-929.96"/>
<polygon fill="none" stroke="#29235c" points="1155.07,-929.96 1155.07,-989.96 1578.07,-989.96 1578.07,-929.96 1155.07,-929.96"/>
<text text-anchor="start" x="1165.62" y="-951.16" font-family="Helvetica,sans-Serif" font-weight="bold" font-size="32.00" fill="#ffffff"> &#160;&#160;&#160;&#160;&#160;&#160;scraper_executions &#160;&#160;&#160;&#160;&#160;&#160;</text>
<polygon fill="#e7e2dd" stroke="transparent" points="1155.07,-869.96 1155.07,-929.96 1578.07,-929.96 1578.07,-869.96 1155.07,-869.96"/>
<polygon fill="none" stroke="#29235c" points="1155.07,-869.96 1155.07,-929.96 1578.07,-929.96 1578.07,-869.96 1155.07,-869.96"/>
<text text-anchor="start" x="1166.07" y="-891.16" font-family="Helvetica,sans-Serif" font-weight="bold" font-size="32.00" fill="#29235c">id</text>
<text text-anchor="start" x="1190.96" y="-891.16" font-family="Helvetica,sans-Serif" font-size="32.00" fill="#29235c"> &#160;&#160;&#160;</text>
<text text-anchor="start" x="1430.18" y="-891.16" font-family="Helvetica,sans-Serif" font-style="italic" font-size="32.00" fill="#29235c">integer</text>
<text text-anchor="start" x="1527.98" y="-891.16" font-family="Helvetica,sans-Serif" font-size="32.00" fill="#29235c"> </text>
<text text-anchor="start" x="1536.87" y="-891.16" font-family="Helvetica,sans-Serif" font-weight="bold" font-size="32.00" fill="#29235c">(!)</text>
<polygon fill="#e7e2dd" stroke="transparent" points="1155.07,-809.96 1155.07,-869.96 1578.07,-869.96 1578.07,-809.96 1155.07,-809.96"/>
<polygon fill="none" stroke="#29235c" points="1155.07,-809.96 1155.07,-869.96 1578.07,-869.96 1578.07,-809.96 1155.07,-809.96"/>
<text text-anchor="start" x="1166.07" y="-830.16" font-family="Helvetica,sans-Serif" font-size="32.00" fill="#29235c">scraper_id &#160;&#160;&#160;</text>
<text text-anchor="start" x="1430.18" y="-831.16" font-family="Helvetica,sans-Serif" font-style="italic" font-size="32.00" fill="#29235c">integer</text>
<text text-anchor="start" x="1527.98" y="-831.16" font-family="Helvetica,sans-Serif" font-size="32.00" fill="#29235c"> </text>
<text text-anchor="start" x="1536.87" y="-831.16" font-family="Helvetica,sans-Serif" font-weight="bold" font-size="32.00" fill="#29235c">(!)</text>
<polygon fill="#e7e2dd" stroke="transparent" points="1155.07,-749.96 1155.07,-809.96 1578.07,-809.96 1578.07,-749.96 1155.07,-749.96"/>
<polygon fill="none" stroke="#29235c" points="1155.07,-749.96 1155.07,-809.96 1578.07,-809.96 1578.07,-749.96 1155.07,-749.96"/>
<text text-anchor="start" x="1166.07" y="-770.16" font-family="Helvetica,sans-Serif" font-size="32.00" fill="#29235c">iterator &#160;&#160;&#160;</text>
<text text-anchor="start" x="1515.49" y="-771.16" font-family="Helvetica,sans-Serif" font-style="italic" font-size="32.00" fill="#29235c">text</text>
<polygon fill="#e7e2dd" stroke="transparent" points="1155.07,-689.96 1155.07,-749.96 1578.07,-749.96 1578.07,-689.96 1155.07,-689.96"/>
<polygon fill="none" stroke="#29235c" points="1155.07,-689.96 1155.07,-749.96 1578.07,-749.96 1578.07,-689.96 1155.07,-689.96"/>
<text text-anchor="start" x="1166.07" y="-710.16" font-family="Helvetica,sans-Serif" font-size="32.00" fill="#29235c">created_at &#160;&#160;&#160;</text>
<text text-anchor="start" x="1430.18" y="-711.16" font-family="Helvetica,sans-Serif" font-style="italic" font-size="32.00" fill="#29235c">integer</text>
<text text-anchor="start" x="1527.98" y="-711.16" font-family="Helvetica,sans-Serif" font-size="32.00" fill="#29235c"> </text>
<text text-anchor="start" x="1536.87" y="-711.16" font-family="Helvetica,sans-Serif" font-weight="bold" font-size="32.00" fill="#29235c">(!)</text>
<polygon fill="none" stroke="#29235c" stroke-width="2" points="1153.57,-688.96 1153.57,-990.96 1578.57,-990.96 1578.57,-688.96 1153.57,-688.96"/>
</g>
<!-- scraper_execution_iterations&#45;&gt;scraper_executions -->
<!-- scraper_execution_iterations&#45;&gt;scraper_executions -->
<g id="edge6" class="edge">
<title>scraper_execution_iterations:e&#45;&gt;scraper_executions:w</title>
<path fill="none" stroke="#29235c" stroke-width="3" d="M674.27,-839.96C885.71,-839.96 937.51,-898.04 1143.81,-899.91"/>
<polygon fill="#29235c" stroke="#29235c" stroke-width="3" points="1144.05,-903.42 1154.07,-899.96 1144.08,-896.42 1144.05,-903.42"/>
<text text-anchor="middle" x="1162.96" y="-909.56" font-family="Helvetica,sans-Serif" font-size="32.00" fill="#29235c">1</text>
<text text-anchor="middle" x="680.5" y="-849.56" font-family="Helvetica,sans-Serif" font-size="32.00" fill="#29235c">*</text>
</g>
<!-- scraper_executions&#45;&gt;scrapers -->
<!-- scraper_executions&#45;&gt;scrapers -->
<g id="edge8" class="edge">
<title>scraper_executions:e&#45;&gt;scrapers:w</title>
<path fill="none" stroke="#29235c" stroke-width="3" d="M1579.07,-839.96C1785.1,-839.96 1828.8,-936.67 2029.45,-939.88"/>
<polygon fill="#29235c" stroke="#29235c" stroke-width="3" points="2029.72,-943.38 2039.75,-939.96 2029.77,-936.38 2029.72,-943.38"/>
<text text-anchor="middle" x="2030.85" y="-911.16" font-family="Helvetica,sans-Serif" font-size="32.00" fill="#29235c">1</text>
<text text-anchor="middle" x="1585.29" y="-849.56" font-family="Helvetica,sans-Serif" font-size="32.00" fill="#29235c">*</text>
</g>
<!-- notifications -->
<g id="notifications" class="node">
<title>notifications</title>
<ellipse fill="none" stroke="black" stroke-width="0" cx="395.27" cy="-1287.96" rx="246.15" ry="214.92"/>
<polygon fill="#1d71b8" stroke="transparent" points="223.27,-1377.96 223.27,-1437.96 567.27,-1437.96 567.27,-1377.96 223.27,-1377.96"/>
<polygon fill="none" stroke="#29235c" points="223.27,-1377.96 223.27,-1437.96 567.27,-1437.96 567.27,-1377.96 223.27,-1377.96"/>
<text text-anchor="start" x="248.56" y="-1399.16" font-family="Helvetica,sans-Serif" font-weight="bold" font-size="32.00" fill="#ffffff"> &#160;&#160;&#160;&#160;&#160;&#160;notifications &#160;&#160;&#160;&#160;&#160;&#160;</text>
<polygon fill="#e7e2dd" stroke="transparent" points="223.27,-1317.96 223.27,-1377.96 567.27,-1377.96 567.27,-1317.96 223.27,-1317.96"/>
<polygon fill="none" stroke="#29235c" points="223.27,-1317.96 223.27,-1377.96 567.27,-1377.96 567.27,-1317.96 223.27,-1317.96"/>
<text text-anchor="start" x="234.27" y="-1339.16" font-family="Helvetica,sans-Serif" font-weight="bold" font-size="32.00" fill="#29235c">id</text>
<text text-anchor="start" x="259.16" y="-1339.16" font-family="Helvetica,sans-Serif" font-size="32.00" fill="#29235c"> &#160;&#160;&#160;</text>
<text text-anchor="start" x="419.38" y="-1339.16" font-family="Helvetica,sans-Serif" font-style="italic" font-size="32.00" fill="#29235c">integer</text>
<text text-anchor="start" x="517.18" y="-1339.16" font-family="Helvetica,sans-Serif" font-size="32.00" fill="#29235c"> </text>
<text text-anchor="start" x="526.07" y="-1339.16" font-family="Helvetica,sans-Serif" font-weight="bold" font-size="32.00" fill="#29235c">(!)</text>
<polygon fill="#e7e2dd" stroke="transparent" points="223.27,-1257.96 223.27,-1317.96 567.27,-1317.96 567.27,-1257.96 223.27,-1257.96"/>
<polygon fill="none" stroke="#29235c" points="223.27,-1257.96 223.27,-1317.96 567.27,-1317.96 567.27,-1257.96 223.27,-1257.96"/>
<text text-anchor="start" x="233.9" y="-1278.16" font-family="Helvetica,sans-Serif" font-size="32.00" fill="#29235c">created_at &#160;&#160;&#160;</text>
<text text-anchor="start" x="419.83" y="-1279.16" font-family="Helvetica,sans-Serif" font-style="italic" font-size="32.00" fill="#29235c">integer</text>
<text text-anchor="start" x="517.63" y="-1279.16" font-family="Helvetica,sans-Serif" font-size="32.00" fill="#29235c"> </text>
<text text-anchor="start" x="526.52" y="-1279.16" font-family="Helvetica,sans-Serif" font-weight="bold" font-size="32.00" fill="#29235c">(!)</text>
<polygon fill="#e7e2dd" stroke="transparent" points="223.27,-1197.96 223.27,-1257.96 567.27,-1257.96 567.27,-1197.96 223.27,-1197.96"/>
<polygon fill="none" stroke="#29235c" points="223.27,-1197.96 223.27,-1257.96 567.27,-1257.96 567.27,-1197.96 223.27,-1197.96"/>
<text text-anchor="start" x="234.27" y="-1218.16" font-family="Helvetica,sans-Serif" font-size="32.00" fill="#29235c">read &#160;&#160;&#160;</text>
<text text-anchor="start" x="419.38" y="-1219.16" font-family="Helvetica,sans-Serif" font-style="italic" font-size="32.00" fill="#29235c">integer</text>
<text text-anchor="start" x="517.18" y="-1219.16" font-family="Helvetica,sans-Serif" font-size="32.00" fill="#29235c"> </text>
<text text-anchor="start" x="526.07" y="-1219.16" font-family="Helvetica,sans-Serif" font-weight="bold" font-size="32.00" fill="#29235c">(!)</text>
<polygon fill="#e7e2dd" stroke="transparent" points="223.27,-1137.96 223.27,-1197.96 567.27,-1197.96 567.27,-1137.96 223.27,-1137.96"/>
<polygon fill="none" stroke="#29235c" points="223.27,-1137.96 223.27,-1197.96 567.27,-1197.96 567.27,-1137.96 223.27,-1137.96"/>
<text text-anchor="start" x="234.27" y="-1158.16" font-family="Helvetica,sans-Serif" font-size="32.00" fill="#29235c">data &#160;&#160;&#160;</text>
<text text-anchor="start" x="465.61" y="-1159.16" font-family="Helvetica,sans-Serif" font-style="italic" font-size="32.00" fill="#29235c">text</text>
<text text-anchor="start" x="517.18" y="-1159.16" font-family="Helvetica,sans-Serif" font-size="32.00" fill="#29235c"> </text>
<text text-anchor="start" x="526.07" y="-1159.16" font-family="Helvetica,sans-Serif" font-weight="bold" font-size="32.00" fill="#29235c">(!)</text>
<polygon fill="none" stroke="#29235c" stroke-width="2" points="222.27,-1136.96 222.27,-1438.96 568.27,-1438.96 568.27,-1136.96 222.27,-1136.96"/>
</g>
<!-- routines -->
<g id="routines" class="node">
<title>routines</title>
<ellipse fill="none" stroke="black" stroke-width="0" cx="1366.07" cy="-1541.96" rx="539.54" ry="469.54"/>
<polygon fill="#1d71b8" stroke="transparent" points="987.07,-1811.96 987.07,-1871.96 1746.07,-1871.96 1746.07,-1811.96 987.07,-1811.96"/>
<polygon fill="none" stroke="#29235c" points="987.07,-1811.96 987.07,-1871.96 1746.07,-1871.96 1746.07,-1811.96 987.07,-1811.96"/>
<text text-anchor="start" x="1247.42" y="-1833.16" font-family="Helvetica,sans-Serif" font-weight="bold" font-size="32.00" fill="#ffffff"> &#160;&#160;&#160;&#160;&#160;&#160;routines &#160;&#160;&#160;&#160;&#160;&#160;</text>
<polygon fill="#e7e2dd" stroke="transparent" points="987.07,-1751.96 987.07,-1811.96 1746.07,-1811.96 1746.07,-1751.96 987.07,-1751.96"/>
<polygon fill="none" stroke="#29235c" points="987.07,-1751.96 987.07,-1811.96 1746.07,-1811.96 1746.07,-1751.96 987.07,-1751.96"/>
<text text-anchor="start" x="998.07" y="-1773.16" font-family="Helvetica,sans-Serif" font-weight="bold" font-size="32.00" fill="#29235c">id</text>
<text text-anchor="start" x="1022.96" y="-1773.16" font-family="Helvetica,sans-Serif" font-size="32.00" fill="#29235c"> &#160;&#160;&#160;</text>
<text text-anchor="start" x="1598.18" y="-1773.16" font-family="Helvetica,sans-Serif" font-style="italic" font-size="32.00" fill="#29235c">integer</text>
<text text-anchor="start" x="1695.98" y="-1773.16" font-family="Helvetica,sans-Serif" font-size="32.00" fill="#29235c"> </text>
<text text-anchor="start" x="1704.87" y="-1773.16" font-family="Helvetica,sans-Serif" font-weight="bold" font-size="32.00" fill="#29235c">(!)</text>
<polygon fill="#e7e2dd" stroke="transparent" points="987.07,-1691.96 987.07,-1751.96 1746.07,-1751.96 1746.07,-1691.96 987.07,-1691.96"/>
<polygon fill="none" stroke="#29235c" points="987.07,-1691.96 987.07,-1751.96 1746.07,-1751.96 1746.07,-1691.96 987.07,-1691.96"/>
<text text-anchor="start" x="998.07" y="-1712.16" font-family="Helvetica,sans-Serif" font-size="32.00" fill="#29235c">scraper_id &#160;&#160;&#160;</text>
<text text-anchor="start" x="1598.18" y="-1713.16" font-family="Helvetica,sans-Serif" font-style="italic" font-size="32.00" fill="#29235c">integer</text>
<text text-anchor="start" x="1695.98" y="-1713.16" font-family="Helvetica,sans-Serif" font-size="32.00" fill="#29235c"> </text>
<text text-anchor="start" x="1704.87" y="-1713.16" font-family="Helvetica,sans-Serif" font-weight="bold" font-size="32.00" fill="#29235c">(!)</text>
<polygon fill="#e7e2dd" stroke="transparent" points="987.07,-1631.96 987.07,-1691.96 1746.07,-1691.96 1746.07,-1631.96 987.07,-1631.96"/>
<polygon fill="none" stroke="#29235c" points="987.07,-1631.96 987.07,-1691.96 1746.07,-1691.96 1746.07,-1631.96 987.07,-1631.96"/>
<text text-anchor="start" x="998.07" y="-1652.16" font-family="Helvetica,sans-Serif" font-size="32.00" fill="#29235c">iterator &#160;&#160;&#160;</text>
<text text-anchor="start" x="1683.49" y="-1653.16" font-family="Helvetica,sans-Serif" font-style="italic" font-size="32.00" fill="#29235c">text</text>
<polygon fill="#e7e2dd" stroke="transparent" points="987.07,-1571.96 987.07,-1631.96 1746.07,-1631.96 1746.07,-1571.96 987.07,-1571.96"/>
<polygon fill="none" stroke="#29235c" points="987.07,-1571.96 987.07,-1631.96 1746.07,-1631.96 1746.07,-1571.96 987.07,-1571.96"/>
<text text-anchor="start" x="998.07" y="-1592.16" font-family="Helvetica,sans-Serif" font-size="32.00" fill="#29235c">status &#160;&#160;&#160;</text>
<text text-anchor="start" x="1644.4" y="-1593.16" font-family="Helvetica,sans-Serif" font-style="italic" font-size="32.00" fill="#29235c">text</text>
<text text-anchor="start" x="1695.98" y="-1593.16" font-family="Helvetica,sans-Serif" font-size="32.00" fill="#29235c"> </text>
<text text-anchor="start" x="1704.87" y="-1593.16" font-family="Helvetica,sans-Serif" font-weight="bold" font-size="32.00" fill="#29235c">(!)</text>
<polygon fill="#e7e2dd" stroke="transparent" points="987.07,-1511.96 987.07,-1571.96 1746.07,-1571.96 1746.07,-1511.96 987.07,-1511.96"/>
<polygon fill="none" stroke="#29235c" points="987.07,-1511.96 987.07,-1571.96 1746.07,-1571.96 1746.07,-1511.96 987.07,-1511.96"/>
<text text-anchor="start" x="998.07" y="-1532.16" font-family="Helvetica,sans-Serif" font-size="32.00" fill="#29235c">description &#160;&#160;&#160;</text>
<text text-anchor="start" x="1683.49" y="-1533.16" font-family="Helvetica,sans-Serif" font-style="italic" font-size="32.00" fill="#29235c">text</text>
<polygon fill="#e7e2dd" stroke="transparent" points="987.07,-1451.96 987.07,-1511.96 1746.07,-1511.96 1746.07,-1451.96 987.07,-1451.96"/>
<polygon fill="none" stroke="#29235c" points="987.07,-1451.96 987.07,-1511.96 1746.07,-1511.96 1746.07,-1451.96 987.07,-1451.96"/>
<text text-anchor="start" x="998.07" y="-1472.16" font-family="Helvetica,sans-Serif" font-size="32.00" fill="#29235c">scheduler &#160;&#160;&#160;</text>
<text text-anchor="start" x="1644.4" y="-1473.16" font-family="Helvetica,sans-Serif" font-style="italic" font-size="32.00" fill="#29235c">text</text>
<text text-anchor="start" x="1695.98" y="-1473.16" font-family="Helvetica,sans-Serif" font-size="32.00" fill="#29235c"> </text>
<text text-anchor="start" x="1704.87" y="-1473.16" font-family="Helvetica,sans-Serif" font-weight="bold" font-size="32.00" fill="#29235c">(!)</text>
<polygon fill="#e7e2dd" stroke="transparent" points="987.07,-1391.96 987.07,-1451.96 1746.07,-1451.96 1746.07,-1391.96 987.07,-1391.96"/>
<polygon fill="none" stroke="#29235c" points="987.07,-1391.96 987.07,-1451.96 1746.07,-1451.96 1746.07,-1391.96 987.07,-1391.96"/>
<text text-anchor="start" x="998.07" y="-1412.16" font-family="Helvetica,sans-Serif" font-size="32.00" fill="#29235c">next_scheduled_execution_at &#160;&#160;&#160;</text>
<text text-anchor="start" x="1598.18" y="-1413.16" font-family="Helvetica,sans-Serif" font-style="italic" font-size="32.00" fill="#29235c">integer</text>
<text text-anchor="start" x="1695.98" y="-1413.16" font-family="Helvetica,sans-Serif" font-size="32.00" fill="#29235c"> </text>
<text text-anchor="start" x="1704.87" y="-1413.16" font-family="Helvetica,sans-Serif" font-weight="bold" font-size="32.00" fill="#29235c">(!)</text>
<polygon fill="#e7e2dd" stroke="transparent" points="987.07,-1331.96 987.07,-1391.96 1746.07,-1391.96 1746.07,-1331.96 987.07,-1331.96"/>
<polygon fill="none" stroke="#29235c" points="987.07,-1331.96 987.07,-1391.96 1746.07,-1391.96 1746.07,-1331.96 987.07,-1331.96"/>
<text text-anchor="start" x="997.95" y="-1352.16" font-family="Helvetica,sans-Serif" font-size="32.00" fill="#29235c">pause_after_number_of_failed_executions &#160;&#160;&#160;</text>
<text text-anchor="start" x="1637.67" y="-1353.16" font-family="Helvetica,sans-Serif" font-style="italic" font-size="32.00" fill="#29235c">integer</text>
<polygon fill="#e7e2dd" stroke="transparent" points="987.07,-1271.96 987.07,-1331.96 1746.07,-1331.96 1746.07,-1271.96 987.07,-1271.96"/>
<polygon fill="none" stroke="#29235c" points="987.07,-1271.96 987.07,-1331.96 1746.07,-1331.96 1746.07,-1271.96 987.07,-1271.96"/>
<text text-anchor="start" x="998.07" y="-1292.16" font-family="Helvetica,sans-Serif" font-size="32.00" fill="#29235c">created_at &#160;&#160;&#160;</text>
<text text-anchor="start" x="1598.18" y="-1293.16" font-family="Helvetica,sans-Serif" font-style="italic" font-size="32.00" fill="#29235c">integer</text>
<text text-anchor="start" x="1695.98" y="-1293.16" font-family="Helvetica,sans-Serif" font-size="32.00" fill="#29235c"> </text>
<text text-anchor="start" x="1704.87" y="-1293.16" font-family="Helvetica,sans-Serif" font-weight="bold" font-size="32.00" fill="#29235c">(!)</text>
<polygon fill="#e7e2dd" stroke="transparent" points="987.07,-1211.96 987.07,-1271.96 1746.07,-1271.96 1746.07,-1211.96 987.07,-1211.96"/>
<polygon fill="none" stroke="#29235c" points="987.07,-1211.96 987.07,-1271.96 1746.07,-1271.96 1746.07,-1211.96 987.07,-1211.96"/>
<text text-anchor="start" x="998.07" y="-1232.16" font-family="Helvetica,sans-Serif" font-size="32.00" fill="#29235c">updated_at &#160;&#160;&#160;</text>
<text text-anchor="start" x="1598.18" y="-1233.16" font-family="Helvetica,sans-Serif" font-style="italic" font-size="32.00" fill="#29235c">integer</text>
<text text-anchor="start" x="1695.98" y="-1233.16" font-family="Helvetica,sans-Serif" font-size="32.00" fill="#29235c"> </text>
<text text-anchor="start" x="1704.87" y="-1233.16" font-family="Helvetica,sans-Serif" font-weight="bold" font-size="32.00" fill="#29235c">(!)</text>
<polygon fill="none" stroke="#29235c" stroke-width="2" points="985.57,-1210.96 985.57,-1872.96 1746.57,-1872.96 1746.57,-1210.96 985.57,-1210.96"/>
</g>
<!-- routines&#45;&gt;scrapers -->
<!-- routines&#45;&gt;scrapers -->
<g id="edge10" class="edge">
<title>routines:e&#45;&gt;scrapers:w</title>
<path fill="none" stroke="#29235c" stroke-width="3" d="M1747.07,-1721.96C1929.18,-1721.96 1857.02,-968.71 2029.69,-940.76"/>
<polygon fill="#29235c" stroke="#29235c" stroke-width="3" points="2030.05,-944.24 2039.75,-939.96 2029.5,-937.26 2030.05,-944.24"/>
<text text-anchor="middle" x="2048.64" y="-949.56" font-family="Helvetica,sans-Serif" font-size="32.00" fill="#29235c">1</text>
<text text-anchor="middle" x="1753.29" y="-1731.56" font-family="Helvetica,sans-Serif" font-size="32.00" fill="#29235c">*</text>
</g>
</g>
</svg>
