<?xml version="1.0" encoding="UTF-8" standalone="no"?>
<!DOCTYPE svg PUBLIC "-//W3C//DTD SVG 1.1//EN"
 "http://www.w3.org/Graphics/SVG/1.1/DTD/svg11.dtd">
<!-- Generated by graphviz version 2.47.0 (20210316.0004)
 -->
<!-- Title: dbml Pages: 1 -->
<svg width="2148pt" height="1406pt"
 viewBox="0.00 0.00 2147.58 1405.92" xmlns="http://www.w3.org/2000/svg" xmlns:xlink="http://www.w3.org/1999/xlink">
<g id="graph0" class="graph" transform="scale(1 1) rotate(0) translate(4 1401.92)">
<title>dbml</title>
<!-- preferences -->
<g id="preferences" class="node">
<title>preferences</title>
<ellipse fill="none" stroke="black" stroke-width="0" cx="395.27" cy="-371.96" rx="225.63" ry="130.22"/>
<polygon fill="#1d71b8" stroke="transparent" points="238.27,-401.96 238.27,-461.96 553.27,-461.96 553.27,-401.96 238.27,-401.96"/>
<polygon fill="none" stroke="#29235c" points="238.27,-401.96 238.27,-461.96 553.27,-461.96 553.27,-401.96 238.27,-401.96"/>
<text text-anchor="start" x="249.06" y="-423.16" font-family="Helvetica,sans-Serif" font-weight="bold" font-size="32.00" fill="#ffffff"> &#160;&#160;&#160;&#160;&#160;&#160;preferences &#160;&#160;&#160;&#160;&#160;&#160;</text>
<polygon fill="#e7e2dd" stroke="transparent" points="238.27,-341.96 238.27,-401.96 553.27,-401.96 553.27,-341.96 238.27,-341.96"/>
<polygon fill="none" stroke="#29235c" points="238.27,-341.96 238.27,-401.96 553.27,-401.96 553.27,-341.96 238.27,-341.96"/>
<text text-anchor="start" x="249.27" y="-363.16" font-family="Helvetica,sans-Serif" font-weight="bold" font-size="32.00" fill="#29235c">key</text>
<text text-anchor="start" x="299.06" y="-363.16" font-family="Helvetica,sans-Serif" font-size="32.00" fill="#29235c"> &#160;&#160;&#160;</text>
<text text-anchor="start" x="451.61" y="-363.16" font-family="Helvetica,sans-Serif" font-style="italic" font-size="32.00" fill="#29235c">text</text>
<text text-anchor="start" x="503.18" y="-363.16" font-family="Helvetica,sans-Serif" font-size="32.00" fill="#29235c"> </text>
<text text-anchor="start" x="512.07" y="-363.16" font-family="Helvetica,sans-Serif" font-weight="bold" font-size="32.00" fill="#29235c">(!)</text>
<polygon fill="#e7e2dd" stroke="transparent" points="238.27,-281.96 238.27,-341.96 553.27,-341.96 553.27,-281.96 238.27,-281.96"/>
<polygon fill="none" stroke="#29235c" points="238.27,-281.96 238.27,-341.96 553.27,-341.96 553.27,-281.96 238.27,-281.96"/>
<text text-anchor="start" x="249.27" y="-302.16" font-family="Helvetica,sans-Serif" font-size="32.00" fill="#29235c">value &#160;&#160;&#160;</text>
<text text-anchor="start" x="451.61" y="-303.16" font-family="Helvetica,sans-Serif" font-style="italic" font-size="32.00" fill="#29235c">text</text>
<text text-anchor="start" x="503.18" y="-303.16" font-family="Helvetica,sans-Serif" font-size="32.00" fill="#29235c"> </text>
<text text-anchor="start" x="512.07" y="-303.16" font-family="Helvetica,sans-Serif" font-weight="bold" font-size="32.00" fill="#29235c">(!)</text>
<polygon fill="none" stroke="#29235c" stroke-width="2" points="236.77,-280.96 236.77,-462.96 553.77,-462.96 553.77,-280.96 236.77,-280.96"/>
</g>
<!-- scraper_data_sources -->
<g id="scraper_data_sources" class="node">
<title>scraper_data_sources</title>
<ellipse fill="none" stroke="black" stroke-width="0" cx="1170.91" cy="-280.96" rx="344.22" ry="214.92"/>
<polygon fill="#1d71b8" stroke="transparent" points="929.91,-370.96 929.91,-430.96 1412.91,-430.96 1412.91,-370.96 929.91,-370.96"/>
<polygon fill="none" stroke="#29235c" points="929.91,-370.96 929.91,-430.96 1412.91,-430.96 1412.91,-370.96 929.91,-370.96"/>
<text text-anchor="start" x="950.89" y="-392.16" font-family="Helvetica,sans-Serif" font-weight="bold" font-size="32.00" fill="#ffffff"> &#160;&#160;&#160;&#160;&#160;&#160;scraper_data_sources &#160;&#160;&#160;&#160;&#160;&#160;</text>
<polygon fill="#e7e2dd" stroke="transparent" points="929.91,-310.96 929.91,-370.96 1412.91,-370.96 1412.91,-310.96 929.91,-310.96"/>
<polygon fill="none" stroke="#29235c" points="929.91,-310.96 929.91,-370.96 1412.91,-370.96 1412.91,-310.96 929.91,-310.96"/>
<text text-anchor="start" x="940.91" y="-332.16" font-family="Helvetica,sans-Serif" font-weight="bold" font-size="32.00" fill="#29235c">scraper_id</text>
<text text-anchor="start" x="1090.26" y="-332.16" font-family="Helvetica,sans-Serif" font-size="32.00" fill="#29235c"> &#160;&#160;&#160;</text>
<text text-anchor="start" x="1265.01" y="-332.16" font-family="Helvetica,sans-Serif" font-style="italic" font-size="32.00" fill="#29235c">integer</text>
<text text-anchor="start" x="1362.82" y="-332.16" font-family="Helvetica,sans-Serif" font-size="32.00" fill="#29235c"> </text>
<text text-anchor="start" x="1371.71" y="-332.16" font-family="Helvetica,sans-Serif" font-weight="bold" font-size="32.00" fill="#29235c">(!)</text>
<polygon fill="#e7e2dd" stroke="transparent" points="929.91,-250.96 929.91,-310.96 1412.91,-310.96 1412.91,-250.96 929.91,-250.96"/>
<polygon fill="none" stroke="#29235c" points="929.91,-250.96 929.91,-310.96 1412.91,-310.96 1412.91,-250.96 929.91,-250.96"/>
<text text-anchor="start" x="940.56" y="-272.16" font-family="Helvetica,sans-Serif" font-weight="bold" font-size="32.00" fill="#29235c">data_store_table_name</text>
<text text-anchor="start" x="1276.68" y="-272.16" font-family="Helvetica,sans-Serif" font-size="32.00" fill="#29235c"> &#160;&#160;&#160;</text>
<text text-anchor="start" x="1311.57" y="-272.16" font-family="Helvetica,sans-Serif" font-style="italic" font-size="32.00" fill="#29235c">text</text>
<text text-anchor="start" x="1363.15" y="-272.16" font-family="Helvetica,sans-Serif" font-size="32.00" fill="#29235c"> </text>
<text text-anchor="start" x="1372.04" y="-272.16" font-family="Helvetica,sans-Serif" font-weight="bold" font-size="32.00" fill="#29235c">(!)</text>
<polygon fill="#e7e2dd" stroke="transparent" points="929.91,-190.96 929.91,-250.96 1412.91,-250.96 1412.91,-190.96 929.91,-190.96"/>
<polygon fill="none" stroke="#29235c" points="929.91,-190.96 929.91,-250.96 1412.91,-250.96 1412.91,-190.96 929.91,-190.96"/>
<text text-anchor="start" x="940.91" y="-211.16" font-family="Helvetica,sans-Serif" font-size="32.00" fill="#29235c">source_alias &#160;&#160;&#160;</text>
<text text-anchor="start" x="1311.24" y="-212.16" font-family="Helvetica,sans-Serif" font-style="italic" font-size="32.00" fill="#29235c">text</text>
<text text-anchor="start" x="1362.82" y="-212.16" font-family="Helvetica,sans-Serif" font-size="32.00" fill="#29235c"> </text>
<text text-anchor="start" x="1371.71" y="-212.16" font-family="Helvetica,sans-Serif" font-weight="bold" font-size="32.00" fill="#29235c">(!)</text>
<polygon fill="#e7e2dd" stroke="transparent" points="929.91,-130.96 929.91,-190.96 1412.91,-190.96 1412.91,-130.96 929.91,-130.96"/>
<polygon fill="none" stroke="#29235c" points="929.91,-130.96 929.91,-190.96 1412.91,-190.96 1412.91,-130.96 929.91,-130.96"/>
<text text-anchor="start" x="940.91" y="-151.16" font-family="Helvetica,sans-Serif" font-size="32.00" fill="#29235c">where_schema &#160;&#160;&#160;</text>
<text text-anchor="start" x="1350.33" y="-152.16" font-family="Helvetica,sans-Serif" font-style="italic" font-size="32.00" fill="#29235c">text</text>
<polygon fill="none" stroke="#29235c" stroke-width="2" points="928.41,-129.96 928.41,-431.96 1413.41,-431.96 1413.41,-129.96 928.41,-129.96"/>
</g>
<!-- scrapers -->
<g id="scrapers" class="node">
<title>scrapers</title>
<ellipse fill="none" stroke="black" stroke-width="0" cx="1845.42" cy="-704.96" rx="279.11" ry="257.27"/>
<polygon fill="#1d71b8" stroke="transparent" points="1650.42,-824.96 1650.42,-884.96 2041.42,-884.96 2041.42,-824.96 1650.42,-824.96"/>
<polygon fill="none" stroke="#29235c" points="1650.42,-824.96 1650.42,-884.96 2041.42,-884.96 2041.42,-824.96 1650.42,-824.96"/>
<text text-anchor="start" x="1722.34" y="-846.16" font-family="Helvetica,sans-Serif" font-weight="bold" font-size="32.00" fill="#ffffff"> &#160;&#160;&#160;&#160;&#160;&#160;scrapers &#160;&#160;&#160;&#160;&#160;&#160;</text>
<polygon fill="#e7e2dd" stroke="transparent" points="1650.42,-764.96 1650.42,-824.96 2041.42,-824.96 2041.42,-764.96 1650.42,-764.96"/>
<polygon fill="none" stroke="#29235c" points="1650.42,-764.96 1650.42,-824.96 2041.42,-824.96 2041.42,-764.96 1650.42,-764.96"/>
<text text-anchor="start" x="1661.42" y="-786.16" font-family="Helvetica,sans-Serif" font-weight="bold" font-size="32.00" fill="#29235c">id</text>
<text text-anchor="start" x="1686.31" y="-786.16" font-family="Helvetica,sans-Serif" font-size="32.00" fill="#29235c"> &#160;&#160;&#160;</text>
<text text-anchor="start" x="1893.53" y="-786.16" font-family="Helvetica,sans-Serif" font-style="italic" font-size="32.00" fill="#29235c">integer</text>
<text text-anchor="start" x="1991.33" y="-786.16" font-family="Helvetica,sans-Serif" font-size="32.00" fill="#29235c"> </text>
<text text-anchor="start" x="2000.23" y="-786.16" font-family="Helvetica,sans-Serif" font-weight="bold" font-size="32.00" fill="#29235c">(!)</text>
<polygon fill="#e7e2dd" stroke="transparent" points="1650.42,-704.96 1650.42,-764.96 2041.42,-764.96 2041.42,-704.96 1650.42,-704.96"/>
<polygon fill="none" stroke="#29235c" points="1650.42,-704.96 1650.42,-764.96 2041.42,-764.96 2041.42,-704.96 1650.42,-704.96"/>
<text text-anchor="start" x="1661.42" y="-725.16" font-family="Helvetica,sans-Serif" font-size="32.00" fill="#29235c">name &#160;&#160;&#160;</text>
<text text-anchor="start" x="1939.76" y="-726.16" font-family="Helvetica,sans-Serif" font-style="italic" font-size="32.00" fill="#29235c">text</text>
<text text-anchor="start" x="1991.33" y="-726.16" font-family="Helvetica,sans-Serif" font-size="32.00" fill="#29235c"> </text>
<text text-anchor="start" x="2000.23" y="-726.16" font-family="Helvetica,sans-Serif" font-weight="bold" font-size="32.00" fill="#29235c">(!)</text>
<polygon fill="#e7e2dd" stroke="transparent" points="1650.42,-644.96 1650.42,-704.96 2041.42,-704.96 2041.42,-644.96 1650.42,-644.96"/>
<polygon fill="none" stroke="#29235c" points="1650.42,-644.96 1650.42,-704.96 2041.42,-704.96 2041.42,-644.96 1650.42,-644.96"/>
<text text-anchor="start" x="1661.42" y="-665.16" font-family="Helvetica,sans-Serif" font-size="32.00" fill="#29235c">description &#160;&#160;&#160;</text>
<text text-anchor="start" x="1978.85" y="-666.16" font-family="Helvetica,sans-Serif" font-style="italic" font-size="32.00" fill="#29235c">text</text>
<polygon fill="#e7e2dd" stroke="transparent" points="1650.42,-584.96 1650.42,-644.96 2041.42,-644.96 2041.42,-584.96 1650.42,-584.96"/>
<polygon fill="none" stroke="#29235c" points="1650.42,-584.96 1650.42,-644.96 2041.42,-644.96 2041.42,-584.96 1650.42,-584.96"/>
<text text-anchor="start" x="1661.42" y="-605.16" font-family="Helvetica,sans-Serif" font-size="32.00" fill="#29235c">instructions &#160;&#160;&#160;</text>
<text text-anchor="start" x="1939.76" y="-606.16" font-family="Helvetica,sans-Serif" font-style="italic" font-size="32.00" fill="#29235c">text</text>
<text text-anchor="start" x="1991.33" y="-606.16" font-family="Helvetica,sans-Serif" font-size="32.00" fill="#29235c"> </text>
<text text-anchor="start" x="2000.23" y="-606.16" font-family="Helvetica,sans-Serif" font-weight="bold" font-size="32.00" fill="#29235c">(!)</text>
<polygon fill="#e7e2dd" stroke="transparent" points="1650.42,-524.96 1650.42,-584.96 2041.42,-584.96 2041.42,-524.96 1650.42,-524.96"/>
<polygon fill="none" stroke="#29235c" points="1650.42,-524.96 1650.42,-584.96 2041.42,-584.96 2041.42,-524.96 1650.42,-524.96"/>
<text text-anchor="start" x="1661.27" y="-545.16" font-family="Helvetica,sans-Serif" font-size="32.00" fill="#29235c">user_data_directory &#160;&#160;&#160;</text>
<text text-anchor="start" x="1979.14" y="-546.16" font-family="Helvetica,sans-Serif" font-style="italic" font-size="32.00" fill="#29235c">text</text>
<polygon fill="none" stroke="#29235c" stroke-width="2" points="1648.92,-523.96 1648.92,-885.96 2041.92,-885.96 2041.92,-523.96 1648.92,-523.96"/>
</g>
<!-- scraper_data_sources&#45;&gt;scrapers -->
<!-- scraper_data_sources&#45;&gt;scrapers -->
<g id="edge2" class="edge">
<title>scraper_data_sources:e&#45;&gt;scrapers:w</title>
<path fill="none" stroke="#29235c" stroke-width="3" d="M1413.91,-340.96C1637.78,-340.96 1428.64,-781.32 1639.41,-794.65"/>
<polygon fill="#29235c" stroke="#29235c" stroke-width="3" points="1639.32,-798.15 1649.42,-794.96 1639.54,-791.15 1639.32,-798.15"/>
<text text-anchor="middle" x="1640.53" y="-804.56" font-family="Helvetica,sans-Serif" font-size="32.00" fill="#29235c">1</text>
<text text-anchor="middle" x="1420.13" y="-312.16" font-family="Helvetica,sans-Serif" font-size="32.00" fill="#29235c">*</text>
</g>
<!-- user_data_stores -->
<g id="user_data_stores" class="node">
<title>user_data_stores</title>
<ellipse fill="none" stroke="black" stroke-width="0" cx="1845.42" cy="-214.96" rx="294.31" ry="214.92"/>
<polygon fill="#1d71b8" stroke="transparent" points="1639.42,-304.96 1639.42,-364.96 2051.42,-364.96 2051.42,-304.96 1639.42,-304.96"/>
<polygon fill="none" stroke="#29235c" points="1639.42,-304.96 1639.42,-364.96 2051.42,-364.96 2051.42,-304.96 1639.42,-304.96"/>
<text text-anchor="start" x="1659.58" y="-326.16" font-family="Helvetica,sans-Serif" font-weight="bold" font-size="32.00" fill="#ffffff"> &#160;&#160;&#160;&#160;&#160;&#160;user_data_stores &#160;&#160;&#160;&#160;&#160;&#160;</text>
<polygon fill="#e7e2dd" stroke="transparent" points="1639.42,-244.96 1639.42,-304.96 2051.42,-304.96 2051.42,-244.96 1639.42,-244.96"/>
<polygon fill="none" stroke="#29235c" points="1639.42,-244.96 1639.42,-304.96 2051.42,-304.96 2051.42,-244.96 1639.42,-244.96"/>
<text text-anchor="start" x="1650.42" y="-266.16" font-family="Helvetica,sans-Serif" font-weight="bold" font-size="32.00" fill="#29235c">table_name</text>
<text text-anchor="start" x="1817.59" y="-266.16" font-family="Helvetica,sans-Serif" font-size="32.00" fill="#29235c"> &#160;&#160;&#160;</text>
<text text-anchor="start" x="1949.76" y="-266.16" font-family="Helvetica,sans-Serif" font-style="italic" font-size="32.00" fill="#29235c">text</text>
<text text-anchor="start" x="2001.33" y="-266.16" font-family="Helvetica,sans-Serif" font-size="32.00" fill="#29235c"> </text>
<text text-anchor="start" x="2010.23" y="-266.16" font-family="Helvetica,sans-Serif" font-weight="bold" font-size="32.00" fill="#29235c">(!)</text>
<polygon fill="#e7e2dd" stroke="transparent" points="1639.42,-184.96 1639.42,-244.96 2051.42,-244.96 2051.42,-184.96 1639.42,-184.96"/>
<polygon fill="none" stroke="#29235c" points="1639.42,-184.96 1639.42,-244.96 2051.42,-244.96 2051.42,-184.96 1639.42,-184.96"/>
<text text-anchor="start" x="1650.42" y="-205.16" font-family="Helvetica,sans-Serif" font-size="32.00" fill="#29235c">name &#160;&#160;&#160;</text>
<text text-anchor="start" x="1949.76" y="-206.16" font-family="Helvetica,sans-Serif" font-style="italic" font-size="32.00" fill="#29235c">text</text>
<text text-anchor="start" x="2001.33" y="-206.16" font-family="Helvetica,sans-Serif" font-size="32.00" fill="#29235c"> </text>
<text text-anchor="start" x="2010.23" y="-206.16" font-family="Helvetica,sans-Serif" font-weight="bold" font-size="32.00" fill="#29235c">(!)</text>
<polygon fill="#e7e2dd" stroke="transparent" points="1639.42,-124.96 1639.42,-184.96 2051.42,-184.96 2051.42,-124.96 1639.42,-124.96"/>
<polygon fill="none" stroke="#29235c" points="1639.42,-124.96 1639.42,-184.96 2051.42,-184.96 2051.42,-124.96 1639.42,-124.96"/>
<text text-anchor="start" x="1650.42" y="-145.16" font-family="Helvetica,sans-Serif" font-size="32.00" fill="#29235c">description &#160;&#160;&#160;</text>
<text text-anchor="start" x="1988.85" y="-146.16" font-family="Helvetica,sans-Serif" font-style="italic" font-size="32.00" fill="#29235c">text</text>
<polygon fill="#e7e2dd" stroke="transparent" points="1639.42,-64.96 1639.42,-124.96 2051.42,-124.96 2051.42,-64.96 1639.42,-64.96"/>
<polygon fill="none" stroke="#29235c" points="1639.42,-64.96 1639.42,-124.96 2051.42,-124.96 2051.42,-64.96 1639.42,-64.96"/>
<text text-anchor="start" x="1650.17" y="-85.16" font-family="Helvetica,sans-Serif" font-size="32.00" fill="#29235c">column_definitions &#160;&#160;&#160;</text>
<text text-anchor="start" x="1950.09" y="-86.16" font-family="Helvetica,sans-Serif" font-style="italic" font-size="32.00" fill="#29235c">text</text>
<text text-anchor="start" x="2001.67" y="-86.16" font-family="Helvetica,sans-Serif" font-size="32.00" fill="#29235c"> </text>
<text text-anchor="start" x="2010.56" y="-86.16" font-family="Helvetica,sans-Serif" font-weight="bold" font-size="32.00" fill="#29235c">(!)</text>
<polygon fill="none" stroke="#29235c" stroke-width="2" points="1638.42,-63.96 1638.42,-365.96 2052.42,-365.96 2052.42,-63.96 1638.42,-63.96"/>
</g>
<!-- scraper_data_sources&#45;&gt;user_data_stores -->
<!-- scraper_data_sources&#45;&gt;user_data_stores -->
<g id="edge4" class="edge">
<title>scraper_data_sources:e&#45;&gt;user_data_stores:w</title>
<path fill="none" stroke="#29235c" stroke-width="3" d="M1413.91,-280.96C1510.22,-280.96 1536.76,-275.37 1628.17,-274.98"/>
<polygon fill="#29235c" stroke="#29235c" stroke-width="3" points="1628.43,-278.48 1638.42,-274.96 1628.42,-271.48 1628.43,-278.48"/>
<text text-anchor="middle" x="1629.53" y="-246.16" font-family="Helvetica,sans-Serif" font-size="32.00" fill="#29235c">1</text>
<text text-anchor="middle" x="1420.13" y="-252.16" font-family="Helvetica,sans-Serif" font-size="32.00" fill="#29235c">*</text>
</g>
<!-- scraper_execution_iterations -->
<g id="scraper_execution_iterations" class="node">
<title>scraper_execution_iterations</title>
<ellipse fill="none" stroke="black" stroke-width="0" cx="395.27" cy="-734.96" rx="395.05" ry="214.92"/>
<polygon fill="#1d71b8" stroke="transparent" points="118.27,-824.96 118.27,-884.96 673.27,-884.96 673.27,-824.96 118.27,-824.96"/>
<polygon fill="none" stroke="#29235c" points="118.27,-824.96 118.27,-884.96 673.27,-884.96 673.27,-824.96 118.27,-824.96"/>
<text text-anchor="start" x="129.03" y="-846.16" font-family="Helvetica,sans-Serif" font-weight="bold" font-size="32.00" fill="#ffffff"> &#160;&#160;&#160;&#160;&#160;&#160;scraper_execution_iterations &#160;&#160;&#160;&#160;&#160;&#160;</text>
<polygon fill="#e7e2dd" stroke="transparent" points="118.27,-764.96 118.27,-824.96 673.27,-824.96 673.27,-764.96 118.27,-764.96"/>
<polygon fill="none" stroke="#29235c" points="118.27,-764.96 118.27,-824.96 673.27,-824.96 673.27,-764.96 118.27,-764.96"/>
<text text-anchor="start" x="129.27" y="-786.16" font-family="Helvetica,sans-Serif" font-weight="bold" font-size="32.00" fill="#29235c">iteration</text>
<text text-anchor="start" x="243.07" y="-786.16" font-family="Helvetica,sans-Serif" font-size="32.00" fill="#29235c"> &#160;&#160;&#160;</text>
<text text-anchor="start" x="525.38" y="-786.16" font-family="Helvetica,sans-Serif" font-style="italic" font-size="32.00" fill="#29235c">integer</text>
<text text-anchor="start" x="623.18" y="-786.16" font-family="Helvetica,sans-Serif" font-size="32.00" fill="#29235c"> </text>
<text text-anchor="start" x="632.07" y="-786.16" font-family="Helvetica,sans-Serif" font-weight="bold" font-size="32.00" fill="#29235c">(!)</text>
<polygon fill="#e7e2dd" stroke="transparent" points="118.27,-704.96 118.27,-764.96 673.27,-764.96 673.27,-704.96 118.27,-704.96"/>
<polygon fill="none" stroke="#29235c" points="118.27,-704.96 118.27,-764.96 673.27,-764.96 673.27,-704.96 118.27,-704.96"/>
<text text-anchor="start" x="129.27" y="-726.16" font-family="Helvetica,sans-Serif" font-weight="bold" font-size="32.00" fill="#29235c">execution_id</text>
<text text-anchor="start" x="308.89" y="-726.16" font-family="Helvetica,sans-Serif" font-size="32.00" fill="#29235c"> &#160;&#160;&#160;</text>
<text text-anchor="start" x="525.38" y="-726.16" font-family="Helvetica,sans-Serif" font-style="italic" font-size="32.00" fill="#29235c">integer</text>
<text text-anchor="start" x="623.18" y="-726.16" font-family="Helvetica,sans-Serif" font-size="32.00" fill="#29235c"> </text>
<text text-anchor="start" x="632.07" y="-726.16" font-family="Helvetica,sans-Serif" font-weight="bold" font-size="32.00" fill="#29235c">(!)</text>
<polygon fill="#e7e2dd" stroke="transparent" points="118.27,-644.96 118.27,-704.96 673.27,-704.96 673.27,-644.96 118.27,-644.96"/>
<polygon fill="none" stroke="#29235c" points="118.27,-644.96 118.27,-704.96 673.27,-704.96 673.27,-644.96 118.27,-644.96"/>
<text text-anchor="start" x="129.27" y="-665.16" font-family="Helvetica,sans-Serif" font-size="32.00" fill="#29235c">execution_info &#160;&#160;&#160;</text>
<text text-anchor="start" x="571.61" y="-666.16" font-family="Helvetica,sans-Serif" font-style="italic" font-size="32.00" fill="#29235c">text</text>
<text text-anchor="start" x="623.18" y="-666.16" font-family="Helvetica,sans-Serif" font-size="32.00" fill="#29235c"> </text>
<text text-anchor="start" x="632.07" y="-666.16" font-family="Helvetica,sans-Serif" font-weight="bold" font-size="32.00" fill="#29235c">(!)</text>
<polygon fill="#e7e2dd" stroke="transparent" points="118.27,-584.96 118.27,-644.96 673.27,-644.96 673.27,-584.96 118.27,-584.96"/>
<polygon fill="none" stroke="#29235c" points="118.27,-584.96 118.27,-644.96 673.27,-644.96 673.27,-584.96 118.27,-584.96"/>
<text text-anchor="start" x="129.27" y="-605.16" font-family="Helvetica,sans-Serif" font-size="32.00" fill="#29235c">finished_at &#160;&#160;&#160;</text>
<text text-anchor="start" x="525.38" y="-606.16" font-family="Helvetica,sans-Serif" font-style="italic" font-size="32.00" fill="#29235c">integer</text>
<text text-anchor="start" x="623.18" y="-606.16" font-family="Helvetica,sans-Serif" font-size="32.00" fill="#29235c"> </text>
<text text-anchor="start" x="632.07" y="-606.16" font-family="Helvetica,sans-Serif" font-weight="bold" font-size="32.00" fill="#29235c">(!)</text>
<polygon fill="none" stroke="#29235c" stroke-width="2" points="116.77,-583.96 116.77,-885.96 673.77,-885.96 673.77,-583.96 116.77,-583.96"/>
</g>
<!-- scraper_executions -->
<g id="scraper_executions" class="node">
<title>scraper_executions</title>
<ellipse fill="none" stroke="black" stroke-width="0" cx="1170.91" cy="-734.96" rx="301.87" ry="214.92"/>
<polygon fill="#1d71b8" stroke="transparent" points="959.91,-824.96 959.91,-884.96 1382.91,-884.96 1382.91,-824.96 959.91,-824.96"/>
<polygon fill="none" stroke="#29235c" points="959.91,-824.96 959.91,-884.96 1382.91,-884.96 1382.91,-824.96 959.91,-824.96"/>
<text text-anchor="start" x="970.46" y="-846.16" font-family="Helvetica,sans-Serif" font-weight="bold" font-size="32.00" fill="#ffffff"> &#160;&#160;&#160;&#160;&#160;&#160;scraper_executions &#160;&#160;&#160;&#160;&#160;&#160;</text>
<polygon fill="#e7e2dd" stroke="transparent" points="959.91,-764.96 959.91,-824.96 1382.91,-824.96 1382.91,-764.96 959.91,-764.96"/>
<polygon fill="none" stroke="#29235c" points="959.91,-764.96 959.91,-824.96 1382.91,-824.96 1382.91,-764.96 959.91,-764.96"/>
<text text-anchor="start" x="970.91" y="-786.16" font-family="Helvetica,sans-Serif" font-weight="bold" font-size="32.00" fill="#29235c">id</text>
<text text-anchor="start" x="995.8" y="-786.16" font-family="Helvetica,sans-Serif" font-size="32.00" fill="#29235c"> &#160;&#160;&#160;</text>
<text text-anchor="start" x="1235.01" y="-786.16" font-family="Helvetica,sans-Serif" font-style="italic" font-size="32.00" fill="#29235c">integer</text>
<text text-anchor="start" x="1332.82" y="-786.16" font-family="Helvetica,sans-Serif" font-size="32.00" fill="#29235c"> </text>
<text text-anchor="start" x="1341.71" y="-786.16" font-family="Helvetica,sans-Serif" font-weight="bold" font-size="32.00" fill="#29235c">(!)</text>
<polygon fill="#e7e2dd" stroke="transparent" points="959.91,-704.96 959.91,-764.96 1382.91,-764.96 1382.91,-704.96 959.91,-704.96"/>
<polygon fill="none" stroke="#29235c" points="959.91,-704.96 959.91,-764.96 1382.91,-764.96 1382.91,-704.96 959.91,-704.96"/>
<text text-anchor="start" x="970.91" y="-725.16" font-family="Helvetica,sans-Serif" font-size="32.00" fill="#29235c">scraper_id &#160;&#160;&#160;</text>
<text text-anchor="start" x="1235.01" y="-726.16" font-family="Helvetica,sans-Serif" font-style="italic" font-size="32.00" fill="#29235c">integer</text>
<text text-anchor="start" x="1332.82" y="-726.16" font-family="Helvetica,sans-Serif" font-size="32.00" fill="#29235c"> </text>
<text text-anchor="start" x="1341.71" y="-726.16" font-family="Helvetica,sans-Serif" font-weight="bold" font-size="32.00" fill="#29235c">(!)</text>
<polygon fill="#e7e2dd" stroke="transparent" points="959.91,-644.96 959.91,-704.96 1382.91,-704.96 1382.91,-644.96 959.91,-644.96"/>
<polygon fill="none" stroke="#29235c" points="959.91,-644.96 959.91,-704.96 1382.91,-704.96 1382.91,-644.96 959.91,-644.96"/>
<text text-anchor="start" x="970.91" y="-665.16" font-family="Helvetica,sans-Serif" font-size="32.00" fill="#29235c">iterator &#160;&#160;&#160;</text>
<text text-anchor="start" x="1320.33" y="-666.16" font-family="Helvetica,sans-Serif" font-style="italic" font-size="32.00" fill="#29235c">text</text>
<polygon fill="#e7e2dd" stroke="transparent" points="959.91,-584.96 959.91,-644.96 1382.91,-644.96 1382.91,-584.96 959.91,-584.96"/>
<polygon fill="none" stroke="#29235c" points="959.91,-584.96 959.91,-644.96 1382.91,-644.96 1382.91,-584.96 959.91,-584.96"/>
<text text-anchor="start" x="970.91" y="-605.16" font-family="Helvetica,sans-Serif" font-size="32.00" fill="#29235c">created_at &#160;&#160;&#160;</text>
<text text-anchor="start" x="1235.01" y="-606.16" font-family="Helvetica,sans-Serif" font-style="italic" font-size="32.00" fill="#29235c">integer</text>
<text text-anchor="start" x="1332.82" y="-606.16" font-family="Helvetica,sans-Serif" font-size="32.00" fill="#29235c"> </text>
<text text-anchor="start" x="1341.71" y="-606.16" font-family="Helvetica,sans-Serif" font-weight="bold" font-size="32.00" fill="#29235c">(!)</text>
<polygon fill="none" stroke="#29235c" stroke-width="2" points="958.41,-583.96 958.41,-885.96 1383.41,-885.96 1383.41,-583.96 958.41,-583.96"/>
</g>
<!-- scraper_execution_iterations&#45;&gt;scraper_executions -->
<!-- scraper_execution_iterations&#45;&gt;scraper_executions -->
<g id="edge6" class="edge">
<title>scraper_execution_iterations:e&#45;&gt;scraper_executions:w</title>
<path fill="none" stroke="#29235c" stroke-width="3" d="M674.27,-734.96C800.15,-734.96 828.18,-791.84 948.89,-794.84"/>
<polygon fill="#29235c" stroke="#29235c" stroke-width="3" points="948.86,-798.34 958.91,-794.96 948.95,-791.34 948.86,-798.34"/>
<text text-anchor="middle" x="950.01" y="-804.56" font-family="Helvetica,sans-Serif" font-size="32.00" fill="#29235c">1</text>
<text text-anchor="middle" x="668.05" y="-744.56" font-family="Helvetica,sans-Serif" font-size="32.00" fill="#29235c">*</text>
</g>
<!-- scraper_executions&#45;&gt;scrapers -->
<!-- scraper_executions&#45;&gt;scrapers -->
<g id="edge8" class="edge">
<title>scraper_executions:e&#45;&gt;scrapers:w</title>
<path fill="none" stroke="#29235c" stroke-width="3" d="M1383.91,-734.96C1501.46,-734.96 1527.03,-791.61 1639.37,-794.82"/>
<polygon fill="#29235c" stroke="#29235c" stroke-width="3" points="1639.38,-798.32 1649.42,-794.96 1639.47,-791.32 1639.38,-798.32"/>
<text text-anchor="middle" x="1640.53" y="-766.16" font-family="Helvetica,sans-Serif" font-size="32.00" fill="#29235c">1</text>
<text text-anchor="middle" x="1390.13" y="-744.56" font-family="Helvetica,sans-Serif" font-size="32.00" fill="#29235c">*</text>
</g>
<!-- notifications -->
<g id="notifications" class="node">
<title>notifications</title>
<ellipse fill="none" stroke="black" stroke-width="0" cx="395.27" cy="-1182.96" rx="246.15" ry="214.92"/>
<polygon fill="#1d71b8" stroke="transparent" points="223.27,-1272.96 223.27,-1332.96 567.27,-1332.96 567.27,-1272.96 223.27,-1272.96"/>
<polygon fill="none" stroke="#29235c" points="223.27,-1272.96 223.27,-1332.96 567.27,-1332.96 567.27,-1272.96 223.27,-1272.96"/>
<text text-anchor="start" x="248.56" y="-1294.16" font-family="Helvetica,sans-Serif" font-weight="bold" font-size="32.00" fill="#ffffff"> &#160;&#160;&#160;&#160;&#160;&#160;notifications &#160;&#160;&#160;&#160;&#160;&#160;</text>
<polygon fill="#e7e2dd" stroke="transparent" points="223.27,-1212.96 223.27,-1272.96 567.27,-1272.96 567.27,-1212.96 223.27,-1212.96"/>
<polygon fill="none" stroke="#29235c" points="223.27,-1212.96 223.27,-1272.96 567.27,-1272.96 567.27,-1212.96 223.27,-1212.96"/>
<text text-anchor="start" x="234.27" y="-1234.16" font-family="Helvetica,sans-Serif" font-weight="bold" font-size="32.00" fill="#29235c">id</text>
<text text-anchor="start" x="259.16" y="-1234.16" font-family="Helvetica,sans-Serif" font-size="32.00" fill="#29235c"> &#160;&#160;&#160;</text>
<text text-anchor="start" x="419.38" y="-1234.16" font-family="Helvetica,sans-Serif" font-style="italic" font-size="32.00" fill="#29235c">integer</text>
<text text-anchor="start" x="517.18" y="-1234.16" font-family="Helvetica,sans-Serif" font-size="32.00" fill="#29235c"> </text>
<text text-anchor="start" x="526.07" y="-1234.16" font-family="Helvetica,sans-Serif" font-weight="bold" font-size="32.00" fill="#29235c">(!)</text>
<polygon fill="#e7e2dd" stroke="transparent" points="223.27,-1152.96 223.27,-1212.96 567.27,-1212.96 567.27,-1152.96 223.27,-1152.96"/>
<polygon fill="none" stroke="#29235c" points="223.27,-1152.96 223.27,-1212.96 567.27,-1212.96 567.27,-1152.96 223.27,-1152.96"/>
<text text-anchor="start" x="233.9" y="-1173.16" font-family="Helvetica,sans-Serif" font-size="32.00" fill="#29235c">created_at &#160;&#160;&#160;</text>
<text text-anchor="start" x="419.83" y="-1174.16" font-family="Helvetica,sans-Serif" font-style="italic" font-size="32.00" fill="#29235c">integer</text>
<text text-anchor="start" x="517.63" y="-1174.16" font-family="Helvetica,sans-Serif" font-size="32.00" fill="#29235c"> </text>
<text text-anchor="start" x="526.52" y="-1174.16" font-family="Helvetica,sans-Serif" font-weight="bold" font-size="32.00" fill="#29235c">(!)</text>
<polygon fill="#e7e2dd" stroke="transparent" points="223.27,-1092.96 223.27,-1152.96 567.27,-1152.96 567.27,-1092.96 223.27,-1092.96"/>
<polygon fill="none" stroke="#29235c" points="223.27,-1092.96 223.27,-1152.96 567.27,-1152.96 567.27,-1092.96 223.27,-1092.96"/>
<text text-anchor="start" x="234.27" y="-1113.16" font-family="Helvetica,sans-Serif" font-size="32.00" fill="#29235c">read &#160;&#160;&#160;</text>
<text text-anchor="start" x="419.38" y="-1114.16" font-family="Helvetica,sans-Serif" font-style="italic" font-size="32.00" fill="#29235c">integer</text>
<text text-anchor="start" x="517.18" y="-1114.16" font-family="Helvetica,sans-Serif" font-size="32.00" fill="#29235c"> </text>
<text text-anchor="start" x="526.07" y="-1114.16" font-family="Helvetica,sans-Serif" font-weight="bold" font-size="32.00" fill="#29235c">(!)</text>
<polygon fill="#e7e2dd" stroke="transparent" points="223.27,-1032.96 223.27,-1092.96 567.27,-1092.96 567.27,-1032.96 223.27,-1032.96"/>
<polygon fill="none" stroke="#29235c" points="223.27,-1032.96 223.27,-1092.96 567.27,-1092.96 567.27,-1032.96 223.27,-1032.96"/>
<text text-anchor="start" x="234.27" y="-1053.16" font-family="Helvetica,sans-Serif" font-size="32.00" fill="#29235c">data &#160;&#160;&#160;</text>
<text text-anchor="start" x="465.61" y="-1054.16" font-family="Helvetica,sans-Serif" font-style="italic" font-size="32.00" fill="#29235c">text</text>
<text text-anchor="start" x="517.18" y="-1054.16" font-family="Helvetica,sans-Serif" font-size="32.00" fill="#29235c"> </text>
<text text-anchor="start" x="526.07" y="-1054.16" font-family="Helvetica,sans-Serif" font-weight="bold" font-size="32.00" fill="#29235c">(!)</text>
<polygon fill="none" stroke="#29235c" stroke-width="2" points="222.27,-1031.96 222.27,-1333.96 568.27,-1333.96 568.27,-1031.96 222.27,-1031.96"/>
</g>
</g>
</svg>
