<svg width="24" height="24" viewBox="0 0 24 24" fill="#263238" xmlns="http://www.w3.org/2000/svg">
  <path
    d="M16.1554 18.1551C15.9051 18.4054 15.5591 18.5378 15.2056 18.518C14.8539 18.4987 14.5253 18.3304 14.3043 18.0561L11.154 13.7967C11.2818 13.7137 11.4006 13.618 11.5095 13.5091C11.6183 13.4002 11.7136 13.2814 11.797 13.1542L16.0559 16.3044C16.3307 16.5255 16.499 16.8536 16.5183 17.2057C16.5377 17.5583 16.4057 17.9052 16.1554 18.1551ZM14.7361 17.6266C14.9816 17.8722 15.3809 17.8722 15.6265 17.6266C15.7458 17.5074 15.8113 17.3495 15.8113 17.1812C15.8113 17.0129 15.7458 16.8545 15.6265 16.7357C15.3809 16.4901 14.9816 16.4901 14.7361 16.7357C14.613 16.8588 14.5517 17.02 14.5517 17.1812C14.5517 17.3424 14.613 17.5036 14.7361 17.6266Z"/>
  <path
    d="M11.1701 13.1702C10.5431 13.7971 9.47686 13.8867 8.16737 13.4233C6.75653 12.9237 5.1741 11.8376 3.58036 10.2769L8.2772 5.58003C9.83794 7.17377 10.924 8.7562 11.4237 10.167C11.887 11.4765 11.797 12.5428 11.1701 13.1702Z"/>
  <path
    d="M21 3H3C2.46957 3 1.96086 3.21071 1.58579 3.58579C1.21071 3.96086 1 4.46957 1 5V19C1 19.5304 1.21071 20.0391 1.58579 20.4142C1.96086 20.7893 2.46957 21 3 21H21C21.5304 21 22.0391 20.7893 22.4142 20.4142C22.7893 20.0391 23 19.5304 23 19V5C23 4.46957 22.7893 3.96086 22.4142 3.58579C22.0391 3.21071 21.5304 3 21 3ZM21 19H3V5H13V9H21V19Z"/>
</svg>
